<svg width="261" height="213" viewBox="0 0 261 213" fill="none" xmlns="http://www.w3.org/2000/svg">
<path d="M130.36 164.197C98.5434 164.197 72.6592 138.313 72.6592 106.497C72.6592 74.6806 98.5434 48.7964 130.36 48.7964C162.176 48.7964 188.06 74.6806 188.06 106.497C188.06 138.313 162.176 164.197 130.36 164.197ZM130.36 53.095C100.914 53.095 76.9577 77.0507 76.9577 106.497C76.9577 135.943 100.914 159.898 130.36 159.898C159.805 159.898 183.761 135.942 183.761 106.497C183.761 77.0515 159.805 53.095 130.36 53.095Z" fill="#FFC727"/>
<path d="M130.359 142.383C110.572 142.383 94.4746 126.286 94.4746 106.5C94.4746 86.7135 110.572 70.6147 130.359 70.6147C150.145 70.6147 166.243 86.7126 166.243 106.5C166.243 126.286 150.145 142.383 130.359 142.383ZM130.359 74.9133C112.943 74.9133 98.7732 89.0827 98.7732 106.5C98.7732 123.915 112.943 138.085 130.359 138.085C147.775 138.085 161.945 123.915 161.945 106.5C161.945 89.0827 147.775 74.9133 130.359 74.9133Z" fill="#FFC727"/>
<path d="M130.35 28.0267C138.09 28.0267 144.364 21.7527 144.364 14.0134C144.364 6.274 138.09 0 130.35 0C122.611 0 116.337 6.274 116.337 14.0134C116.337 21.7527 122.611 28.0267 130.35 28.0267Z" fill="#FFC727"/>
<path d="M144.364 198.987C144.364 206.716 138.079 213.001 130.35 213.001C122.63 213.001 116.337 206.716 116.337 198.987C116.337 191.267 122.63 184.974 130.35 184.974C138.079 184.974 144.364 191.267 144.364 198.987Z" fill="#FFC727"/>
<path d="M132.508 26.3506H128.209V72.6653H132.508V26.3506Z" fill="#FFC727"/>
<path d="M132.508 140.333H128.209V186.648H132.508V140.333Z" fill="#FFC727"/>
<path d="M259.59 107.655C260.23 99.942 254.496 93.171 246.783 92.5313C239.07 91.8916 232.299 97.6256 231.659 105.338C231.02 113.051 236.753 119.822 244.466 120.462C252.179 121.102 258.95 115.368 259.59 107.655Z" fill="#FFC727"/>
<path d="M29.0569 107.616C29.6754 99.9012 23.923 93.1459 16.2084 92.5273C8.49388 91.9088 1.73855 97.6613 1.11999 105.376C0.501438 113.09 6.25389 119.846 13.9684 120.464C21.683 121.083 28.4383 115.33 29.0569 107.616Z" fill="#FFC727"/>
<path d="M233.295 104.348H186.98V108.647H233.295V104.348Z" fill="#FFC727"/>
<path d="M73.7345 104.348H27.4199V108.647H73.7345V104.348Z" fill="#FFC727"/>
<path d="M221.284 74.9681C213.557 74.9681 207.271 68.6813 207.271 60.954C207.271 53.2267 213.557 46.9404 221.284 46.9404C229.011 46.9404 235.298 53.227 235.298 60.954C235.298 68.681 229.011 74.9681 221.284 74.9681ZM221.284 51.239C215.927 51.239 211.569 55.5971 211.569 60.954C211.569 66.3112 215.927 70.6695 221.284 70.6695C226.641 70.6695 230.999 66.3112 230.999 60.954C230.999 55.5971 226.641 51.239 221.284 51.239Z" fill="#FFC727"/>
<path d="M158.854 88.3105L155.814 85.2713L182.283 58.8022H209.414V63.1008H184.064L158.854 88.3105Z" fill="#FFC727"/>
<path d="M39.5751 74.9681C31.8481 74.9681 25.5615 68.6813 25.5615 60.954C25.5615 53.2267 31.8481 46.9404 39.5751 46.9404C47.3021 46.9404 53.5887 53.227 53.5887 60.954C53.5887 68.681 47.3021 74.9681 39.5751 74.9681ZM39.5751 51.239C34.2182 51.239 29.8601 55.5971 29.8601 60.954C29.8601 66.3112 34.2182 70.6695 39.5751 70.6695C44.932 70.6695 49.2901 66.3112 49.2901 60.954C49.2901 55.5971 44.932 51.239 39.5751 51.239Z" fill="#FFC727"/>
<path d="M101.995 88.3105L76.7848 63.1008H51.4346V58.8022H78.5656L105.034 85.2713L101.995 88.3105Z" fill="#FFC727"/>
<path d="M39.5751 166.053C31.8481 166.053 25.5615 159.766 25.5615 152.039C25.5615 144.312 31.8481 138.025 39.5751 138.025C47.3021 138.025 53.5887 144.312 53.5887 152.039C53.5887 159.766 47.3021 166.053 39.5751 166.053ZM39.5751 142.324C34.2182 142.324 29.8601 146.682 29.8601 152.039C29.8601 157.396 34.2182 161.754 39.5751 161.754C44.932 161.754 49.2901 157.396 49.2901 152.039C49.2901 146.682 44.932 142.324 39.5751 142.324Z" fill="#FFC727"/>
<path d="M78.5656 154.187H51.4346V149.889H76.7848L101.995 124.679L105.034 127.718L78.5656 154.187Z" fill="#FFC727"/>
<path d="M221.284 166.053C213.557 166.053 207.271 159.766 207.271 152.039C207.271 144.312 213.557 138.025 221.284 138.025C229.011 138.025 235.298 144.312 235.298 152.039C235.298 159.766 229.011 166.053 221.284 166.053ZM221.284 142.324C215.927 142.324 211.569 146.682 211.569 152.039C211.569 157.396 215.927 161.754 221.284 161.754C226.641 161.754 230.999 157.396 230.999 152.039C230.999 146.682 226.641 142.324 221.284 142.324Z" fill="#FFC727"/>
<path d="M209.414 154.187H182.283L155.814 127.718L158.854 124.679L184.064 149.889H209.414V154.187Z" fill="#FFC727"/>
<path d="M104.748 38.5283C104.748 41.9446 101.97 44.7227 98.5537 44.7227C95.1412 44.7227 92.3594 41.9446 92.3594 38.5283C92.3594 35.1158 95.1412 32.334 98.5537 32.334C101.97 32.334 104.748 35.1158 104.748 38.5283Z" fill="#FFC727"/>
<path d="M84.248 19.4745C84.248 22.891 81.47 25.6689 78.0537 25.6689C74.6412 25.6689 71.8594 22.891 71.8594 19.4745C71.8594 16.062 74.6412 13.2803 78.0537 13.2803C81.47 13.2803 84.248 16.062 84.248 19.4745Z" fill="#FFC727"/>
<path d="M168.357 38.5283C168.357 41.9446 165.579 44.7227 162.163 44.7227C158.751 44.7227 155.969 41.9446 155.969 38.5283C155.969 35.1158 158.751 32.334 162.163 32.334C165.579 32.334 168.357 35.1158 168.357 38.5283Z" fill="#FFC727"/>
<path d="M188.867 19.4745C188.867 22.891 186.089 25.6689 182.673 25.6689C179.26 25.6689 176.479 22.891 176.479 19.4745C176.479 16.062 179.26 13.2803 182.673 13.2803C186.089 13.2803 188.867 16.062 188.867 19.4745Z" fill="#FFC727"/>
<path d="M84.248 193.524C84.248 196.941 81.47 199.719 78.0537 199.719C74.6412 199.719 71.8594 196.941 71.8594 193.524C71.8594 190.112 74.6412 187.33 78.0537 187.33C81.47 187.33 84.248 190.112 84.248 193.524Z" fill="#FFC727"/>
<path d="M104.748 174.471C104.748 177.887 101.97 180.665 98.5537 180.665C95.1412 180.665 92.3594 177.887 92.3594 174.471C92.3594 171.058 95.1412 168.276 98.5537 168.276C101.97 168.276 104.748 171.058 104.748 174.471Z" fill="#FFC727"/>
<path d="M188.867 193.524C188.867 196.941 186.089 199.719 182.673 199.719C179.26 199.719 176.479 196.941 176.479 193.524C176.479 190.112 179.26 187.33 182.673 187.33C186.089 187.33 188.867 190.112 188.867 193.524Z" fill="#FFC727"/>
<path d="M168.357 174.471C168.357 177.887 165.579 180.665 162.163 180.665C158.751 180.665 155.969 177.887 155.969 174.471C155.969 171.058 158.751 168.276 162.163 168.276C165.579 168.276 168.357 171.058 168.357 174.471Z" fill="#FFC727"/>
<path d="M119.468 112.593H111.469L109.855 116.872C109.558 117.595 108.867 118.024 108.143 118.024C107.912 118.024 107.714 117.992 107.517 117.925C106.562 117.563 106.101 116.51 106.431 115.555L113.707 96.1617C114.003 95.4378 114.727 94.9768 115.452 95.0089C116.21 94.9768 116.9 95.4378 117.196 96.1617L124.474 115.555C124.802 116.51 124.342 117.563 123.386 117.925C123.222 117.992 122.992 118.024 122.762 118.024C122.037 118.024 121.345 117.595 121.082 116.872L119.468 112.593ZM118.118 108.971L115.452 101.891L112.785 108.971H118.118Z" fill="#FFC727"/>
<path d="M136.7 109.07H132.651V116.215C132.651 117.202 131.827 118.025 130.806 118.025C129.819 118.025 128.995 117.202 128.995 116.215V96.7893C128.995 95.7679 129.819 94.9771 130.806 94.9771H136.7C140.618 94.9771 143.779 98.1378 143.779 102.057C143.779 105.907 140.618 109.07 136.7 109.07ZM132.651 105.414H136.7C138.61 105.414 140.091 103.899 140.125 102.057C140.091 100.146 138.61 98.6311 136.7 98.6311H132.651V105.414Z" fill="#FFC727"/>
<path d="M148.43 96.7893C148.43 95.7679 149.221 94.9771 150.241 94.9771C151.229 94.9771 152.085 95.7679 152.085 96.7893V116.215C152.085 117.234 151.229 118.025 150.241 118.025C149.221 118.025 148.43 117.234 148.43 116.215V96.7893Z" fill="#FFC727"/>
</svg>
