<svg width="228" height="227" viewBox="0 0 228 227" fill="none" xmlns="http://www.w3.org/2000/svg">
<path d="M5.9873 226.276H220.849" stroke="#243447" stroke-miterlimit="10"/>
<path d="M34.7305 151.123L42.5825 226.177" stroke="#243447" stroke-width="2" stroke-miterlimit="10"/>
<path d="M41.1872 210.779L37.6963 207.09" stroke="#243447" stroke-width="2" stroke-miterlimit="10"/>
<path d="M38.7598 208.199C38.7535 207.634 38.6263 207.077 38.3866 206.565C38.1469 206.054 37.8004 205.599 37.3703 205.233C36.4754 204.432 31.7582 202.449 31.3083 204.11C30.8237 205.92 35.6496 209.47 38.7598 208.199Z" fill="#FFC727" stroke="#243447" stroke-miterlimit="10"/>
<path d="M38.7592 208.199L34.2695 205.4" stroke="#243447" stroke-width="0.5" stroke-miterlimit="10"/>
<path d="M42.0622 219.171L38.5713 215.482" stroke="#243447" stroke-width="2" stroke-miterlimit="10"/>
<path d="M39.6352 216.589C39.629 216.024 39.5017 215.467 39.2621 214.955C39.0224 214.443 38.6759 213.989 38.2458 213.622C37.3508 212.821 32.6337 210.838 32.1887 212.5C31.6992 214.31 36.5498 217.855 39.6352 216.589Z" fill="#FFC727" stroke="#243447" stroke-miterlimit="10"/>
<path d="M39.6342 216.59L35.1445 213.792" stroke="#243447" stroke-width="0.5" stroke-miterlimit="10"/>
<path d="M39.0514 190.305L35.5605 186.621" stroke="#243447" stroke-width="2" stroke-miterlimit="10"/>
<path d="M36.624 187.721C36.6178 187.156 36.4905 186.599 36.2509 186.087C36.0112 185.576 35.6647 185.121 35.2346 184.755C34.3347 183.963 29.6274 181.976 29.1725 183.627C28.688 185.447 33.5139 188.992 36.624 187.721Z" fill="#FFC727" stroke="#243447" stroke-miterlimit="10"/>
<path d="M36.6235 187.722L32.1338 184.928" stroke="#243447" stroke-width="0.5" stroke-miterlimit="10"/>
<path d="M39.9255 198.694L36.4346 195.011" stroke="#243447" stroke-width="2" stroke-miterlimit="10"/>
<path d="M37.499 196.113C37.4928 195.548 37.3655 194.991 37.1259 194.479C36.8862 193.967 36.5397 193.513 36.1096 193.146C35.2146 192.345 30.4975 190.362 30.0475 192.024C29.563 193.834 34.3889 197.384 37.499 196.113Z" fill="#FFC727" stroke="#243447" stroke-miterlimit="10"/>
<path d="M37.4985 196.114L33.0088 193.315" stroke="#243447" stroke-width="0.5" stroke-miterlimit="10"/>
<path d="M37.6266 176.678L34.1357 172.989" stroke="#243447" stroke-width="2" stroke-miterlimit="10"/>
<path d="M35.1998 174.096C35.1935 173.531 35.0663 172.974 34.8266 172.462C34.5869 171.951 34.2404 171.496 33.8103 171.13C32.9154 170.329 28.1982 168.346 27.7532 170.007C27.2637 171.817 32.0995 175.367 35.1998 174.096Z" fill="#FFC727" stroke="#243447" stroke-miterlimit="10"/>
<path d="M35.1987 174.095L30.709 171.296" stroke="#243447" stroke-width="0.5" stroke-miterlimit="10"/>
<path d="M36.1969 162.989L32.7061 159.301" stroke="#243447" stroke-width="2" stroke-miterlimit="10"/>
<path d="M33.7701 160.39C33.7639 159.825 33.6367 159.268 33.397 158.756C33.1573 158.244 32.8108 157.79 32.3807 157.423C31.4857 156.622 26.7686 154.639 26.3236 156.301C25.8341 158.13 30.66 161.675 33.7701 160.39Z" fill="#FFC727" stroke="#243447" stroke-miterlimit="10"/>
<path d="M33.7709 160.404L29.2812 157.61" stroke="#243447" stroke-width="0.5" stroke-miterlimit="10"/>
<path d="M40.5977 205.816L43.2529 201.489" stroke="#243447" stroke-width="2" stroke-miterlimit="10"/>
<path d="M42.4428 202.789C42.3337 202.236 42.3443 201.665 42.4739 201.116C42.6036 200.566 42.8492 200.051 43.1944 199.605C43.9064 198.616 48.1093 195.723 48.8906 197.256C49.7361 198.923 45.7507 203.407 42.4428 202.789Z" fill="#FFC727" stroke="#243447" stroke-miterlimit="10"/>
<path d="M42.4434 202.788L46.488 198.921" stroke="#243447" stroke-width="0.5" stroke-miterlimit="10"/>
<path d="M38.2939 183.738L40.9492 179.411" stroke="#243447" stroke-width="2" stroke-miterlimit="10"/>
<path d="M40.1373 180.706C40.029 180.153 40.04 179.584 40.1696 179.035C40.2992 178.487 40.5444 177.973 40.8889 177.527C41.6009 176.538 45.8038 173.64 46.5851 175.173C47.4257 176.84 43.47 181.309 40.1373 180.706Z" fill="#FFC727" stroke="#243447" stroke-miterlimit="10"/>
<path d="M40.1387 180.707L44.1833 176.846" stroke="#243447" stroke-width="0.5" stroke-miterlimit="10"/>
<path d="M37.2852 174.03L39.9355 169.704" stroke="#243447" stroke-width="2" stroke-miterlimit="10"/>
<path d="M39.1307 171.005C39.0187 170.45 39.0274 169.876 39.1563 169.325C39.2851 168.773 39.531 168.255 39.8774 167.806C40.5894 166.842 44.7923 163.925 45.5735 165.457C46.4388 167.139 42.4337 171.608 39.1307 171.005Z" fill="#FFC727" stroke="#243447" stroke-miterlimit="10"/>
<path d="M39.1299 171.004L43.1696 167.143" stroke="#243447" stroke-width="0.5" stroke-miterlimit="10"/>
<path d="M35.7988 159.81L38.4541 155.483" stroke="#243447" stroke-width="2" stroke-miterlimit="10"/>
<path d="M37.6411 156.779C37.5319 156.225 37.5426 155.655 37.6722 155.105C37.8018 154.556 38.0475 154.041 38.3926 153.595C39.1047 152.63 43.3075 149.713 44.0888 151.246C44.9541 152.912 40.949 157.382 37.6411 156.779Z" fill="#FFC727" stroke="#243447" stroke-miterlimit="10"/>
<path d="M37.6416 156.78L41.6863 152.918" stroke="#243447" stroke-width="0.5" stroke-miterlimit="10"/>
<path d="M34.6647 150.712C34.5557 150.159 34.5658 149.59 34.6946 149.041C34.8234 148.493 35.0677 147.978 35.4113 147.532C36.1234 146.543 40.3263 143.646 41.1075 145.179C41.958 146.845 37.9677 151.315 34.6647 150.712Z" fill="#FFC727" stroke="#243447" stroke-miterlimit="10"/>
<path d="M34.665 150.712L38.7048 146.851" stroke="#243447" stroke-width="0.5" stroke-miterlimit="10"/>
<path d="M34.8967 150.881C34.3353 150.932 33.7695 150.862 33.2374 150.676C32.7053 150.49 32.219 150.192 31.8112 149.803C30.9212 148.997 28.4638 144.508 30.0707 143.894C31.8162 143.222 35.8411 147.662 34.8967 150.881Z" fill="#FFC727" stroke="#243447" stroke-miterlimit="10"/>
<path d="M34.8982 150.881L31.4814 146.456" stroke="#243447" stroke-width="0.5" stroke-miterlimit="10"/>
<path d="M55.0372 161.285L48.54 226.177" stroke="#243447" stroke-width="2" stroke-miterlimit="10"/>
<path d="M49.0752 220.99L46.4199 216.664" stroke="#243447" stroke-width="2" stroke-miterlimit="10"/>
<path d="M47.2249 217.964C47.3347 217.411 47.3249 216.84 47.1961 216.291C47.0674 215.742 46.8226 215.227 46.4783 214.78C45.7663 213.816 41.5337 210.903 40.7821 212.436C39.9317 214.102 43.922 218.567 47.2249 217.964Z" fill="#FFC727" stroke="#243447" stroke-miterlimit="10"/>
<path d="M47.2234 217.964L43.4111 214.3" stroke="#243447" stroke-width="0.5" stroke-miterlimit="10"/>
<path d="M51.2002 200.514L48.54 196.188" stroke="#243447" stroke-width="2" stroke-miterlimit="10"/>
<path d="M49.3507 197.472C49.4598 196.919 49.4492 196.348 49.3196 195.799C49.1899 195.25 48.9443 194.734 48.5991 194.288C47.8921 193.324 43.6842 190.411 42.903 191.944C42.0574 193.625 46.0477 198.09 49.3507 197.472Z" fill="#FFC727" stroke="#243447" stroke-miterlimit="10"/>
<path d="M49.3504 197.488L45.5332 193.829" stroke="#243447" stroke-width="0.5" stroke-miterlimit="10"/>
<path d="M50.3252 208.906L47.6699 204.58" stroke="#243447" stroke-width="2" stroke-miterlimit="10"/>
<path d="M48.4806 205.88C48.5897 205.326 48.5791 204.756 48.4495 204.207C48.3198 203.657 48.0742 203.142 47.729 202.696C47.017 201.732 42.8141 198.819 42.0328 200.352C41.1873 202.018 45.1776 206.483 48.4806 205.88Z" fill="#FFC727" stroke="#243447" stroke-miterlimit="10"/>
<path d="M48.4803 205.88L44.6631 202.221" stroke="#243447" stroke-width="0.5" stroke-miterlimit="10"/>
<path d="M52.6133 186.887L49.9531 182.561" stroke="#243447" stroke-width="2" stroke-miterlimit="10"/>
<path d="M50.7648 183.861C50.8746 183.308 50.8647 182.737 50.736 182.188C50.6072 181.639 50.3624 181.124 50.0181 180.677C49.3061 179.688 45.0983 176.795 44.317 178.328C43.4715 179.994 47.4618 184.459 50.7648 183.861Z" fill="#FFC727" stroke="#243447" stroke-miterlimit="10"/>
<path d="M50.7645 183.861L46.9473 180.197" stroke="#243447" stroke-width="0.5" stroke-miterlimit="10"/>
<path d="M54.0332 173.196L51.3779 168.87" stroke="#243447" stroke-width="2" stroke-miterlimit="10"/>
<path d="M52.183 170.17C52.2927 169.617 52.2829 169.046 52.1542 168.497C52.0254 167.948 51.7806 167.433 51.4363 166.986C50.7243 166.022 46.4917 163.109 45.7401 164.642C44.8897 166.323 48.88 170.773 52.183 170.17Z" fill="#FFC727" stroke="#243447" stroke-miterlimit="10"/>
<path d="M52.1843 170.17L48.3721 166.511" stroke="#243447" stroke-width="0.5" stroke-miterlimit="10"/>
<path d="M49.5195 216.012L53.0104 212.324" stroke="#243447" stroke-width="2" stroke-miterlimit="10"/>
<path d="M51.9531 213.43C51.9588 212.865 52.0852 212.308 52.324 211.797C52.5628 211.285 52.9084 210.83 53.3376 210.463C54.2326 209.662 58.9497 207.674 59.3947 209.336C59.8842 211.146 55.0583 214.696 51.9531 213.43Z" fill="#FFC727" stroke="#243447" stroke-miterlimit="10"/>
<path d="M51.9531 213.43L56.6999 210.483" stroke="#243447" stroke-width="0.5" stroke-miterlimit="10"/>
<path d="M51.8115 193.932L55.2975 190.243" stroke="#243447" stroke-width="2" stroke-miterlimit="10"/>
<path d="M54.2412 191.348C54.2475 190.783 54.3747 190.225 54.6144 189.714C54.854 189.202 55.2006 188.748 55.6306 188.381C56.5256 187.58 61.2378 185.597 61.6878 187.254C62.1723 189.068 57.3514 192.618 54.2412 191.348Z" fill="#FFC727" stroke="#243447" stroke-miterlimit="10"/>
<path d="M54.2412 191.347L58.993 188.4" stroke="#243447" stroke-width="0.5" stroke-miterlimit="10"/>
<path d="M52.8164 184.227L56.3073 180.538" stroke="#243447" stroke-width="2" stroke-miterlimit="10"/>
<path d="M55.25 181.651C55.2556 181.086 55.3821 180.53 55.6209 180.018C55.8597 179.506 56.2053 179.051 56.6345 178.684C57.5295 177.883 62.2466 175.896 62.6916 177.557C63.1811 179.362 58.3552 182.912 55.25 181.651Z" fill="#FFC727" stroke="#243447" stroke-miterlimit="10"/>
<path d="M55.25 181.647L59.9968 178.7" stroke="#243447" stroke-width="0.5" stroke-miterlimit="10"/>
<path d="M54.2959 170.002L57.7818 166.313" stroke="#243447" stroke-width="2" stroke-miterlimit="10"/>
<path d="M56.7227 167.42C56.7289 166.855 56.8561 166.297 57.0958 165.786C57.3355 165.274 57.682 164.82 58.1121 164.453C59.0071 163.652 63.7192 161.664 64.1692 163.326C64.6538 165.135 59.8328 168.686 56.7227 167.42Z" fill="#FFC727" stroke="#243447" stroke-miterlimit="10"/>
<path d="M56.7227 167.42L61.4744 164.473" stroke="#243447" stroke-width="0.5" stroke-miterlimit="10"/>
<path d="M55.0566 160.885C55.0629 160.32 55.1901 159.763 55.4298 159.251C55.6695 158.739 56.016 158.285 56.4461 157.918C57.341 157.117 62.0532 155.134 62.5032 156.796C62.9878 158.591 58.1668 162.141 55.0566 160.885Z" fill="#FFC727" stroke="#243447" stroke-miterlimit="10"/>
<path d="M55.0566 160.868L59.8084 157.921" stroke="#243447" stroke-width="0.5" stroke-miterlimit="10"/>
<path d="M55.2481 161.081C54.6881 161.015 54.1486 160.83 53.6659 160.538C53.1832 160.247 52.7685 159.855 52.4495 159.39C51.7474 158.401 50.2689 153.521 51.955 153.249C53.8142 152.972 56.8205 158.124 55.2481 161.081Z" fill="#FFC727" stroke="#243447" stroke-miterlimit="10"/>
<path d="M55.2491 161.083L52.8164 156.049" stroke="#243447" stroke-width="0.5" stroke-miterlimit="10"/>
<path d="M46.2658 131.242L45.7812 226.292" stroke="#243447" stroke-width="2" stroke-miterlimit="10"/>
<path d="M46.3404 210.513L43.25 206.483" stroke="#243447" stroke-width="2" stroke-miterlimit="10"/>
<path d="M44.1887 207.69C44.2399 207.129 44.1706 206.564 43.9856 206.032C43.8006 205.499 43.504 205.013 43.1157 204.605C42.3048 203.715 37.825 201.252 37.1822 202.854C36.5493 204.605 40.9648 208.63 44.1887 207.69Z" fill="#FFC727" stroke="#243447" stroke-miterlimit="10"/>
<path d="M44.1869 207.69L40.0137 204.441" stroke="#243447" stroke-width="0.5" stroke-miterlimit="10"/>
<path d="M46.3404 192.978L43.25 188.948" stroke="#243447" stroke-width="2" stroke-miterlimit="10"/>
<path d="M44.1887 190.155C44.2399 189.594 44.1706 189.028 43.9856 188.496C43.8006 187.964 43.504 187.478 43.1157 187.069C42.3048 186.179 37.825 183.717 37.1822 185.324C36.5493 187.089 40.9648 191.094 44.1887 190.155Z" fill="#FFC727" stroke="#243447" stroke-miterlimit="10"/>
<path d="M44.1869 190.156L40.0137 186.908" stroke="#243447" stroke-width="0.5" stroke-miterlimit="10"/>
<path d="M46.3404 172.395L43.25 168.365" stroke="#243447" stroke-width="2" stroke-miterlimit="10"/>
<path d="M44.1887 169.572C44.2399 169.011 44.1706 168.445 43.9856 167.913C43.8006 167.381 43.504 166.895 43.1157 166.486C42.3048 165.596 37.825 163.134 37.1822 164.741C36.5493 166.486 40.9648 170.511 44.1887 169.572Z" fill="#FFC727" stroke="#243447" stroke-miterlimit="10"/>
<path d="M44.1869 169.571L40.0137 166.322" stroke="#243447" stroke-width="0.5" stroke-miterlimit="10"/>
<path d="M46.3404 158.688L43.25 154.663" stroke="#243447" stroke-width="2" stroke-miterlimit="10"/>
<path d="M44.1887 155.87C44.2406 155.308 44.1717 154.742 43.9867 154.209C43.8016 153.676 43.5046 153.188 43.1157 152.78C42.3048 151.895 37.825 149.432 37.1822 151.034C36.5493 152.78 40.9648 156.809 44.1887 155.87Z" fill="#FFC727" stroke="#243447" stroke-miterlimit="10"/>
<path d="M44.1869 155.871L40.0137 152.623" stroke="#243447" stroke-width="0.5" stroke-miterlimit="10"/>
<path d="M46.3404 144.927L43.25 140.897" stroke="#243447" stroke-width="2" stroke-miterlimit="10"/>
<path d="M44.1887 142.095C44.2406 141.533 44.1717 140.967 43.9867 140.434C43.8016 139.901 43.5046 139.414 43.1157 139.005C42.3048 138.115 37.825 135.653 37.1822 137.259C36.5493 139.02 40.9648 143.05 44.1887 142.095Z" fill="#FFC727" stroke="#243447" stroke-miterlimit="10"/>
<path d="M44.1869 142.107L40.0137 138.859" stroke="#243447" stroke-width="0.5" stroke-miterlimit="10"/>
<path d="M46.2695 215.862L49.355 211.837" stroke="#243447" stroke-width="2" stroke-miterlimit="10"/>
<path d="M48.4177 213.044C48.3665 212.482 48.4361 211.915 48.622 211.382C48.808 210.849 49.1058 210.362 49.4956 209.953C50.3016 209.068 54.7863 206.606 55.4044 208.208C56.0719 209.953 51.6416 213.983 48.4177 213.044Z" fill="#FFC727" stroke="#243447" stroke-miterlimit="10"/>
<path d="M48.417 213.043L52.8375 209.622" stroke="#243447" stroke-width="0.5" stroke-miterlimit="10"/>
<path d="M46.2695 187.979L49.355 183.949" stroke="#243447" stroke-width="2" stroke-miterlimit="10"/>
<path d="M48.4177 185.161C48.3665 184.599 48.4361 184.032 48.622 183.499C48.808 182.966 49.1058 182.479 49.4956 182.07C50.3016 181.18 54.7863 178.718 55.4044 180.325C56.0719 182.07 51.6416 186.1 48.4177 185.161Z" fill="#FFC727" stroke="#243447" stroke-miterlimit="10"/>
<path d="M48.417 185.162L52.8375 181.736" stroke="#243447" stroke-width="0.5" stroke-miterlimit="10"/>
<path d="M46.2695 174.215L49.355 170.19" stroke="#243447" stroke-width="2" stroke-miterlimit="10"/>
<path d="M48.4177 171.397C48.3665 170.835 48.4361 170.268 48.622 169.735C48.808 169.202 49.1058 168.715 49.4956 168.306C50.3016 167.421 54.7863 164.959 55.4044 166.561C56.0719 168.302 51.6416 172.336 48.4177 171.397Z" fill="#FFC727" stroke="#243447" stroke-miterlimit="10"/>
<path d="M48.417 171.396L52.8375 167.975" stroke="#243447" stroke-width="0.5" stroke-miterlimit="10"/>
<path d="M46.2695 156.022L49.355 151.998" stroke="#243447" stroke-width="2" stroke-miterlimit="10"/>
<path d="M48.4177 153.204C48.3665 152.642 48.4361 152.076 48.622 151.543C48.808 151.01 49.1058 150.522 49.4956 150.114C50.3016 149.229 54.7863 146.767 55.4044 148.369C56.0719 150.114 51.6416 154.144 48.4177 153.204Z" fill="#FFC727" stroke="#243447" stroke-miterlimit="10"/>
<path d="M48.417 153.206L52.8375 149.784" stroke="#243447" stroke-width="0.5" stroke-miterlimit="10"/>
<path d="M46.2695 141.723L49.355 137.693" stroke="#243447" stroke-width="2" stroke-miterlimit="10"/>
<path d="M48.4177 138.905C48.3665 138.343 48.4361 137.776 48.622 137.243C48.808 136.71 49.1058 136.223 49.4956 135.815C50.3016 134.924 54.7863 132.462 55.4044 134.069C56.0719 135.815 51.6416 139.844 48.4177 138.905Z" fill="#FFC727" stroke="#243447" stroke-miterlimit="10"/>
<path d="M48.417 138.907L52.8375 135.485" stroke="#243447" stroke-width="0.5" stroke-miterlimit="10"/>
<path d="M46.0818 132.561C46.0305 131.999 46.1002 131.432 46.2861 130.899C46.472 130.366 46.7699 129.879 47.1597 129.471C47.9657 128.581 52.4504 126.123 53.0932 127.725C53.736 129.471 49.3056 133.501 46.0818 132.561Z" fill="#FFC727" stroke="#243447" stroke-miterlimit="10"/>
<path d="M46.0811 132.562L50.5015 129.14" stroke="#243447" stroke-width="0.5" stroke-miterlimit="10"/>
<path d="M46.2999 132.749C45.7349 132.743 45.1777 132.616 44.666 132.376C44.1542 132.136 43.6997 131.79 43.3332 131.36C42.5371 130.46 40.5593 125.743 42.2206 125.298C44.0304 124.813 47.5707 129.644 46.2999 132.749Z" fill="#FFC727" stroke="#243447" stroke-miterlimit="10"/>
<path d="M46.2985 132.749L43.3564 127.997" stroke="#243447" stroke-width="0.5" stroke-miterlimit="10"/>
<path d="M215.223 18.3838H135.531V129.044H215.223V18.3838Z" stroke="#243447" stroke-miterlimit="10"/>
<path d="M212.089 22.7354H138.667V124.688H212.089V22.7354Z" stroke="#243447" stroke-miterlimit="10"/>
<path d="M191.969 50.6758H158.791V96.7445H191.969V50.6758Z" stroke="#243447" stroke-miterlimit="10"/>
<path d="M124.221 46.8605C124.221 46.8605 119.197 45.8715 114.792 52.8484C110.386 59.8252 110.653 69.1655 110.915 78.0658C111.177 86.966 110.688 98.4869 110.421 102.541C110.154 106.596 105.738 110.497 105.738 110.497L168.792 111.981C166.465 104.878 163.774 97.9 160.727 91.075C155.891 80.2908 151.703 62.9848 151.703 62.9848C151.703 62.9848 157.874 64.394 157.345 60.8734C156.816 57.3529 153.29 53.3824 143.599 48.3636C133.908 43.3449 127.48 43.513 124.221 46.8605Z" fill="#243447" stroke="#243447" stroke-miterlimit="10"/>
<path d="M100.726 226.156L103.208 208.059L177.644 202.511L183.923 226.3L100.726 226.156Z" fill="#243447" stroke="#243447" stroke-miterlimit="10"/>
<path d="M173.538 181.922C171.696 178.188 170.061 174.355 168.643 170.441C169.953 167.281 174.354 159.231 174.354 159.231L176.965 154.529C176.965 154.529 176.47 153.08 176.594 149.233C176.679 147.254 176.628 145.272 176.441 143.3C176.441 143.3 179.185 120.965 179.185 117.83C179.185 114.695 179.185 111.041 178.404 109.993C177.622 108.945 172.262 105.296 161.295 101.765C150.328 98.2348 146.664 98.1112 145.883 97.8491C145.102 97.587 131.257 98.7639 131.257 98.7639C131.257 98.7639 109.575 102.418 108.512 103.595C107.449 104.772 111.404 162.371 111.404 162.371C111.404 162.371 109.778 166.579 109.392 169.734C107.543 174.99 101.842 191.712 101.184 199.688C100.403 209.221 100.531 211.965 100.531 211.965C100.531 211.965 117.768 219.797 126.243 221.498C134.718 223.199 142.18 224.633 142.18 224.633L145.052 216.925L148.706 224.5C148.706 224.5 163.333 219.016 168.425 215.357C173.518 211.698 180.184 203.213 180.184 203.213C180.184 203.213 176.668 188.192 173.538 181.922Z" fill="#FFC727" stroke="#243447" stroke-miterlimit="10"/>
<path d="M170.546 111.44C170.546 111.44 166.067 117.374 165.107 120.395" stroke="#243447" stroke-miterlimit="10"/>
<path d="M150.06 172.636C150.06 172.636 156.527 174.095 157.778 175.034C159.029 175.973 163.934 177.432 166.021 177.432C167.803 177.378 169.58 177.212 171.341 176.938L168.003 173.18C168.003 173.18 155.068 171.271 153.086 171.271C152.513 171.266 151.945 171.385 151.423 171.621C150.9 171.856 150.435 172.203 150.06 172.636Z" fill="#243447" stroke="#243447" stroke-miterlimit="10"/>
<path d="M144.245 207.604C144.512 210.298 144.685 212.054 144.685 212.237" stroke="#243447" stroke-miterlimit="10"/>
<path d="M140.938 175.484C140.938 175.484 142.916 194.521 144.004 205.196" stroke="#243447" stroke-miterlimit="10"/>
<path d="M144.256 144.224C144.315 144.718 144.379 145.168 144.444 145.519C144.968 148.258 144.315 151.655 143.01 152.57C141.704 153.485 140.538 157.515 141.032 158.054" stroke="#243447" stroke-miterlimit="10"/>
<path d="M143.663 134.548C143.663 134.548 143.787 138.439 144.034 141.762" stroke="#243447" stroke-miterlimit="10"/>
<path d="M134.609 93.8236C134.609 93.8236 132.854 93.7148 132.414 94.2636C131.974 94.8125 128.582 98.9758 128.458 99.851C128.335 100.726 128.127 114.19 128.127 115.298C128.127 116.406 129.66 119.901 130.426 117.928C131.193 115.956 131.741 113.439 132.513 112.123C133.284 110.808 135.247 113.548 135.247 113.548L148.177 117.053C148.177 117.053 152.341 114.64 153.122 113.098C153.903 111.555 153.779 117.701 154.768 117.919C155.757 118.136 156.633 116.495 155.644 112.771C154.655 109.048 154.877 101.923 153.453 97.6507C152.029 93.3786 151.04 93.0473 148.741 92.9385C146.442 92.8297 134.609 93.8236 134.609 93.8236Z" fill="#FFC727" stroke="#243447" stroke-miterlimit="10"/>
<path d="M132.854 85.8584C132.854 85.8584 133.734 96.2421 133.734 98.0172C133.734 99.7923 133.294 107.001 135.054 111.758C136.814 116.515 141.838 132.11 142.896 132.728C143.954 133.346 145.096 131.848 147.035 126.824C148.973 121.801 153.379 114.408 152.587 106.992C151.796 99.5747 148.355 84.8794 148.355 84.8794L132.854 85.8584Z" fill="white" stroke="#243447" stroke-miterlimit="10"/>
<path d="M143.634 94.9657L133.73 98.9857L133.156 92.6665L143.634 94.9657Z" fill="#243447" stroke="#243447" stroke-miterlimit="10"/>
<path d="M136.508 115.892C138.733 122.345 142.056 132.234 142.896 132.704C143.954 133.322 145.097 131.824 147.035 126.8C148.058 124.154 149.759 120.866 151.03 117.232C148.7 118.282 146.137 118.711 143.592 118.476C141.047 118.241 138.606 117.351 136.508 115.892Z" fill="#243447" stroke="#243447" stroke-miterlimit="10"/>
<path d="M122.021 75.8408C122.021 75.8408 127.5 89.3841 129.933 91.3372C132.366 93.2903 140.658 96.4252 143.55 96.1928C146.443 95.9604 149.419 94.0765 150.206 92.2767C150.992 90.4768 154.275 85.8487 153.726 82.1056C153.177 78.3626 149.578 64.5721 149.578 64.5721C149.578 64.5721 142.21 63.4794 137.122 61.7488C132.034 60.0182 129.142 55.3208 129.142 55.3208C129.142 55.3208 128.202 64.3991 126.012 69.3288C123.821 74.2586 122.021 75.8408 122.021 75.8408Z" fill="white" stroke="#243447" stroke-miterlimit="10"/>
<path d="M141.019 72.0928C141.019 72.0928 141.77 76.1869 143.169 77.0374C144.569 77.8878 145.113 78.3328 144.574 79.302C144.035 80.2711 142.418 80.7854 141.988 80.7854" stroke="#243447" stroke-miterlimit="10"/>
<path d="M136.597 82.8662C136.597 82.8662 139.83 85.9912 143.064 85.4522" stroke="#243447" stroke-miterlimit="10"/>
<path d="M128.716 72.6082C128.716 72.6082 132.281 70.5315 134.995 71.5798" stroke="#243447" stroke-miterlimit="10"/>
<path d="M141.294 71.4343C141.294 71.4343 140.443 67.7901 144.715 66.7666" stroke="#243447" stroke-miterlimit="10"/>
<path d="M136.69 75.842C137.006 76.7122 136.833 77.5775 136.304 77.7704C135.775 77.9632 135.083 77.4144 134.766 76.5392C134.45 75.664 134.623 74.8086 135.157 74.6157C135.691 74.4229 136.373 74.9618 136.69 75.842Z" fill="#243447"/>
<path d="M146.436 72.4738C146.753 73.3441 146.58 74.2094 146.046 74.4022C145.512 74.595 144.829 74.0462 144.513 73.176C144.196 72.3057 144.369 71.4404 144.898 71.2476C145.428 71.0547 146.12 71.6036 146.436 72.4738Z" fill="#243447"/>
<path d="M122.02 75.8398L120.042 81.4223C120.042 81.4223 122.153 84.5077 123.389 85.0368C124.626 85.5659 126.03 84.4187 126.03 84.4187L122.02 75.8398Z" fill="white" stroke="#243447" stroke-miterlimit="10"/>
<path d="M121.46 158.446C121.46 158.446 147.711 162.758 153.6 162.758C159.489 162.758 164.701 162.496 165.354 162.234C166.006 161.972 174.254 161.191 174.887 162.367C175.52 163.544 175.282 165.764 175.282 165.764C175.587 167.046 175.718 168.363 175.673 169.68C175.604 170.757 175.244 171.795 174.63 172.682C174.781 173.002 174.837 173.358 174.79 173.709C174.744 174.06 174.597 174.39 174.368 174.66C173.581 175.703 173.453 176.637 172.014 176.88C170.575 177.122 167.317 176.356 166.792 176.227C166.268 176.098 160.785 175.441 159.346 174.66C158.348 174.084 157.298 173.603 156.211 173.221C155.135 172.977 154.045 172.802 152.948 172.697C152.948 172.697 127.335 174.239 123.572 173.987C119.809 173.735 117.436 173.73 117.436 173.73L121.46 158.446Z" fill="white" stroke="#243447" stroke-miterlimit="10"/>
<path d="M158.497 153.115C158.497 153.115 160.618 162.386 162.453 165.121C164.287 167.855 168.277 171.915 171.897 170.505C175.516 169.096 176.485 169.447 177.104 162.738C177.722 156.028 177.544 151.088 176.574 149.234C175.825 147.907 174.937 146.664 173.924 145.525L158.497 153.115Z" fill="#FFC727" stroke="#243447" stroke-miterlimit="10"/>
<path d="M160.969 104.835C160.969 104.835 156.024 100.513 153.552 98.5702C150.914 96.4303 148.409 94.1317 146.051 91.6873C144.286 89.8331 143.222 88.864 143.049 90.5402C142.876 92.2164 145.433 96.1869 145.962 96.894C146.491 97.6011 149.492 100.953 149.492 100.953C149.492 100.953 145.962 103.426 145.077 104.133C144.192 104.84 144.197 105.616 143.93 107.663C143.663 109.71 144.637 110.576 146.135 111.016C146.602 111.134 147.09 111.148 147.563 111.056C148.037 110.965 148.484 110.77 148.874 110.487C148.874 110.487 152.405 112.87 154.61 113.221C156.815 113.572 158.847 115.253 158.847 115.253C158.847 115.253 158.14 147.888 158.051 148.703C157.962 149.519 162.729 149.321 167.317 147.818C171.906 146.315 173.147 144.555 173.147 144.555C173.147 144.555 167.214 116.489 165.73 112.514C164.247 108.538 162.635 105.809 160.969 104.835Z" fill="white" stroke="#243447" stroke-miterlimit="10"/>
<path d="M148.879 110.488L146.585 108.634C146.585 108.634 146.496 109.43 146.056 109.692" fill="white"/>
<path d="M148.879 110.488L146.585 108.634C146.585 108.634 146.496 109.43 146.056 109.692" stroke="#243447" stroke-miterlimit="10"/>
<path d="M156.47 146.587C156.47 146.587 156.732 153.643 157.618 154.177C158.503 154.711 165.207 153.114 168.738 151.878C172.268 150.642 174.83 149.143 174.919 147.996C175.008 146.849 174.123 144.041 173.504 142.523C172.886 141.005 172.021 141.375 171.65 141.731C171.279 142.087 168.12 143.215 163.353 144.466C158.587 145.717 156.381 145.262 156.47 146.587Z" fill="#FFC727" stroke="#243447" stroke-miterlimit="10"/>
<path d="M113.11 131.773C112.947 129.978 112.814 128.342 112.71 126.972L113.11 131.773Z" fill="#FFC727"/>
<path d="M113.11 131.773C112.947 129.978 112.814 128.342 112.71 126.972" stroke="#243447" stroke-miterlimit="10"/>
<path d="M115.716 102.29C115.716 102.29 102.262 103.076 101.738 105.296C101.213 107.516 99.6509 125.144 99.1268 142.514C98.6027 159.885 99.5174 172.553 100.694 172.943C101.871 173.334 115.32 173.334 115.32 173.334L117.021 158.189L115.582 155.968C115.582 155.968 114.218 138.771 113.318 129.381" fill="#FFC727"/>
<path d="M115.716 102.29C115.716 102.29 102.262 103.076 101.738 105.296C101.213 107.516 99.6509 125.144 99.1268 142.514C98.6027 159.885 99.5174 172.553 100.694 172.943C101.871 173.334 115.32 173.334 115.32 173.334L117.021 158.189L115.582 155.968C115.582 155.968 114.218 138.771 113.318 129.381" stroke="#243447" stroke-miterlimit="10"/>
<path d="M114.276 155.314C114.276 155.314 111.665 172.423 111.274 173.204C110.884 173.985 110.622 175.424 112.184 175.295C113.747 175.167 118.063 176.339 118.587 175.162C119.111 173.985 123.29 161.189 122.894 159.339C122.499 157.49 120.674 156.867 120.021 156.6C119.369 156.333 115.062 154.657 114.276 155.314Z" fill="#FFC727" stroke="#243447" stroke-miterlimit="10"/>
<path d="M108.547 147.8C107.958 147.049 107.479 146.455 107.227 146.173" stroke="#243447" stroke-miterlimit="10"/>
<path d="M105.007 153.224L114.278 155.316C114.278 155.316 111.86 152.092 109.828 149.437" stroke="#243447" stroke-miterlimit="10"/>
<path d="M117.441 86.6084C117.441 86.6084 113.614 108.889 113.485 119.134C113.357 129.379 117.441 135.278 123.078 137.152C128.715 139.026 133.61 135.748 132.438 134.111C131.266 132.474 126.589 135.748 124.952 129.898C123.315 124.049 129.165 119.134 129.402 107.648C129.639 96.1613 129.402 93.1402 129.402 93.1402" fill="#243447"/>
<path d="M117.441 86.6084C117.441 86.6084 113.614 108.889 113.485 119.134C113.357 129.379 117.441 135.278 123.078 137.152C128.715 139.026 133.61 135.748 132.438 134.111C131.266 132.474 126.589 135.748 124.952 129.898C123.315 124.049 129.165 119.134 129.402 107.648C129.639 96.1613 129.402 93.1402 129.402 93.1402" stroke="#243447" stroke-miterlimit="10"/>
<path d="M107.994 33.3163C107.997 31.0066 107.422 28.7329 106.321 26.7025C105.22 24.672 103.628 22.9492 101.691 21.691C99.7546 20.4328 97.5336 19.6792 95.231 19.4988C92.9283 19.3184 90.6171 19.7169 88.5079 20.6581C87.6026 18.8837 86.3251 17.3256 84.7626 16.0901C83.2001 14.8545 81.3893 13.9707 79.454 13.499C77.5187 13.0272 75.5044 12.9787 73.5486 13.3566C71.5928 13.7345 69.7416 14.53 68.1213 15.6888C67.445 13.8993 66.4051 12.2693 65.0672 10.9018C63.7294 9.53422 62.1226 8.45879 60.3483 7.74332C58.5741 7.02784 56.6707 6.68785 54.7585 6.7448C52.8462 6.80174 50.9665 7.25438 49.2379 8.07417C47.1062 5.9179 44.3256 4.52106 41.3231 4.09821C38.3206 3.67535 35.2623 4.24985 32.618 5.73347C29.9736 7.21709 27.8894 9.52779 26.6855 12.3107C25.4816 15.0935 25.2246 18.1947 25.9539 21.1378C22.829 22.2851 20.056 24.2248 17.9066 26.7667C15.7571 29.3085 14.3052 32.3653 13.6929 35.6374C13.0807 38.9094 13.3292 42.2844 14.4142 45.4314C15.4992 48.5784 17.3833 51.3895 19.8819 53.5891C18.9425 56.4436 18.9573 59.5262 19.9241 62.3715C20.8909 65.2169 22.7572 67.6704 25.2413 69.3616C27.7253 71.0528 30.6921 71.8898 33.6938 71.7464C36.6955 71.6029 39.569 70.4867 41.8804 68.5663C43.2626 71.9391 45.5757 74.8493 48.5497 76.957C51.5237 79.0646 55.0359 80.2829 58.6762 80.4695C62.3166 80.6562 65.9349 79.8035 69.1088 78.011C72.2828 76.2185 74.8814 73.5602 76.6013 70.3463C79.6945 71.6148 83.1168 71.8407 86.3499 70.9897C89.583 70.1388 92.4507 68.2574 94.5187 65.6305C96.5867 63.0036 97.7422 59.7744 97.8104 56.4319C97.8785 53.0894 96.8555 49.8157 94.8963 47.1067C98.4278 46.916 101.753 45.381 104.188 42.8166C106.624 40.2523 107.986 36.853 107.994 33.3163Z" fill="#243447" stroke="#243447" stroke-miterlimit="10"/>
<path d="M98.5058 76.7325C101.507 75.2674 103.042 72.2395 101.934 69.9695C100.825 67.6996 97.4942 67.0471 94.4929 68.5122C91.4916 69.9773 89.9569 73.0052 91.065 75.2752C92.1731 77.5452 95.5045 78.1976 98.5058 76.7325Z" fill="#243447" stroke="#243447" stroke-miterlimit="10"/>
<path d="M98.0868 83.5477C98.9175 85.2486 101.415 85.7382 103.664 84.6405C105.914 83.5428 107.061 81.2732 106.231 79.5723C105.4 77.8713 102.903 77.3818 100.653 78.4795C98.4033 79.5772 97.2561 81.8468 98.0868 83.5477Z" fill="#243447" stroke="#243447" stroke-miterlimit="10"/>
<path d="M109.63 30.3488C109.633 28.0391 109.057 25.7654 107.957 23.7349C106.856 21.7045 105.264 19.9817 103.327 18.7235C101.39 17.4653 99.1694 16.7117 96.8668 16.5313C94.5641 16.3509 92.2529 16.7494 90.1437 17.6906C89.2362 15.9175 87.9569 14.361 86.393 13.1275C84.829 11.894 83.0174 11.0124 81.0816 10.543C79.1459 10.0737 77.1316 10.0275 75.1764 10.4077C73.2212 10.7879 71.371 11.5855 69.7522 12.746C69.0755 10.959 68.0363 9.33142 66.6999 7.96568C65.3635 6.59993 63.7588 5.52562 61.9869 4.81035C60.215 4.09508 58.3142 3.75435 56.4041 3.8096C54.4941 3.86485 52.6162 4.31488 50.8886 5.13137C48.7583 2.96778 45.9759 1.56447 42.9697 1.13756C39.9636 0.710638 36.9005 1.28379 34.2521 2.76874C31.6037 4.25369 29.5168 6.5681 28.313 9.35555C27.1091 12.143 26.855 15.2489 27.5897 18.195C24.4625 19.3417 21.6871 21.2817 19.5357 23.8246C17.3844 26.3674 15.931 29.4259 15.3182 32.6999C14.7054 35.9738 14.9542 39.3509 16.0402 42.4997C17.1262 45.6485 19.012 48.461 21.5128 50.6611C20.5717 53.5164 20.5856 56.6004 21.5524 59.4471C22.5191 62.2938 24.3862 64.7484 26.8715 66.4401C29.3567 68.1317 32.3251 68.9685 35.328 68.8238C38.3309 68.6792 41.205 67.561 43.5162 65.6383C44.8975 69.0107 47.2094 71.9207 50.182 74.0288C53.1547 76.1369 56.6656 77.3562 60.305 77.5443C63.9445 77.7325 67.5623 76.8818 70.7366 75.0915C73.9108 73.3012 76.5104 70.6451 78.2322 67.4332C81.3254 68.7017 84.7477 68.9276 87.9808 68.0766C91.2139 67.2257 94.0816 65.3443 96.1496 62.7174C98.2176 60.0905 99.3731 56.8613 99.4413 53.5188C99.5094 50.1762 98.4864 46.9026 96.5271 44.1936C100.069 44.0036 103.403 42.4615 105.841 39.8854C108.279 37.3093 109.635 33.8957 109.63 30.3488Z" fill="white" stroke="#243447" stroke-miterlimit="10"/>
<path d="M100.136 73.7945C103.137 72.3294 104.672 69.3015 103.563 67.0315C102.455 64.7616 99.124 64.1091 96.1228 65.5742C93.1215 67.0393 91.5868 70.0672 92.6949 72.3372C93.803 74.6072 97.1344 75.2596 100.136 73.7945Z" fill="white" stroke="#243447" stroke-miterlimit="10"/>
<path d="M99.7225 80.6061C100.553 82.307 103.05 82.7965 105.295 81.7038C107.54 80.611 108.692 78.3365 107.861 76.6306C107.031 74.9247 104.539 74.4402 102.289 75.5379C100.039 76.6356 98.8919 78.9051 99.7225 80.6061Z" fill="white" stroke="#243447" stroke-miterlimit="10"/>
<path d="M74.7514 33.2073C74.7529 30.8191 74.1791 28.4657 73.0785 26.3462C71.978 24.2267 70.3831 22.4035 68.4287 21.0308C66.4744 19.6582 64.2182 18.7765 61.851 18.4604C59.4838 18.1443 57.0753 18.4031 54.8293 19.2148C52.5833 20.0266 50.5659 21.3674 48.9477 23.1238C47.3296 24.8803 46.1584 27.0007 45.5332 29.3056C44.908 31.6105 44.8472 34.0321 45.356 36.3655C45.8647 38.6989 46.9281 40.8754 48.4561 42.7108C50.6451 45.3367 51.8437 48.6473 51.8431 52.0659V54.1031H67.918V52.0659C67.9145 48.6506 69.1117 45.3427 71.3001 42.7207C73.5301 40.0521 74.7517 36.6849 74.7514 33.2073Z" fill="#FFC727" stroke="#243447" stroke-miterlimit="10"/>
<path opacity="0.44" d="M59.8707 43.6555C65.0784 43.6555 69.3001 39.4339 69.3001 34.2262C69.3001 29.0185 65.0784 24.7969 59.8707 24.7969C54.6631 24.7969 50.4414 29.0185 50.4414 34.2262C50.4414 39.4339 54.6631 43.6555 59.8707 43.6555Z" fill="white"/>
<path d="M67.9186 54.1167H51.8438V58.0921H67.9186V54.1167Z" fill="#7D7D7D" stroke="#243447" stroke-linecap="round" stroke-linejoin="round"/>
<path d="M51.8438 58.1025H67.9186V59.7441C67.9186 60.3644 67.6722 60.9593 67.2336 61.3979C66.795 61.8365 66.2001 62.0829 65.5798 62.0829H54.1825C53.5623 62.0829 52.9674 61.8365 52.5288 61.3979C52.0902 60.9593 51.8437 60.3644 51.8438 59.7441V58.1025Z" fill="#7D7D7D" stroke="#243447" stroke-linecap="round" stroke-linejoin="round"/>
<path d="M53.8564 62.0742H65.8718V62.8802C65.8718 63.7208 65.5379 64.527 64.9435 65.1213C64.3491 65.7157 63.5429 66.0497 62.7023 66.0497H57.0408C56.2002 66.0497 55.394 65.7157 54.7996 65.1213C54.2052 64.527 53.8713 63.7208 53.8713 62.8802V62.0742H53.8564Z" fill="white" stroke="#243447" stroke-linecap="round" stroke-linejoin="round"/>
<path d="M76.8594 33.2861H83.673" stroke="#243447" stroke-linecap="round" stroke-linejoin="round"/>
<path d="M35.4531 33.2861H42.3508" stroke="#243447" stroke-linecap="round" stroke-linejoin="round"/>
<path d="M59.5625 16.0102V9.17676" stroke="#243447" stroke-linecap="round" stroke-linejoin="round"/>
<path d="M71.9102 20.9391L76.6125 16.2368" stroke="#243447" stroke-linecap="round" stroke-linejoin="round"/>
<path d="M42.5137 50.335L47.2852 45.5635" stroke="#243447" stroke-linecap="round" stroke-linejoin="round"/>
<path d="M47.0825 20.8056L42.5137 16.2368" stroke="#243447" stroke-linecap="round" stroke-linejoin="round"/>
<path d="M76.6115 50.3352L72.0625 45.7861" stroke="#243447" stroke-linecap="round" stroke-linejoin="round"/>
</svg>
