<svg width="735" height="651" viewBox="0 0 735 651" fill="none" xmlns="http://www.w3.org/2000/svg">
<path d="M187.946 215.513C187.946 215.513 178.467 245.665 177.959 258.717C177.452 271.769 195.939 289.306 206.36 299.405C216.782 309.504 235.359 313.989 261.295 312.968C287.23 311.947 309.741 299.916 309.741 299.916C309.741 299.916 309.251 379.779 309.741 398.354C310.23 416.93 311.753 612.86 311.753 612.86H488.555C488.555 612.86 484.06 428.998 485.546 407.396C487.032 385.794 496.547 323.012 496.547 323.012C496.547 323.012 562.973 354.148 577.943 354.148C592.914 354.148 628.891 314.043 627.404 303.416C625.918 292.788 573.956 262.217 555.977 247.141C537.997 232.066 531.002 217.519 518.514 211.485C506.026 205.451 449.642 192.891 437.1 191.432C424.558 189.974 356.701 193.93 338.214 194.932C319.727 195.935 288.771 227.6 281.286 233.123C275.52 237.177 269.509 240.866 263.288 244.17C263.288 244.17 266.297 240.652 261.295 239.649C258.834 239.095 256.329 238.76 253.809 238.647C253.809 238.647 251.308 209.48 249.315 206.49C247.321 203.5 217.851 196.446 206.868 197.375C195.884 198.305 187.946 215.513 187.946 215.513Z" fill="white"/>
<mask id="mask0_3_39776" style="mask-type:luminance" maskUnits="userSpaceOnUse" x="177" y="191" width="451" height="422">
<path d="M187.943 215.519C187.943 215.519 178.464 245.67 177.957 258.723C177.449 271.775 195.936 289.311 206.357 299.411C216.779 309.51 235.356 313.994 261.292 312.973C287.228 311.952 309.738 299.921 309.738 299.921C309.738 299.921 309.249 379.784 309.738 398.36C310.227 416.936 311.75 612.865 311.75 612.865H488.552C488.552 612.865 484.057 429.003 485.543 407.402C487.029 385.8 496.544 323.018 496.544 323.018C496.544 323.018 562.97 354.153 577.94 354.153C592.911 354.153 628.888 314.049 627.401 303.421C625.915 292.793 573.953 262.223 555.974 247.147C537.995 232.071 530.999 217.524 518.511 211.49C506.023 205.456 449.639 192.896 437.097 191.438C424.555 189.979 356.698 193.935 338.211 194.938C319.724 195.94 288.768 227.605 281.283 233.128C275.517 237.182 269.506 240.872 263.285 244.175C263.285 244.175 266.294 240.657 261.292 239.655C258.831 239.101 256.326 238.765 253.806 238.652C253.806 238.652 251.305 209.485 249.312 206.495C247.318 203.506 217.848 196.451 206.865 197.381C195.881 198.31 187.943 215.519 187.943 215.519Z" fill="white"/>
</mask>
<g mask="url(#mask0_3_39776)">
<path d="M623.58 314.052C626.281 309.567 627.803 305.776 627.477 303.442C625.973 292.888 574.028 262.244 556.049 247.168C538.07 232.092 531.074 217.545 518.586 211.512C506.099 205.478 449.714 192.918 437.172 191.459C430.535 191.033 423.88 190.966 417.236 191.259C432.007 206.571 391.499 234.152 400.181 234.882C408.862 235.611 447.829 229.65 470.158 219.915C470.158 219.915 496.964 219.15 519.311 232.676C538.324 244.051 587.35 284.648 623.58 314.052Z" fill="#144C96"/>
<path d="M535.733 340.353C535.733 340.353 515.633 320.137 513.404 314.832C511.175 309.527 526.091 251.941 517.863 266.159C513.038 274.455 510.029 283.69 509.036 293.248C509.036 293.248 499.34 255.805 498.597 264.792C497.853 273.779 497.853 296.256 497.853 296.256C497.853 296.256 462.874 255.805 468.855 273.779C474.836 291.754 481.542 312.717 481.542 312.717L433.748 653.443L453.848 646.698L498.506 326.955L535.733 340.353Z" fill="#144C96"/>
<path d="M310.158 317.221C310.158 317.221 310.901 237.011 308.654 240.839C306.406 244.668 304.195 261.803 304.195 261.803C304.195 261.803 293.031 235.589 291.508 244.576C289.986 253.564 293.738 273.033 293.738 273.033C293.738 273.033 280.326 278.283 243.86 284.262C207.394 290.241 214.861 284.262 236.411 273.78C257.96 263.298 274.471 239.345 274.471 228.097C274.471 216.849 267.022 185.294 243.95 180.865C220.878 176.435 172.468 222.118 168.753 231.105C165.037 240.092 196.99 227.331 196.99 227.331C196.99 227.331 201.449 248.313 202.935 255.04C204.421 261.767 194.761 273.014 194 276.004C193.239 278.994 211.87 272.267 210.312 274.509C208.753 276.751 190.955 290.916 194.689 297.733C198.422 304.551 228.998 316.473 256.547 320.301C274.461 322.355 292.593 321.313 310.158 317.221Z" fill="#144C96"/>
<path opacity="0.5" d="M310.158 317.221C310.158 317.221 310.901 237.011 308.654 240.839C306.406 244.668 304.195 261.803 304.195 261.803C304.195 261.803 293.031 235.589 291.508 244.576C289.986 253.564 293.738 273.033 293.738 273.033C293.738 273.033 280.326 278.283 243.86 284.262C207.394 290.241 214.861 284.262 236.411 273.78C257.96 263.298 274.471 239.345 274.471 228.097C274.471 216.849 267.022 185.294 243.95 180.865C220.878 176.435 172.468 222.118 168.753 231.105C165.037 240.092 196.99 227.331 196.99 227.331C196.99 227.331 201.449 248.313 202.935 255.04C204.421 261.767 194.761 273.014 194 276.004C193.239 278.994 211.87 272.267 210.312 274.509C208.753 276.751 190.955 290.916 194.689 297.733C198.422 304.551 228.998 316.473 256.547 320.301C274.461 322.355 292.593 321.313 310.158 317.221Z" fill="white"/>
<path opacity="0.5" d="M535.733 340.353C535.733 340.353 515.633 320.137 513.404 314.832C511.175 309.527 526.091 251.941 517.863 266.159C513.038 274.455 510.029 283.69 509.036 293.248C509.036 293.248 499.34 255.805 498.597 264.792C497.853 273.779 497.853 296.256 497.853 296.256C497.853 296.256 462.874 255.805 468.855 273.779C474.836 291.754 481.542 312.717 481.542 312.717L433.748 653.443L453.848 646.698L498.506 326.955L535.733 340.353Z" fill="white"/>
<path d="M311.804 612.882H488.625C488.625 612.882 487.229 556.188 486.25 502.083L310.808 490.307C311.315 548.696 311.804 612.882 311.804 612.882Z" fill="#263238"/>
<path opacity="0.5" d="M623.58 314.052C626.281 309.567 627.803 305.776 627.477 303.442C625.973 292.888 574.028 262.244 556.049 247.168C538.07 232.092 531.074 217.545 518.586 211.512C506.099 205.478 449.714 192.918 437.172 191.459C430.535 191.033 423.88 190.966 417.236 191.259C432.007 206.571 391.499 234.152 400.181 234.882C408.862 235.611 447.829 229.65 470.158 219.915C470.158 219.915 496.964 219.15 519.311 232.676C538.324 244.051 587.35 284.648 623.58 314.052Z" fill="white"/>
</g>
<path d="M187.946 215.513C187.946 215.513 178.467 245.665 177.959 258.717C177.452 271.769 195.939 289.306 206.36 299.405C216.782 309.504 235.359 313.989 261.295 312.968C287.23 311.947 309.741 299.916 309.741 299.916C309.741 299.916 309.251 379.779 309.741 398.354C310.23 416.93 311.753 612.86 311.753 612.86H488.555C488.555 612.86 484.06 428.998 485.546 407.396C487.032 385.794 496.547 323.012 496.547 323.012C496.547 323.012 562.973 354.148 577.943 354.148C592.914 354.148 628.891 314.043 627.404 303.416C625.918 292.788 573.956 262.217 555.977 247.141C537.997 232.066 531.002 217.519 518.514 211.485C506.026 205.451 449.642 192.891 437.1 191.432C424.558 189.974 356.701 193.93 338.214 194.932C319.727 195.935 288.771 227.6 281.286 233.123C275.52 237.177 269.509 240.866 263.288 244.17C263.288 244.17 266.297 240.652 261.295 239.649C258.834 239.095 256.329 238.76 253.809 238.647C253.809 238.647 251.308 209.48 249.315 206.49C247.321 203.5 217.851 196.446 206.868 197.375C195.884 198.305 187.946 215.513 187.946 215.513Z" stroke="#263238" stroke-width="1.14333" stroke-linecap="round" stroke-linejoin="round"/>
<path d="M310.811 253.192L309.814 299.914L296.837 248.671" stroke="#263238" stroke-width="1.14333" stroke-linecap="round" stroke-linejoin="round"/>
<path d="M253.881 238.626C253.881 238.626 234.397 264.239 220.858 266.754" stroke="#263238" stroke-width="1.14333" stroke-linecap="round" stroke-linejoin="round"/>
<path d="M263.359 244.15C263.359 244.15 256.871 257.22 249.875 258.733" stroke="#263238" stroke-width="1.14333" stroke-linecap="round" stroke-linejoin="round"/>
<path d="M505.101 291.366L496.618 323.03L491.616 290.874" stroke="#263238" stroke-width="1.14333" stroke-linecap="round" stroke-linejoin="round"/>
<path d="M391.734 232.591L374.244 247.156L359.255 610.359" stroke="#263238" stroke-width="1.14333" stroke-linecap="round" stroke-linejoin="round"/>
<path d="M382.167 275.547C382.167 276.192 381.977 276.823 381.62 277.36C381.264 277.896 380.757 278.314 380.164 278.561C379.572 278.808 378.919 278.873 378.29 278.747C377.661 278.621 377.083 278.31 376.629 277.854C376.175 277.398 375.866 276.816 375.741 276.183C375.616 275.55 375.68 274.894 375.926 274.298C376.171 273.702 376.587 273.192 377.121 272.834C377.654 272.475 378.281 272.284 378.923 272.284C379.782 272.288 380.604 272.634 381.212 273.245C381.819 273.856 382.162 274.683 382.167 275.547Z" fill="#263238"/>
<path d="M418.197 275.547C418.197 276.192 418.006 276.823 417.65 277.36C417.293 277.896 416.787 278.314 416.194 278.561C415.601 278.808 414.949 278.873 414.319 278.747C413.69 278.621 413.112 278.31 412.658 277.854C412.205 277.398 411.896 276.816 411.77 276.183C411.645 275.55 411.709 274.894 411.955 274.298C412.201 273.702 412.616 273.192 413.15 272.834C413.683 272.475 414.311 272.284 414.952 272.284C415.811 272.288 416.634 272.634 417.241 273.245C417.848 273.856 418.192 274.683 418.197 275.547Z" fill="#263238"/>
<path d="M380.985 338.524C380.985 339.169 380.794 339.8 380.438 340.337C380.081 340.873 379.575 341.292 378.982 341.539C378.389 341.785 377.737 341.85 377.107 341.724C376.478 341.598 375.9 341.287 375.446 340.831C374.993 340.375 374.684 339.793 374.558 339.16C374.433 338.527 374.497 337.871 374.743 337.275C374.989 336.679 375.404 336.169 375.938 335.811C376.471 335.452 377.099 335.261 377.74 335.261C378.601 335.261 379.426 335.605 380.034 336.216C380.643 336.828 380.985 337.658 380.985 338.524Z" fill="#263238"/>
<path d="M416.946 338.524C416.946 339.169 416.755 339.8 416.399 340.337C416.042 340.873 415.536 341.292 414.943 341.539C414.35 341.785 413.698 341.85 413.068 341.724C412.439 341.598 411.861 341.287 411.407 340.831C410.954 340.375 410.645 339.793 410.519 339.16C410.394 338.527 410.458 337.871 410.704 337.275C410.95 336.679 411.365 336.169 411.899 335.811C412.432 335.452 413.06 335.261 413.701 335.261C414.127 335.261 414.549 335.345 414.943 335.509C415.336 335.673 415.694 335.913 415.995 336.216C416.297 336.519 416.536 336.879 416.699 337.275C416.862 337.671 416.946 338.095 416.946 338.524Z" fill="#263238"/>
<path d="M379.737 409.931C379.737 410.576 379.546 411.207 379.19 411.743C378.833 412.28 378.327 412.698 377.734 412.945C377.141 413.192 376.489 413.257 375.859 413.131C375.23 413.005 374.652 412.694 374.198 412.238C373.745 411.782 373.436 411.2 373.31 410.567C373.185 409.934 373.249 409.278 373.495 408.682C373.741 408.086 374.156 407.576 374.69 407.217C375.223 406.859 375.851 406.667 376.492 406.667C377.353 406.667 378.178 407.011 378.786 407.623C379.395 408.235 379.737 409.065 379.737 409.931Z" fill="#263238"/>
<path d="M415.697 409.931C415.697 410.576 415.507 411.207 415.151 411.743C414.794 412.28 414.288 412.698 413.695 412.945C413.102 413.192 412.45 413.257 411.82 413.131C411.191 413.005 410.613 412.694 410.159 412.238C409.705 411.782 409.397 411.2 409.271 410.567C409.146 409.934 409.21 409.278 409.456 408.682C409.701 408.086 410.117 407.576 410.651 407.217C411.184 406.859 411.812 406.667 412.453 406.667C412.879 406.667 413.301 406.752 413.695 406.916C414.088 407.08 414.446 407.32 414.747 407.623C415.048 407.926 415.287 408.286 415.45 408.682C415.614 409.078 415.697 409.502 415.697 409.931Z" fill="#263238"/>
<path d="M225.916 160.77C225.916 160.77 212.921 160.77 208.426 162.264C203.932 163.759 187.457 194.421 183.053 205.468C180.331 212.669 179.301 220.405 180.044 228.072L204.022 216.515L211.018 248.672C211.018 248.672 248.97 218.539 253.973 208.567C258.975 198.596 247.484 170.376 247.484 170.376L225.916 160.77Z" fill="#263238" stroke="#263238" stroke-width="1.14333" stroke-linecap="round" stroke-linejoin="round"/>
<path d="M392.732 180.856C392.732 180.856 368.753 187.382 366.252 199.45C363.751 211.518 384.231 230.586 388.237 234.086C392.242 237.586 429.179 230.057 445.672 226.047C462.166 222.037 484.132 211.463 483.625 202.932C483.117 194.401 473.131 190.882 470.14 183.846C467.15 176.809 465.138 172.799 456.148 171.796C447.186 170.914 438.168 170.744 429.179 171.286C425.663 171.815 392.732 180.856 392.732 180.856Z" fill="#263238" stroke="#263238" stroke-width="1.14333" stroke-linecap="round" stroke-linejoin="round"/>
<path d="M391.734 232.595C391.734 232.595 389.232 227.582 379.735 228.075C370.238 228.567 362.753 239.122 362.753 239.122C362.753 239.122 381.24 243.15 391.734 232.595Z" fill="#263238" stroke="#263238" stroke-width="1.14333" stroke-linecap="round" stroke-linejoin="round"/>
<path d="M391.733 232.592C391.733 232.592 395.72 225.064 403.713 233.103C411.706 241.142 416.69 254.668 416.69 254.668C416.69 254.668 406.214 259.189 396.228 248.634C386.241 238.079 391.733 232.592 391.733 232.592Z" fill="#263238" stroke="#263238" stroke-width="1.14333" stroke-linecap="round" stroke-linejoin="round"/>
<path d="M469.161 189.902C469.161 189.902 469.669 199.454 451.671 208.988C438.817 215.521 425.488 221.06 411.798 225.559" stroke="white" stroke-width="1.14333" stroke-linecap="round" stroke-linejoin="round"/>
<path d="M438.749 202.571C438.749 202.571 452.161 193.912 454.155 187.987C456.148 182.063 450.167 178.873 450.167 178.873" stroke="white" stroke-width="1.14333" stroke-linecap="round" stroke-linejoin="round"/>
<path d="M392.732 230.59C392.732 230.59 380.733 216.006 380.733 205.068C380.733 194.131 385.228 192.508 385.228 192.508" stroke="white" stroke-width="1.14333" stroke-linecap="round" stroke-linejoin="round"/>
<path d="M393.402 64.6827C389.005 59.4258 385.245 53.6612 382.202 47.5106C377.942 38.3959 372.07 23.3749 383.271 14.2602C394.472 5.1455 437.644 -0.760833 458.487 1.91889C479.329 4.59861 496.892 26.0546 513.421 56.0967C529.95 86.1387 535.297 109.217 531.545 119.407C527.794 129.598 512.877 140.863 495.297 140.335C477.716 139.806 467.567 121.012 457.435 111.368C447.304 101.725 415.75 81.8548 411.563 77.5527C406.632 73.1633 401.464 69.0494 396.085 65.2296L393.402 64.6827Z" fill="white"/>
<mask id="mask1_3_39776" style="mask-type:luminance" maskUnits="userSpaceOnUse" x="376" y="1" width="157" height="140">
<path d="M393.396 64.6886C388.998 59.4316 385.238 53.6671 382.195 47.5165C377.936 38.4018 372.063 23.3808 383.264 14.2661C394.465 5.15136 437.637 -0.754973 458.48 1.92475C479.323 4.60447 496.885 26.0605 513.414 56.1025C529.944 86.1446 535.29 109.223 531.539 119.413C527.787 129.604 512.871 140.869 495.29 140.341C477.71 139.812 467.56 121.017 457.429 111.374C447.297 101.731 415.743 81.8607 411.556 77.5585C406.625 73.1691 401.458 69.0553 396.078 65.2355L393.396 64.6886Z" fill="white"/>
</mask>
<g mask="url(#mask1_3_39776)">
<path d="M471.644 6.30029C479.799 16.29 498.993 41.556 500.751 60.3687C502.98 84.3221 457.561 72.3454 457.561 72.3454C457.561 72.3454 487.339 54.3712 478.404 56.6134C469.469 58.8557 462.092 53.6238 448.626 53.6238C435.159 53.6238 418.104 35.6496 418.104 41.6471C418.104 47.6446 419.591 49.1394 423.324 54.4077C427.058 59.676 419.591 54.4077 437.461 79.9289C442.898 87.7493 447.103 96.9187 451.218 106.234C453.682 108.166 455.821 109.88 457.416 111.466C467.547 121.109 477.679 139.885 495.278 140.432C512.876 140.979 527.901 129.695 531.526 119.505C535.151 109.315 529.913 86.2362 513.402 56.1942C500.479 32.6053 486.904 14.4124 471.644 6.30029Z" fill="#144C96"/>
<path opacity="0.5" d="M471.644 6.30029C479.799 16.29 498.993 41.556 500.751 60.3687C502.98 84.3221 457.561 72.3454 457.561 72.3454C457.561 72.3454 487.339 54.3712 478.404 56.6134C469.469 58.8557 462.092 53.6238 448.626 53.6238C435.159 53.6238 418.104 35.6496 418.104 41.6471C418.104 47.6446 419.591 49.1394 423.324 54.4077C427.058 59.676 419.591 54.4077 437.461 79.9289C442.898 87.7493 447.103 96.9187 451.218 106.234C453.682 108.166 455.821 109.88 457.416 111.466C467.547 121.109 477.679 139.885 495.278 140.432C512.876 140.979 527.901 129.695 531.526 119.505C535.151 109.315 529.913 86.2362 513.402 56.1942C500.479 32.6053 486.904 14.4124 471.644 6.30029Z" fill="white"/>
</g>
<path d="M393.402 64.6827C389.005 59.4258 385.245 53.6612 382.202 47.5106C377.942 38.3959 372.07 23.3749 383.271 14.2602C394.472 5.1455 437.644 -0.760832 458.487 1.91889C479.329 4.59861 496.892 26.0546 513.421 56.0967C529.95 86.1387 535.297 109.217 531.545 119.407C527.794 129.598 512.877 140.863 495.297 140.335C477.716 139.806 467.567 121.012 457.435 111.368C447.304 101.725 415.75 81.8548 411.563 77.5527C406.632 73.1633 401.464 69.0494 396.085 65.2296L393.402 64.6827Z" stroke="#263238" stroke-width="1.14333" stroke-linecap="round" stroke-linejoin="round"/>
<path d="M409.349 46.0523C409.349 46.0523 404.057 43.0991 395.23 31.8516" stroke="#263238" stroke-width="1.14333" stroke-linecap="round" stroke-linejoin="round"/>
<path d="M414.175 28.3676C413.911 26.7834 413.863 25.1706 414.03 23.5732" stroke="#263238" stroke-width="1.14333" stroke-linecap="round" stroke-linejoin="round"/>
<path d="M422.855 48.4229C419.868 43.8318 417.434 38.8995 415.605 33.73" stroke="#263238" stroke-width="1.14333" stroke-linecap="round" stroke-linejoin="round"/>
<path d="M465.809 72.103C465.809 72.103 480.525 75.0562 493.466 72.7046" stroke="#263238" stroke-width="1.14333" stroke-linecap="round" stroke-linejoin="round"/>
<path d="M511.137 99.8472C512.478 99.8472 513.855 99.8472 515.233 99.8472" stroke="#263238" stroke-width="1.14333" stroke-linecap="round" stroke-linejoin="round"/>
<path d="M486.396 96.3643C492.4 97.8771 498.515 98.9013 504.683 99.4268" stroke="#263238" stroke-width="1.14333" stroke-linecap="round" stroke-linejoin="round"/>
<path d="M483.551 107.596C483.551 107.596 498.177 123.601 508.762 126.554" stroke="#263238" stroke-width="1.14333" stroke-linecap="round" stroke-linejoin="round"/>
<path d="M472.351 116.127C472.351 114.523 464.34 95.7466 450.475 82.3298C436.61 68.9129 409.931 65.7045 400.869 66.2332C391.807 66.7618 387.53 71.064 387.53 71.064C387.53 71.064 377.942 106.484 373.139 118.825C369.321 129.453 369.18 141.066 372.74 151.784C376.06 161.317 380.489 170.422 385.935 178.909C393.946 191.779 393.946 227.199 393.946 227.199C393.946 227.199 433.946 208.969 438.749 202.516C443.552 196.063 440.869 173.55 443.008 162.813C443.447 160.624 444.09 158.481 444.929 156.414C447.519 153.573 449.581 150.289 451.019 146.716C451.019 146.716 472.351 117.804 472.351 116.127Z" fill="white"/>
<mask id="mask2_3_39776" style="mask-type:luminance" maskUnits="userSpaceOnUse" x="370" y="66" width="103" height="162">
<path d="M472.356 116.129C472.356 114.525 464.345 95.7485 450.48 82.3317C436.615 68.9149 409.936 65.7065 400.874 66.2351C391.812 66.7638 387.535 71.0659 387.535 71.0659C387.535 71.0659 377.947 106.486 373.144 118.827C369.325 129.455 369.185 141.068 372.745 151.786C376.065 161.319 380.494 170.424 385.94 178.911C393.95 191.781 393.95 227.201 393.95 227.201C393.95 227.201 433.951 208.971 438.754 202.518C443.557 196.065 440.874 173.552 443.013 162.815C443.451 160.626 444.095 158.483 444.934 156.416C447.523 153.575 449.586 150.291 451.024 146.718C451.024 146.718 472.356 117.806 472.356 116.129Z" fill="white"/>
</mask>
<g mask="url(#mask2_3_39776)">
<path d="M460.391 94.0151L448.629 93.3042C445.328 108.532 441.09 123.539 435.942 138.24C428.493 158.456 418.071 170.433 407.65 174.188C397.228 177.943 385.321 172.693 389.779 178.673C392.426 182.227 408.484 197.412 426.372 211.03C432.371 207.675 437.247 204.558 438.715 202.571C443.518 196.136 440.835 173.605 442.974 162.868C443.413 160.679 444.056 158.536 444.895 156.469C447.485 153.628 449.547 150.344 450.985 146.771C450.985 146.771 472.317 117.805 472.317 116.182C472.353 115.015 468.076 104.716 460.391 94.0151Z" fill="#144C96"/>
<path opacity="0.5" d="M460.391 94.0151L448.629 93.3042C445.328 108.532 441.09 123.539 435.942 138.24C428.493 158.456 418.071 170.433 407.65 174.188C397.228 177.943 385.321 172.693 389.779 178.673C392.426 182.227 408.484 197.412 426.372 211.03C432.371 207.675 437.247 204.558 438.715 202.571C443.518 196.136 440.835 173.605 442.974 162.868C443.413 160.679 444.056 158.536 444.895 156.469C447.485 153.628 449.547 150.344 450.985 146.771C450.985 146.771 472.317 117.805 472.317 116.182C472.353 115.015 468.076 104.716 460.391 94.0151Z" fill="white"/>
</g>
<path d="M472.351 116.127C472.351 114.523 464.34 95.7466 450.475 82.3298C436.61 68.9129 409.931 65.7045 400.869 66.2332C391.807 66.7618 387.53 71.064 387.53 71.064C387.53 71.064 377.942 106.484 373.139 118.825C369.321 129.453 369.18 141.066 372.74 151.784C376.06 161.317 380.489 170.422 385.935 178.909C393.946 191.779 393.946 227.199 393.946 227.199C393.946 227.199 433.946 208.969 438.749 202.516C443.552 196.063 440.869 173.55 443.008 162.813C443.447 160.624 444.09 158.481 444.929 156.414C447.519 153.573 449.581 150.289 451.019 146.716C451.019 146.716 472.351 117.804 472.351 116.127Z" stroke="#263238" stroke-width="1.14333" stroke-linecap="round" stroke-linejoin="round"/>
<path d="M404.605 103.86C404.605 103.86 403.01 110.295 397.681 112.428C392.353 114.561 385.411 114.051 387.532 117.806C389.652 121.561 397.681 123.694 397.681 123.694" stroke="#263238" stroke-width="1.14333" stroke-linecap="round" stroke-linejoin="round"/>
<path d="M390.212 137.106C390.212 137.106 399.274 140.862 404.603 138.182" stroke="#263238" stroke-width="1.14333" stroke-linecap="round" stroke-linejoin="round"/>
<path d="M422.746 109.218C422.746 109.218 421.677 118.332 432.878 116.728" stroke="#263238" stroke-width="1.14333" stroke-linecap="round" stroke-linejoin="round"/>
<path d="M387.007 100.633C387.007 100.633 392.335 109.219 399.803 103.86" stroke="#263238" stroke-width="1.14333" stroke-linecap="round" stroke-linejoin="round"/>
<path d="M425.412 96.8754C425.412 96.8754 435.018 93.6488 439.277 105.461" stroke="#263238" stroke-width="1.14333" stroke-linecap="round" stroke-linejoin="round"/>
<path d="M404.602 92.5933C404.602 92.5933 398.204 82.9317 389.142 89.8953" stroke="#263238" stroke-width="1.14333" stroke-linecap="round" stroke-linejoin="round"/>
<path d="M405.146 132.823C405.146 132.823 405.672 140.862 409.931 142.485" stroke="#263238" stroke-width="1.14333" stroke-linecap="round" stroke-linejoin="round"/>
<path d="M453.684 143.016C453.684 143.016 438.75 161.246 428.618 164.472" stroke="#263238" stroke-width="1.14333" stroke-linecap="round" stroke-linejoin="round"/>
<path d="M452.306 102.238C452.306 102.238 445.365 110.569 446.144 117.605C446.923 124.642 457.707 131.678 460.788 131.678C463.87 131.678 472.352 118.918 472.352 118.918C472.352 118.918 460.1 105.446 452.306 102.238Z" fill="#263238" stroke="#263238" stroke-width="1.14333" stroke-linecap="round" stroke-linejoin="round"/>
<path d="M404.712 78.3725C404.712 78.3725 398.713 84.4064 384.231 84.4064C376.032 84.4708 367.844 83.7998 359.764 82.4012C359.764 82.4012 392.224 74.362 404.712 78.3725Z" fill="#263238" stroke="#263238" stroke-width="1.14333" stroke-linecap="round" stroke-linejoin="round"/>
<path d="M303.453 174.334C305.267 181.131 309.549 186.997 315.455 190.772C321.361 194.547 328.459 195.957 335.348 194.722C342.237 193.488 348.415 189.699 352.661 184.105C356.906 178.51 358.911 171.517 358.279 164.508L303.453 174.334Z" fill="white"/>
<mask id="mask3_3_39776" style="mask-type:luminance" maskUnits="userSpaceOnUse" x="303" y="164" width="56" height="32">
<path d="M303.452 174.337C305.266 181.135 309.548 187.001 315.454 190.776C321.36 194.551 328.458 195.96 335.347 194.726C342.236 193.491 348.414 189.702 352.66 184.108C356.905 178.514 358.91 171.521 358.278 164.512L303.452 174.337Z" fill="white"/>
</mask>
<g mask="url(#mask3_3_39776)">
<path opacity="0.42" d="M303.452 174.337C305.266 181.135 309.548 187.001 315.454 190.776C321.36 194.551 328.458 195.96 335.347 194.726C342.236 193.491 348.414 189.702 352.66 184.108C356.905 178.514 358.91 171.521 358.278 164.512L303.452 174.337Z" fill="black"/>
</g>
<path d="M303.453 174.334C305.267 181.131 309.549 186.997 315.455 190.772C321.361 194.547 328.459 195.957 335.348 194.722C342.237 193.488 348.415 189.699 352.661 184.105C356.906 178.51 358.911 171.517 358.279 164.508L303.453 174.334Z" stroke="#263238" stroke-width="1.14333" stroke-linecap="round" stroke-linejoin="round"/>
<path d="M269.36 101.54C271.137 98.1178 272.157 94.3493 272.35 90.4932C272.35 85.0244 270.356 75.9097 267.366 76.9305C264.375 77.9514 264.375 85.4619 264.865 87.9775C265.079 90.165 264.913 92.3733 264.375 94.5037C264.375 94.5037 261.874 99.0246 263.868 102.543C265.862 106.061 269.36 101.54 269.36 101.54Z" fill="white" stroke="#263238" stroke-width="1.14333" stroke-linecap="round" stroke-linejoin="round"/>
<path d="M303.452 174.334L249.333 57.5197C249.012 56.8301 248.559 56.2111 247.999 55.6983C247.44 55.1854 246.785 54.7889 246.072 54.5314C245.36 54.2739 244.604 54.1605 243.848 54.1979C243.092 54.2352 242.35 54.4224 241.666 54.7489C240.976 55.0761 240.358 55.5387 239.848 56.1095C239.338 56.6804 238.947 57.348 238.697 58.0731C238.447 58.7982 238.344 59.5663 238.393 60.3321C238.442 61.098 238.643 61.8462 238.984 62.5328L241.358 67.3272" stroke="#263238" stroke-width="1.14333" stroke-linecap="round" stroke-linejoin="round"/>
<path d="M248.88 82.8953C248.88 82.8953 248.88 88.9292 251.381 90.4423C253.882 91.9553 266.859 99.557 267.367 94.9631C267.874 90.3693 258.304 84.4083 255.386 82.8953C252.468 81.3822 251.381 81.8927 248.88 82.8953Z" stroke="#263238" stroke-width="1.14333" stroke-linecap="round" stroke-linejoin="round"/>
<path d="M251.382 90.4404C251.382 90.4404 243.389 106.501 243.389 113.537V140.17C243.389 140.17 212.433 172.819 210.928 181.35C209.424 189.882 205.491 210.518 210.928 210.518C216.366 210.518 241.903 185.89 243.896 180.877C245.89 175.863 257.87 142.704 257.87 142.704C258.874 141.077 260.046 139.561 261.368 138.183C263.362 136.16 263.869 123.108 263.869 123.108C263.869 123.108 269.307 122.597 269.307 119.589V101.542C269.361 97.4587 251.382 90.4404 251.382 90.4404Z" fill="white"/>
<mask id="mask4_3_39776" style="mask-type:luminance" maskUnits="userSpaceOnUse" x="208" y="90" width="62" height="121">
<path d="M251.387 90.4448C251.387 90.4448 243.394 106.505 243.394 113.541V140.175C243.394 140.175 212.438 172.823 210.933 181.355C209.429 189.886 205.496 210.522 210.933 210.522C216.371 210.522 241.908 185.894 243.901 180.881C245.895 175.868 257.875 142.709 257.875 142.709C258.878 141.081 260.051 139.566 261.373 138.188C263.367 136.164 263.874 123.112 263.874 123.112C263.874 123.112 269.311 122.601 269.311 119.594V101.547C269.366 97.4631 251.387 90.4448 251.387 90.4448Z" fill="white"/>
</mask>
<g mask="url(#mask4_3_39776)">
<path d="M243.89 180.866C245.884 175.835 257.864 142.694 257.864 142.694C258.867 141.066 260.04 139.551 261.362 138.173C263.356 136.149 263.863 123.097 263.863 123.097C263.863 123.097 269.3 122.587 269.3 119.579V101.55C269.3 100.675 268.448 99.7271 267.125 98.6333L263.501 115.04L249.128 116.48C251.389 119.823 253.085 123.519 254.148 127.418C255.598 133.196 253.442 143.314 249.853 152.702C246.464 161.561 212.408 203.179 208.548 207.9C208.965 209.596 209.708 210.635 210.94 210.635C216.414 210.507 241.896 185.879 243.89 180.866Z" fill="#144C96"/>
<path opacity="0.5" d="M243.89 180.866C245.884 175.835 257.864 142.694 257.864 142.694C258.867 141.066 260.04 139.551 261.362 138.173C263.356 136.149 263.863 123.097 263.863 123.097C263.863 123.097 269.3 122.587 269.3 119.579V101.55C269.3 100.675 268.448 99.7271 267.125 98.6333L263.501 115.04L249.128 116.48C251.389 119.823 253.085 123.519 254.148 127.418C255.598 133.196 253.442 143.314 249.853 152.702C246.464 161.561 212.408 203.179 208.548 207.9C208.965 209.596 209.708 210.635 210.94 210.635C216.414 210.507 241.896 185.879 243.89 180.866Z" fill="white"/>
</g>
<path d="M251.382 90.4404C251.382 90.4404 243.389 106.501 243.389 113.537V140.17C243.389 140.17 212.433 172.819 210.928 181.35C209.424 189.882 205.491 210.518 210.928 210.518C216.366 210.518 241.903 185.89 243.896 180.877C245.89 175.863 257.87 142.704 257.87 142.704C258.874 141.077 260.046 139.561 261.368 138.183C263.362 136.16 263.869 123.108 263.869 123.108C263.869 123.108 269.307 122.597 269.307 119.589V101.542C269.361 97.4587 251.382 90.4404 251.382 90.4404Z" stroke="#263238" stroke-width="1.14333" stroke-linecap="round" stroke-linejoin="round"/>
<path d="M263.867 123.093L262.363 119.064L257.379 119.575" stroke="#263238" stroke-width="1.14333" stroke-linecap="round" stroke-linejoin="round"/>
<path d="M250.384 110.53L267.366 111.022" stroke="#263238" stroke-width="1.14333" stroke-linecap="round" stroke-linejoin="round"/>
<path d="M251.379 100.976L267.854 105.005" stroke="#263238" stroke-width="1.14333" stroke-linecap="round" stroke-linejoin="round"/>
<path d="M591.5 305.438C591.5 305.438 548.001 312.967 552.551 322.519L554.055 329.555C554.055 329.555 522.591 369.66 524.077 371.246C525.564 372.832 582.075 406.411 584.014 406.411C585.954 406.411 621.477 342.608 628.962 330.048C636.448 317.488 637.463 305.948 627.966 299.914C618.468 293.88 608.029 288.357 608.029 288.357" fill="white"/>
<mask id="mask5_3_39776" style="mask-type:luminance" maskUnits="userSpaceOnUse" x="524" y="288" width="111" height="119">
<path d="M591.5 305.433C591.5 305.433 548.001 312.962 552.551 322.514L554.055 329.55C554.055 329.55 522.591 369.655 524.077 371.241C525.564 372.827 582.075 406.406 584.014 406.406C585.954 406.406 621.477 342.603 628.962 330.043C636.448 317.483 637.463 305.943 627.966 299.91C618.468 293.876 608.029 288.352 608.029 288.352" fill="white"/>
</mask>
<g mask="url(#mask5_3_39776)">
<path d="M627.968 299.91C618.471 293.876 608.031 288.352 608.031 288.352L601.96 294.641C608.122 299.928 618.634 309.68 619.16 314.949C619.903 322.441 608.738 337.426 607.252 340.47C605.766 343.514 592.354 319.506 579.703 319.506C567.052 319.506 580.247 324.246 586.953 331.61C593.659 338.975 594.511 350.952 589.291 358.444C584.397 365.481 531.656 361.944 541.171 381.905C558.425 392.278 582.657 406.46 583.962 406.46C585.956 406.46 621.425 342.657 628.91 330.097C636.396 317.537 637.465 305.943 627.968 299.91Z" fill="#144C96"/>
<path opacity="0.5" d="M627.968 299.91C618.471 293.876 608.031 288.352 608.031 288.352L601.96 294.641C608.122 299.928 618.634 309.68 619.16 314.949C619.903 322.441 608.738 337.426 607.252 340.47C605.766 343.514 592.354 319.506 579.703 319.506C567.052 319.506 580.247 324.246 586.953 331.61C593.659 338.975 594.511 350.952 589.291 358.444C584.397 365.481 531.656 361.944 541.171 381.905C558.425 392.278 582.657 406.46 583.962 406.46C585.956 406.46 621.425 342.657 628.91 330.097C636.396 317.537 637.465 305.943 627.968 299.91Z" fill="white"/>
</g>
<path d="M591.5 305.438C591.5 305.438 548.001 312.967 552.551 322.519L554.055 329.555C554.055 329.555 522.591 369.66 524.077 371.246C525.564 372.832 582.075 406.411 584.014 406.411C585.954 406.411 621.477 342.608 628.962 330.048C636.448 317.488 637.463 305.948 627.966 299.914C618.468 293.88 608.029 288.357 608.029 288.357" stroke="#263238" stroke-width="1.14333" stroke-linecap="round" stroke-linejoin="round"/>
<path d="M560.547 326.527C560.547 326.527 576.025 320.512 587.008 331.559C597.992 342.606 600.003 347.126 600.003 347.126C599.617 342.619 598.309 338.24 596.16 334.265C594.011 330.29 591.068 326.806 587.516 324.03" stroke="#263238" stroke-width="1.14333" stroke-linecap="round" stroke-linejoin="round"/>
<path d="M503.11 395.364C503.11 395.364 498.108 401.89 493.124 404.479C485.636 408.742 479.291 414.773 474.637 422.052C468.638 431.167 461.153 439.133 465.575 442.651C468.162 444.738 471.327 445.967 474.637 446.169C474.637 446.169 477.628 453.206 481.633 453.698C483.622 453.982 485.625 454.152 487.632 454.209C487.632 454.209 491.112 457.727 493.069 457.727H498.162C498.162 457.727 500.156 460.243 504.651 457.727C509.146 455.211 513.713 440.136 515.145 435.122C516.577 430.109 516.649 419.536 516.649 419.536L523.645 409.492L507.659 393.414L503.11 395.364Z" fill="white"/>
<mask id="mask6_3_39776" style="mask-type:luminance" maskUnits="userSpaceOnUse" x="464" y="393" width="60" height="66">
<path d="M503.116 395.367C503.116 395.367 498.114 401.893 493.13 404.481C485.642 408.744 479.297 414.775 474.643 422.054C468.644 431.169 461.159 439.135 465.581 442.654C468.167 444.74 471.333 445.969 474.643 446.172C474.643 446.172 477.633 453.208 481.639 453.701C483.628 453.984 485.63 454.154 487.638 454.211C487.638 454.211 491.118 457.729 493.075 457.729H498.168C498.168 457.729 500.162 460.245 504.657 457.729C509.152 455.214 513.719 440.138 515.151 435.125C516.582 430.112 516.655 419.539 516.655 419.539L523.651 409.494L507.665 393.416L503.116 395.367Z" fill="white"/>
</mask>
<g mask="url(#mask6_3_39776)">
<path d="M503.116 395.366C501.894 396.908 500.581 398.376 499.183 399.759L506.324 416.33C506.324 416.33 500.887 442.944 496.99 450.291C495.413 453.299 492.133 454.447 488.798 455.195C489.982 456.41 491.484 457.263 493.13 457.656H498.168C498.168 457.656 500.162 460.171 504.657 457.656C509.151 455.14 513.719 440.064 515.151 435.051C516.582 430.038 516.655 419.465 516.655 419.465L523.651 409.421L507.665 393.342L503.116 395.366Z" fill="#144C96"/>
<path opacity="0.5" d="M503.116 395.366C501.894 396.908 500.581 398.376 499.183 399.759L506.324 416.33C506.324 416.33 500.887 442.944 496.99 450.291C495.413 453.299 492.133 454.447 488.798 455.195C489.982 456.41 491.484 457.263 493.13 457.656H498.168C498.168 457.656 500.162 460.171 504.657 457.656C509.151 455.14 513.719 440.064 515.151 435.051C516.582 430.038 516.655 419.465 516.655 419.465L523.651 409.421L507.665 393.342L503.116 395.366Z" fill="white"/>
</g>
<path d="M503.11 395.364C503.11 395.364 498.108 401.89 493.124 404.479C485.636 408.742 479.291 414.773 474.637 422.052C468.638 431.167 461.153 439.133 465.575 442.651C468.162 444.738 471.327 445.967 474.637 446.169C474.637 446.169 477.628 453.206 481.633 453.698C483.622 453.982 485.625 454.152 487.632 454.209C487.632 454.209 491.112 457.727 493.069 457.727H498.162C498.162 457.727 500.156 460.243 504.651 457.727C509.146 455.211 513.713 440.136 515.145 435.122C516.577 430.109 516.649 419.536 516.649 419.536L523.645 409.492L507.659 393.414L503.11 395.364Z" stroke="#263238" stroke-width="1.14333" stroke-linecap="round" stroke-linejoin="round"/>
<path d="M522.589 365.211C522.589 365.211 581.511 396.365 585.009 398.371C588.507 400.376 590.011 406.41 589.014 412.954C588.017 419.499 594.995 444.108 587.51 444.108C580.025 444.108 547.546 434.064 528.57 423.509C509.594 412.954 500.097 397.386 500.097 395.381C500.097 393.376 522.589 365.211 522.589 365.211Z" fill="#263238" stroke="#263238" stroke-width="1.14333" stroke-linecap="round" stroke-linejoin="round"/>
<path d="M469.164 122.088L483.572 107.504C491.275 99.7566 477.755 84.7173 472.861 79.1574C461.383 66.2602 446.851 56.4904 430.613 50.756C420.772 47.2195 399.385 40.511 393.966 53.8732L384.36 77.462C384.36 77.462 410.495 75.3292 432.897 87.1236C455.299 98.918 469.164 122.088 469.164 122.088Z" fill="white"/>
<mask id="mask7_3_39776" style="mask-type:luminance" maskUnits="userSpaceOnUse" x="384" y="45" width="102" height="78">
<path d="M469.168 122.085L483.576 107.502C491.279 99.7542 477.758 84.7149 472.865 79.1549C461.387 66.2578 446.855 56.488 430.617 50.7535C420.776 47.217 399.389 40.5086 393.97 53.8707L384.364 77.4596C384.364 77.4596 410.499 75.3267 432.901 87.1212C455.303 98.9156 469.168 122.085 469.168 122.085Z" fill="white"/>
</mask>
<g mask="url(#mask7_3_39776)">
<path d="M430.596 50.8506C422.24 47.8427 405.53 42.5927 397.374 49.2828C403.953 49.1006 414.338 50.9782 429.998 58.8715C462.766 75.278 463.509 80.5827 461.262 88.8224C460.338 92.2496 456.078 96.6975 451.402 100.726C458.179 107.081 464.145 114.258 469.164 122.091L483.573 107.508C491.276 99.7601 477.755 84.7208 472.861 79.1608C461.368 66.2944 446.83 56.5564 430.596 50.8506Z" fill="#144C96"/>
<path opacity="0.5" d="M430.596 50.8506C422.24 47.8427 405.53 42.5927 397.374 49.2828C403.953 49.1006 414.338 50.9782 429.998 58.8715C462.766 75.278 463.509 80.5827 461.262 88.8224C460.338 92.2496 456.078 96.6975 451.402 100.726C458.179 107.081 464.145 114.258 469.164 122.091L483.573 107.508C491.276 99.7601 477.755 84.7208 472.861 79.1608C461.368 66.2944 446.83 56.5564 430.596 50.8506Z" fill="white"/>
</g>
<path d="M469.164 122.088L483.572 107.504C491.275 99.7566 477.755 84.7173 472.861 79.1574C461.383 66.2602 446.851 56.4904 430.613 50.756C420.772 47.2195 399.385 40.511 393.966 53.8732L384.36 77.462C384.36 77.462 410.495 75.3292 432.897 87.1236C455.299 98.918 469.164 122.088 469.164 122.088Z" stroke="#263238" stroke-width="1.14333" stroke-linecap="round" stroke-linejoin="round"/>
<path d="M453.685 130.145C453.685 130.145 470.214 116.728 475.017 124.767C479.82 132.807 468.619 144.091 460.083 144.091C451.546 144.091 447.287 140.864 447.287 140.864" fill="white"/>
<mask id="mask8_3_39776" style="mask-type:luminance" maskUnits="userSpaceOnUse" x="447" y="122" width="30" height="23">
<path d="M453.685 130.142C453.685 130.142 470.214 116.725 475.017 124.764C479.82 132.803 468.619 144.087 460.083 144.087C451.546 144.087 447.287 140.861 447.287 140.861" fill="white"/>
</mask>
<g mask="url(#mask8_3_39776)">
<path d="M453.685 130.142C453.685 130.142 470.214 116.725 475.017 124.764C479.82 132.803 468.619 144.087 460.083 144.087C451.546 144.087 447.287 140.861 447.287 140.861" fill="#144C96"/>
<path opacity="0.5" d="M453.685 130.142C453.685 130.142 470.214 116.725 475.017 124.764C479.82 132.803 468.619 144.087 460.083 144.087C451.546 144.087 447.287 140.861 447.287 140.861" fill="white"/>
</g>
<path d="M453.685 130.145C453.685 130.145 470.214 116.728 475.017 124.767C479.82 132.807 468.619 144.091 460.083 144.091C451.546 144.091 447.287 140.864 447.287 140.864" stroke="#263238" stroke-width="1.14333" stroke-linecap="round" stroke-linejoin="round"/>
<path d="M62.1074 612.869H646.85" stroke="#263238" stroke-width="1.14333" stroke-linecap="round" stroke-linejoin="round"/>
<path d="M350.776 434.57H174.264V628.495C174.264 640.162 213.938 649.623 262.891 649.623C311.845 649.623 351.519 640.162 351.519 628.495L350.776 434.57Z" fill="white"/>
<mask id="mask9_3_39776" style="mask-type:luminance" maskUnits="userSpaceOnUse" x="174" y="434" width="178" height="216">
<path d="M350.77 434.57H174.258V628.495C174.258 640.162 213.932 649.623 262.885 649.623C311.839 649.623 351.513 640.162 351.513 628.495L350.77 434.57Z" fill="white"/>
</mask>
<g mask="url(#mask9_3_39776)">
<path opacity="0.42" d="M350.77 434.57H174.258V628.495C174.258 640.162 213.932 649.623 262.885 649.623C311.839 649.623 351.513 640.162 351.513 628.495L350.77 434.57Z" fill="black"/>
<path d="M216.233 434.57V646.451C229.722 648.362 243.319 649.403 256.94 649.568V434.57H216.233Z" fill="#263238"/>
<path d="M272.219 434.57V649.495C276.55 649.495 280.81 649.222 284.906 648.966V434.57H272.219Z" fill="#263238"/>
<path d="M291.303 434.57V648.511C295.713 648.146 299.942 647.708 303.99 647.198V434.57H291.303Z" fill="white"/>
</g>
<path d="M350.776 434.57H174.264V628.495C174.264 640.162 213.938 649.623 262.891 649.623C311.845 649.623 351.519 640.162 351.519 628.495L350.776 434.57Z" stroke="#263238" stroke-width="1.14333" stroke-linecap="round" stroke-linejoin="round"/>
<path d="M262.888 403.596C240.088 403.596 216.817 405.09 194.56 410.413C182.127 413.403 159.471 419.71 164.746 437.758C167.102 445.815 176.363 448.914 183.432 451.466C192.175 454.295 201.161 456.296 210.274 457.445C227.671 460.066 245.243 461.328 262.834 461.219C285.652 461.219 308.942 459.724 331.199 454.383C340.261 452.232 351.48 449.898 357.823 442.479C359.214 440.916 360.274 439.084 360.939 437.096C361.604 435.107 361.859 433.004 361.689 430.913C361.52 428.822 360.929 426.788 359.953 424.934C358.976 423.08 357.635 421.446 356.011 420.13C348.507 414.406 338.086 411.999 329.096 409.976C314.737 406.897 300.154 404.995 285.489 404.288C277.986 403.827 270.452 403.596 262.888 403.596Z" fill="white"/>
<mask id="mask10_3_39776" style="mask-type:luminance" maskUnits="userSpaceOnUse" x="163" y="403" width="199" height="59">
<path d="M262.885 403.591C240.085 403.591 216.814 405.086 194.557 410.409C182.124 413.399 159.468 419.706 164.743 437.753C167.099 445.811 176.36 448.91 183.429 451.462C192.172 454.29 201.158 456.292 210.271 457.441C227.668 460.061 245.24 461.323 262.831 461.214C285.649 461.214 308.939 459.72 331.196 454.378C340.258 452.227 351.477 449.894 357.82 442.475C359.211 440.911 360.271 439.08 360.936 437.091C361.601 435.103 361.856 432.999 361.686 430.908C361.517 428.818 360.926 426.783 359.95 424.93C358.973 423.076 357.632 421.441 356.008 420.125C348.504 414.401 338.083 411.995 329.093 409.972C314.734 406.893 300.151 404.99 285.486 404.284C277.983 403.822 270.449 403.591 262.885 403.591Z" fill="white"/>
</mask>
<g mask="url(#mask10_3_39776)">
<path opacity="0.42" d="M262.885 403.591C240.085 403.591 216.814 405.086 194.557 410.409C182.124 413.399 159.468 419.706 164.743 437.753C167.099 445.811 176.36 448.91 183.429 451.462C192.172 454.29 201.158 456.292 210.271 457.441C227.668 460.061 245.24 461.323 262.831 461.214C285.649 461.214 308.939 459.72 331.196 454.378C340.258 452.227 351.477 449.894 357.82 442.475C359.211 440.911 360.271 439.08 360.936 437.091C361.601 435.103 361.856 432.999 361.686 430.908C361.517 428.818 360.926 426.783 359.95 424.93C358.973 423.076 357.632 421.441 356.008 420.125C348.504 414.401 338.083 411.995 329.093 409.972C314.734 406.893 300.151 404.99 285.486 404.284C277.983 403.822 270.449 403.591 262.885 403.591Z" fill="black"/>
</g>
<path d="M262.888 403.596C240.088 403.596 216.817 405.09 194.56 410.413C182.127 413.403 159.471 419.71 164.746 437.758C167.102 445.815 176.363 448.914 183.432 451.466C192.175 454.295 201.161 456.296 210.274 457.445C227.671 460.066 245.243 461.328 262.834 461.219C285.652 461.219 308.942 459.724 331.199 454.383C340.261 452.232 351.48 449.898 357.823 442.479C359.214 440.916 360.274 439.084 360.939 437.096C361.604 435.107 361.859 433.004 361.689 430.913C361.52 428.822 360.929 426.788 359.953 424.934C358.976 423.08 357.635 421.446 356.011 420.13C348.507 414.406 338.086 411.999 329.096 409.976C314.737 406.897 300.154 404.995 285.489 404.288C277.986 403.827 270.452 403.596 262.888 403.596Z" stroke="#263238" stroke-width="1.14333" stroke-linecap="round" stroke-linejoin="round"/>
<path d="M262.887 446.729C311.784 446.729 351.423 438.249 351.423 427.789C351.423 417.329 311.784 408.849 262.887 408.849C213.989 408.849 174.35 417.329 174.35 427.789C174.35 438.249 213.989 446.729 262.887 446.729Z" fill="white"/>
<mask id="mask11_3_39776" style="mask-type:luminance" maskUnits="userSpaceOnUse" x="174" y="408" width="178" height="39">
<path d="M262.883 446.727C311.78 446.727 351.42 438.247 351.42 427.787C351.42 417.326 311.78 408.846 262.883 408.846C213.985 408.846 174.346 417.326 174.346 427.787C174.346 438.247 213.985 446.727 262.883 446.727Z" fill="white"/>
</mask>
<g mask="url(#mask11_3_39776)">
<path opacity="0.65" d="M262.883 446.727C311.78 446.727 351.42 438.247 351.42 427.787C351.42 417.326 311.78 408.846 262.883 408.846C213.985 408.846 174.346 417.326 174.346 427.787C174.346 438.247 213.985 446.727 262.883 446.727Z" fill="black"/>
</g>
<path d="M262.887 446.729C311.784 446.729 351.423 438.249 351.423 427.789C351.423 417.329 311.784 408.849 262.887 408.849C213.989 408.849 174.35 417.329 174.35 427.789C174.35 438.249 213.989 446.729 262.887 446.729Z" stroke="#263238" stroke-width="1.14333" stroke-linecap="round" stroke-linejoin="round"/>
<path d="M176.414 487.324C176.414 487.324 163.437 465.211 167.352 458.157C171.267 451.102 188.829 457.664 193.832 464.19C198.834 470.717 203.329 488.818 200.828 489.311C198.327 489.803 194.339 490.313 193.324 486.813C192.309 483.313 187.343 468.219 184.262 466.196C181.181 464.172 174.276 460.18 174.276 464.701C174.276 469.222 181.779 484.753 180.764 487.305C179.749 489.857 179.423 490.331 176.414 487.324Z" fill="#263238"/>
<path d="M518.837 476.881H377.051V632.651C377.051 642.021 408.931 649.623 448.243 649.623C487.554 649.623 519.435 642.021 519.435 632.651L518.837 476.881Z" fill="white"/>
<mask id="mask12_3_39776" style="mask-type:luminance" maskUnits="userSpaceOnUse" x="377" y="476" width="143" height="174">
<path d="M518.845 476.88H377.059V632.65C377.059 642.02 408.939 649.622 448.251 649.622C487.562 649.622 519.443 642.02 519.443 632.65L518.845 476.88Z" fill="white"/>
</mask>
<g mask="url(#mask12_3_39776)">
<path opacity="0.42" d="M518.845 476.88H377.059V632.65C377.059 642.02 408.939 649.622 448.251 649.622C487.562 649.622 519.443 642.02 519.443 632.65L518.845 476.88Z" fill="black"/>
</g>
<path d="M518.837 476.881H377.051V632.651C377.051 642.021 408.931 649.623 448.243 649.623C487.554 649.623 519.435 642.021 519.435 632.651L518.837 476.881Z" stroke="#263238" stroke-width="1.14333" stroke-linecap="round" stroke-linejoin="round"/>
<path d="M410.78 476.881V647.071C421.591 648.604 432.487 649.444 443.404 649.586V476.881H410.78Z" fill="#263238"/>
<path d="M455.727 476.881V649.532C459.231 649.434 462.638 649.289 465.949 649.094V476.881H455.727Z" fill="#263238"/>
<path d="M471.061 476.881V648.729C474.595 648.438 478.02 648.091 481.283 647.69V476.881H471.061Z" fill="white"/>
<path d="M448.244 452.014C429.92 452.014 411.234 453.217 393.364 457.482C383.359 459.871 365.18 464.938 369.421 479.358C371.234 485.829 378.737 488.308 384.428 490.295C391.44 492.635 398.655 494.308 405.978 495.29C419.968 497.391 434.099 498.403 448.244 498.316C466.567 498.316 485.272 497.113 503.16 492.848C510.41 491.116 519.472 489.202 524.547 483.277C525.662 482.02 526.511 480.547 527.044 478.949C527.576 477.352 527.779 475.662 527.642 473.982C527.504 472.303 527.029 470.669 526.245 469.18C525.46 467.691 524.383 466.378 523.079 465.321C517.062 460.746 508.67 458.813 501.475 457.173C489.938 454.701 478.222 453.171 466.441 452.597C460.387 452.208 454.321 452.014 448.244 452.014Z" fill="white"/>
<mask id="mask13_3_39776" style="mask-type:luminance" maskUnits="userSpaceOnUse" x="368" y="452" width="160" height="47">
<path d="M448.244 452.007C429.92 452.007 411.234 453.21 393.364 457.476C383.359 459.864 365.18 464.931 369.421 479.351C371.234 485.822 378.737 488.302 384.428 490.289C391.44 492.629 398.655 494.301 405.978 495.283C419.968 497.385 434.099 498.396 448.244 498.31C466.567 498.31 485.272 497.106 503.16 492.841C510.41 491.109 519.472 489.195 524.547 483.27C525.662 482.013 526.511 480.54 527.044 478.943C527.576 477.345 527.779 475.655 527.642 473.976C527.504 472.296 527.029 470.662 526.245 469.174C525.46 467.685 524.383 466.372 523.079 465.314C517.062 460.739 508.67 458.806 501.475 457.166C489.938 454.695 478.222 453.164 466.441 452.59C460.387 452.201 454.321 452.007 448.244 452.007Z" fill="white"/>
</mask>
<g mask="url(#mask13_3_39776)">
<path opacity="0.42" d="M448.244 452.007C429.92 452.007 411.234 453.21 393.364 457.476C383.359 459.864 365.18 464.931 369.421 479.351C371.234 485.822 378.737 488.302 384.428 490.289C391.44 492.629 398.655 494.301 405.978 495.283C419.968 497.385 434.099 498.396 448.244 498.31C466.567 498.31 485.272 497.106 503.16 492.841C510.41 491.109 519.472 489.195 524.547 483.27C525.662 482.013 526.511 480.54 527.044 478.943C527.576 477.345 527.779 475.655 527.642 473.976C527.504 472.296 527.029 470.662 526.245 469.174C525.46 467.685 524.383 466.372 523.079 465.314C517.062 460.739 508.67 458.806 501.475 457.166C489.938 454.695 478.222 453.164 466.441 452.59C460.387 452.201 454.321 452.007 448.244 452.007Z" fill="black"/>
</g>
<path d="M448.244 452.014C429.92 452.014 411.234 453.217 393.364 457.482C383.359 459.871 365.18 464.938 369.421 479.358C371.234 485.829 378.737 488.308 384.428 490.295C391.44 492.635 398.655 494.308 405.978 495.29C419.968 497.391 434.099 498.403 448.244 498.316C466.567 498.316 485.272 497.113 503.16 492.848C510.41 491.116 519.472 489.202 524.547 483.277C525.662 482.02 526.511 480.547 527.043 478.949C527.576 477.352 527.779 475.662 527.642 473.982C527.504 472.303 527.029 470.669 526.245 469.18C525.46 467.691 524.383 466.378 523.079 465.321C517.062 460.746 508.67 458.813 501.475 457.173C489.938 454.701 478.222 453.171 466.441 452.597C460.387 452.208 454.321 452.014 448.244 452.014Z" stroke="#263238" stroke-width="1.14333" stroke-linecap="round" stroke-linejoin="round"/>
<path d="M448.243 486.668C487.521 486.668 519.362 479.853 519.362 471.447C519.362 463.04 487.521 456.225 448.243 456.225C408.964 456.225 377.123 463.04 377.123 471.447C377.123 479.853 408.964 486.668 448.243 486.668Z" fill="white"/>
<mask id="mask14_3_39776" style="mask-type:luminance" maskUnits="userSpaceOnUse" x="377" y="456" width="143" height="31">
<path d="M448.24 486.665C487.518 486.665 519.359 479.85 519.359 471.443C519.359 463.037 487.518 456.222 448.24 456.222C408.961 456.222 377.12 463.037 377.12 471.443C377.12 479.85 408.961 486.665 448.24 486.665Z" fill="white"/>
</mask>
<g mask="url(#mask14_3_39776)">
<path opacity="0.65" d="M448.24 486.665C487.518 486.665 519.359 479.85 519.359 471.443C519.359 463.037 487.518 456.222 448.24 456.222C408.961 456.222 377.12 463.037 377.12 471.443C377.12 479.85 408.961 486.665 448.24 486.665Z" fill="black"/>
</g>
<path d="M448.243 486.668C487.521 486.668 519.362 479.853 519.362 471.447C519.362 463.04 487.521 456.225 448.243 456.225C408.964 456.225 377.123 463.04 377.123 471.447C377.123 479.853 408.964 486.668 448.243 486.668Z" stroke="#263238" stroke-width="1.14333" stroke-linecap="round" stroke-linejoin="round"/>
<path d="M378.791 519.264C378.791 519.264 368.352 501.508 371.542 495.857C374.732 490.206 388.796 495.456 392.82 500.688C396.843 505.92 400.432 520.467 398.438 520.868C396.444 521.269 393.218 521.688 392.421 518.863C391.623 516.037 387.6 503.933 385.171 502.311C382.742 500.688 377.142 497.462 377.142 501.107C377.142 504.753 383.177 517.24 382.362 519.337C381.546 521.433 381.202 521.688 378.791 519.264Z" fill="#263238"/>
<path d="M216.693 345.648C216.693 356.95 226.861 356.95 226.861 368.234C226.861 379.518 216.693 379.518 216.693 390.82C216.693 402.123 226.861 402.104 226.861 413.407C226.861 424.709 216.693 424.709 216.693 435.993" stroke="#263238" stroke-width="1.14333" stroke-linecap="round" stroke-linejoin="round"/>
<path d="M226.854 323.078C226.854 330.187 222.813 332.812 219.822 336.622" stroke="#263238" stroke-width="1.14333" stroke-linecap="round" stroke-linejoin="round"/>
<path d="M263.994 344.79C263.994 353.905 253.826 353.905 253.826 363.019C253.826 372.134 263.994 372.134 263.994 381.249C263.994 390.364 253.826 390.364 253.826 399.478C253.826 408.593 263.994 408.593 263.994 417.708C263.994 426.822 253.826 426.822 253.826 435.937" stroke="#263238" stroke-width="1.14333" stroke-linecap="round" stroke-linejoin="round"/>
<path d="M301.131 323.078C301.131 334.362 290.963 334.362 290.963 345.646C290.963 356.93 301.131 356.948 301.131 368.232C301.131 379.516 290.963 379.516 290.963 390.818C290.963 402.12 301.131 402.102 301.131 413.404C301.131 424.707 290.963 424.707 290.963 435.991" stroke="#263238" stroke-width="1.14333" stroke-linecap="round" stroke-linejoin="round"/>
<path d="M420.932 416.337C421.761 417.894 422.173 419.64 422.128 421.405C422.128 429.9 414.462 429.9 414.462 438.413C414.462 446.926 422.128 446.926 422.128 455.439C422.128 463.953 414.462 463.971 414.462 472.484" stroke="#263238" stroke-width="1.14333" stroke-linecap="round" stroke-linejoin="round"/>
<path d="M450.128 403.725C450.128 410.598 442.462 410.598 442.462 417.47C442.462 424.343 450.128 424.343 450.128 431.215C450.128 438.088 442.462 438.088 442.462 444.978C442.462 451.869 450.128 451.851 450.128 458.723C450.128 465.596 442.462 465.596 442.462 472.486" stroke="#263238" stroke-width="1.14333" stroke-linecap="round" stroke-linejoin="round"/>
<path d="M474.597 429.663C472.604 431.887 470.52 434.002 470.52 438.431C470.52 446.945 478.186 446.945 478.186 455.458C478.186 463.971 470.52 463.989 470.52 472.502" stroke="#263238" stroke-width="1.14333" stroke-linecap="round" stroke-linejoin="round"/>
</svg>
