<svg width="282" height="303" viewBox="0 0 282 303" fill="none" xmlns="http://www.w3.org/2000/svg">
<path d="M75.5171 231.825H47.8253C42.6098 231.825 38.3818 236.053 38.3818 241.269V268.96C38.3818 274.176 42.6098 278.404 47.8253 278.404H75.5171C80.7326 278.404 84.9606 274.176 84.9606 268.96V241.269C84.9606 236.053 80.7326 231.825 75.5171 231.825Z" fill="#E0E0E0"/>
<path d="M51.3687 266.455C51.2337 266.458 51.0995 266.434 50.9744 266.383C50.8493 266.333 50.7359 266.257 50.6415 266.16C50.4489 265.965 50.3408 265.702 50.3408 265.428C50.3408 265.154 50.4489 264.891 50.6415 264.696L56.174 259.154C54.7309 257.33 54.0043 255.042 54.131 252.72C54.2577 250.398 55.2289 248.202 56.8618 246.546C58.1541 245.255 59.7926 244.365 61.5796 243.984C63.3665 243.603 65.2254 243.748 66.9319 244.401C68.6384 245.054 70.1194 246.186 71.1962 247.662C72.273 249.138 72.8995 250.894 73.0001 252.719C73.1007 254.543 72.671 256.357 71.763 257.943C70.8549 259.528 69.5074 260.817 67.883 261.653C66.2586 262.489 64.4269 262.838 62.6089 262.656C60.791 262.474 59.0646 261.769 57.6381 260.628L52.0958 266.16C52.0014 266.257 51.8881 266.333 51.763 266.383C51.6378 266.434 51.5036 266.458 51.3687 266.455ZM63.5538 245.819C61.8366 245.815 60.1711 246.407 58.8415 247.494C57.5118 248.58 56.6004 250.095 56.2626 251.779C55.9248 253.462 56.1815 255.211 56.989 256.727C57.7965 258.242 59.1047 259.431 60.6906 260.09C62.2765 260.748 64.0418 260.837 65.6855 260.339C67.3292 259.842 68.7494 258.79 69.704 257.362C70.6587 255.935 71.0885 254.22 70.9203 252.511C70.7521 250.802 69.9963 249.205 68.7817 247.991C68.0954 247.305 67.2802 246.761 66.3829 246.392C65.4857 246.022 64.5241 245.834 63.5538 245.839V245.819Z" fill="white"/>
<path d="M267.478 27.0474H243.678C238.044 27.0474 233.478 31.6141 233.478 37.2475V61.0479C233.478 66.6813 238.044 71.2481 243.678 71.2481H267.478C273.111 71.2481 277.678 66.6813 277.678 61.0479V37.2475C277.678 31.6141 273.111 27.0474 267.478 27.0474Z" fill="#E0E0E0"/>
<path d="M257.391 56.8017C257.391 57.1714 257.282 57.5327 257.076 57.84C256.87 58.1472 256.578 58.3865 256.237 58.5276C255.895 58.6686 255.519 58.705 255.156 58.6321C254.794 58.5593 254.461 58.3805 254.201 58.1184C253.94 57.8563 253.763 57.5227 253.692 57.1599C253.621 56.797 253.659 56.4213 253.802 56.0803C253.945 55.7394 254.186 55.4484 254.494 55.2445C254.803 55.0405 255.164 54.9327 255.534 54.9346C256.028 54.9372 256.5 55.135 256.848 55.4849C257.196 55.8348 257.391 56.3082 257.391 56.8017Z" fill="white"/>
<path d="M251.764 54.4042C252.241 53.8934 252.816 53.4843 253.455 53.2016C254.094 52.9189 254.783 52.7684 255.482 52.7592C256.181 52.7501 256.874 52.8824 257.52 53.1482C258.166 53.414 258.752 53.8078 259.242 54.306C259.438 54.5027 259.703 54.6138 259.981 54.6147C260.258 54.6156 260.524 54.5063 260.721 54.3109C260.918 54.1154 261.029 53.8498 261.03 53.5724C261.031 53.2951 260.921 53.0287 260.726 52.832C260.041 52.1418 259.225 51.5956 258.325 51.2256C257.426 50.8556 256.462 50.6693 255.489 50.6775C254.517 50.6857 253.556 50.8884 252.663 51.2736C251.77 51.6588 250.963 52.2187 250.29 52.9204C249.366 53.9031 250.84 55.3869 251.764 54.4042Z" fill="white"/>
<path d="M245.489 45.7372C248.222 43.2301 251.775 41.8048 255.483 41.7279C259.263 41.6899 262.915 43.0958 265.693 45.6586C266.676 46.5823 268.169 45.1083 267.177 44.1846C264.002 41.2411 259.822 39.6238 255.493 39.6643C251.232 39.7509 247.149 41.3857 244.005 44.2632C243.023 45.1476 244.467 46.6315 245.489 45.7569V45.7372Z" fill="white"/>
<path d="M247.985 50.5727C248.929 49.5204 250.082 48.6749 251.369 48.0894C252.656 47.504 254.051 47.1913 255.465 47.171C256.879 47.1507 258.282 47.4232 259.585 47.9715C260.889 48.5197 262.065 49.3317 263.039 50.3566C263.239 50.5341 263.498 50.6291 263.765 50.6222C264.032 50.6153 264.287 50.5071 264.477 50.3195C264.667 50.1319 264.779 49.879 264.789 49.6121C264.799 49.3452 264.708 49.0844 264.533 48.8825C263.366 47.6602 261.96 46.6908 260.402 46.0346C258.845 45.3783 257.169 45.0492 255.479 45.0676C253.789 45.0861 252.121 45.4517 250.578 46.1417C249.035 46.8318 247.651 47.8316 246.511 49.0791C245.597 50.0618 247.061 51.5652 247.985 50.5727Z" fill="white"/>
<path d="M53.2259 0.268066H34.8008C29.1674 0.268066 24.6006 4.83483 24.6006 10.4682V28.9032C24.6006 34.5366 29.1674 39.1034 34.8008 39.1034H53.2259C58.8593 39.1034 63.4261 34.5366 63.4261 28.9032V10.4682C63.4261 4.83483 58.8593 0.268066 53.2259 0.268066Z" fill="white"/>
<path d="M53.2682 39.1042C53.2682 39.1042 53.7595 39.1042 54.6537 38.9371C55.9754 38.7588 57.2445 38.3034 58.3781 37.6007C60.1921 36.5245 61.6221 34.9054 62.466 32.9723C62.9809 31.7718 63.2643 30.4849 63.3013 29.1792C63.3013 27.7838 63.3013 26.2999 63.3013 24.7375C63.3013 21.6224 63.3013 18.2125 63.3013 14.5471C63.3013 13.6332 63.3013 12.6997 63.3013 11.7465C63.3114 10.7958 63.2423 9.84585 63.0949 8.90657C62.9525 7.94978 62.6607 7.0213 62.2301 6.15508C61.804 5.25217 61.2368 4.42289 60.5498 3.69839C59.1296 2.19414 57.28 1.16465 55.2532 0.750365C54.1938 0.584671 53.1213 0.518869 52.0496 0.55383H34.8135C32.5364 0.554191 30.328 1.33451 28.5562 2.76488C26.7843 4.19525 25.5558 6.18936 25.0752 8.41523C24.8866 9.4952 24.8108 10.5919 24.8492 11.6875V14.95C24.8492 17.1119 24.8492 19.2247 24.8492 21.2883C24.8492 23.3519 24.8492 25.3566 24.8492 27.3121C24.8205 28.2627 24.8468 29.2142 24.9278 30.1618C25.0442 31.0654 25.2753 31.9504 25.6157 32.7954C26.266 34.3363 27.2904 35.6905 28.5962 36.7355C29.902 37.7805 31.4479 38.4832 33.0938 38.7799C34.5551 38.9446 36.0264 39.0037 37.4962 38.9568H41.4269H47.775H51.7941H52.8358C52.9533 38.9439 53.072 38.9439 53.1895 38.9568H52.8358H51.7941L47.775 39.0059H41.4269H37.4962C36.0075 39.0717 34.516 39.0224 33.0349 38.8585C31.3122 38.5714 29.6894 37.8557 28.3157 36.7773C26.942 35.699 25.8615 34.2925 25.1735 32.6873C24.8054 31.8074 24.5575 30.8819 24.4365 29.9358C24.3479 28.9558 24.3151 27.9715 24.3382 26.9878C24.3382 25.0224 24.3382 23.0571 24.3382 20.964C24.3382 18.8709 24.3382 16.7876 24.3382 14.6257V11.6679C24.2923 10.5395 24.368 9.40946 24.5642 8.29731C25.0619 5.95337 26.3496 3.8515 28.2118 2.3435C30.074 0.835506 32.3977 0.0128983 34.7939 0.0133591H52.0103C53.1155 -0.032545 54.2224 0.0399315 55.3121 0.229549C57.4417 0.67553 59.3792 1.77478 60.8544 3.37411C61.5697 4.13096 62.1601 4.99668 62.6036 5.93889C63.0516 6.84893 63.3534 7.82392 63.4978 8.82796C63.6278 9.8049 63.6738 10.7912 63.6354 11.776C63.6354 12.7587 63.6354 13.6627 63.6354 14.5766C63.6354 18.242 63.6354 21.6519 63.6354 24.7669C63.6354 26.3294 63.6354 27.8132 63.6354 29.2185C63.595 30.5753 63.2878 31.911 62.7313 33.1492C61.8277 35.1138 60.3242 36.7412 58.437 37.7972C57.2726 38.4824 55.9767 38.9143 54.6341 39.0649C54.1806 39.115 53.7238 39.1282 53.2682 39.1042Z" fill="#263238"/>
<path d="M45.699 19.479C46.5548 19.1046 47.2814 18.4866 47.7882 17.7019C48.295 16.9173 48.5595 16.0008 48.5488 15.0668C48.5771 14.4613 48.4824 13.8564 48.2703 13.2886C48.0581 12.7208 47.733 12.202 47.3145 11.7635C46.8961 11.325 46.3931 10.9759 45.8358 10.7374C45.2786 10.4989 44.6788 10.376 44.0727 10.376C43.4666 10.376 42.8668 10.4989 42.3095 10.7374C41.7523 10.9759 41.2493 11.325 40.8308 11.7635C40.4124 12.202 40.0873 12.7208 39.8751 13.2886C39.663 13.8564 39.5682 14.4613 39.5966 15.0668C39.5781 16.0074 39.8389 16.9324 40.3462 17.7248C40.8534 18.5172 41.5843 19.1413 42.4464 19.5183C35.5676 20.5599 35.8821 28.0381 35.8821 28.0381L52.1552 28.1167C52.1552 28.1167 52.5286 20.5108 45.699 19.479Z" fill="#455A64"/>
<path d="M52.1701 28.0986L35.8675 28.0298C35.8571 26.687 36.0971 25.354 36.575 24.0991C36.9951 22.9956 37.6683 22.0061 38.5404 21.2101C39.6244 20.259 40.9639 19.6474 42.3925 19.4511C41.5449 19.0645 40.8295 18.4374 40.3351 17.6478C39.8407 16.8582 39.5891 15.9407 39.6115 15.0094C39.6058 13.7545 40.0805 12.545 40.9381 11.629C41.3423 11.2067 41.8271 10.8699 42.3639 10.6387C42.9007 10.4074 43.4785 10.2864 44.063 10.2827C45.2942 10.3314 46.4563 10.8649 47.2957 11.7669C48.1352 12.6689 48.5839 13.8663 48.544 15.0978C48.5562 16.022 48.2999 16.9299 47.8063 17.7114C47.3127 18.4928 46.6029 19.1142 45.763 19.5002C47.1838 19.6998 48.5138 20.3152 49.5856 21.269C50.439 22.0904 51.0885 23.0999 51.4822 24.217C51.9499 25.4737 52.1766 26.8072 52.1504 28.1477L52.1701 28.0986ZM35.897 27.9709L52.1308 28.0397C52.1356 26.72 51.9095 25.4096 51.4626 24.1679C51.0712 23.0497 50.4214 22.0396 49.566 21.2199C48.4851 20.2506 47.1346 19.6336 45.6943 19.4511H45.6058H45.6844C46.5358 19.0782 47.2583 18.4627 47.7617 17.6814C48.265 16.9002 48.5269 15.9878 48.5145 15.0585C48.5597 13.8376 48.1182 12.6488 47.2872 11.7532C46.4562 10.8577 45.3035 10.3288 44.0827 10.2827C43.4952 10.285 42.9145 10.4083 42.3769 10.645C41.8392 10.8817 41.3561 11.2267 40.9578 11.6585C40.1055 12.5654 39.6342 13.7649 39.641 15.0094C39.6112 15.9472 39.863 16.8725 40.364 17.6659C40.8649 18.4593 41.5919 19.0845 42.4514 19.4609C40.9946 19.6405 39.6253 20.2533 38.5207 21.2199C37.6489 22.0084 36.9756 22.9915 36.5554 24.0893C36.1017 25.3323 35.8785 26.6477 35.897 27.9709Z" fill="#263238"/>
<path d="M57.1793 165.683H33.3789C27.7455 165.683 23.1787 170.249 23.1787 175.883V199.693C23.1787 205.326 27.7455 209.893 33.3789 209.893H57.1793C62.8127 209.893 67.3794 205.326 67.3794 199.693V175.883C67.3794 170.249 62.8127 165.683 57.1793 165.683Z" fill="white"/>
<path d="M57.1969 209.893C57.1969 209.893 57.757 209.893 58.7986 209.696C60.7605 209.365 62.5814 208.464 64.0338 207.104C65.4862 205.744 66.5056 203.987 66.9647 202.051C67.237 200.557 67.3261 199.036 67.23 197.521C67.23 195.899 67.23 194.18 67.23 192.381C67.23 188.775 67.23 184.834 67.23 180.589V177.337C67.2746 176.239 67.2154 175.14 67.0531 174.054C66.6213 171.745 65.3897 169.662 63.5747 168.17C61.7597 166.679 59.4772 165.874 57.1281 165.898H33.4456C32.1371 165.899 30.8416 166.158 29.6332 166.66C28.4247 167.162 27.327 167.897 26.4027 168.824C25.4783 169.75 24.7454 170.849 24.2458 172.058C23.7463 173.268 23.4898 174.564 23.4911 175.872C23.4911 181.061 23.4911 186.063 23.4911 190.829C23.4911 193.207 23.4911 195.536 23.4911 197.786C23.4554 198.888 23.4948 199.991 23.609 201.088C23.7428 202.136 24.0552 203.153 24.5328 204.095C25.4316 205.902 26.8523 207.398 28.6109 208.389C30.242 209.288 32.0855 209.729 33.9468 209.667L51.0159 209.755L55.6541 209.804H56.8628H57.2755C57.1383 209.819 57 209.819 56.8628 209.804H55.6541H51.0159L33.9468 209.883C32.0192 209.959 30.1072 209.51 28.4143 208.586C26.5798 207.564 25.0966 206.013 24.1593 204.134C23.6568 203.152 23.3245 202.092 23.1767 200.999C23.0587 199.883 23.0193 198.76 23.0587 197.639C23.0587 195.388 23.0587 193.059 23.0587 190.681C23.0587 185.915 23.0587 180.913 23.0587 175.725C23.0562 174.35 23.3246 172.988 23.8488 171.716C24.373 170.445 25.1426 169.289 26.1136 168.315C27.0846 167.342 28.238 166.569 29.5079 166.041C30.7778 165.513 32.1392 165.241 33.5144 165.24H57.1969C59.7161 165.233 62.1552 166.125 64.0756 167.755C65.8945 169.315 67.1225 171.452 67.5543 173.809C67.7162 174.921 67.7722 176.046 67.7213 177.169V180.402C67.7213 184.638 67.7213 188.578 67.7213 192.195C67.7213 193.993 67.7213 195.713 67.7213 197.334C67.8015 198.874 67.6926 200.419 67.397 201.933C66.7962 204.361 65.3328 206.488 63.2796 207.917C61.9921 208.809 60.5156 209.391 58.9657 209.617C58.5662 209.683 58.1617 209.712 57.757 209.706L57.1969 209.893Z" fill="#263238"/>
<path d="M47.2064 187.557C48.1783 187.129 49.003 186.425 49.5778 185.532C50.1526 184.64 50.4523 183.597 50.4394 182.536C50.4826 181.841 50.383 181.144 50.1467 180.489C49.9105 179.834 49.5425 179.234 49.0656 178.727C48.5887 178.219 48.0129 177.815 47.3737 177.538C46.7345 177.262 46.0455 177.119 45.3491 177.119C44.6527 177.119 43.9637 177.262 43.3245 177.538C42.6853 177.815 42.1095 178.219 41.6326 178.727C41.1557 179.234 40.7878 179.834 40.5515 180.489C40.3153 181.144 40.2156 181.841 40.2589 182.536C40.2357 183.607 40.5317 184.661 41.1091 185.564C41.6865 186.467 42.5193 187.178 43.5017 187.606C35.6403 188.785 36.0235 197.305 36.0235 197.305L54.547 197.394C54.547 197.394 54.9695 188.736 47.2064 187.557Z" fill="#FFC727"/>
<path d="M196.816 219.8C196.954 219.8 197.072 224.713 197.072 230.865C197.072 237.016 196.954 241.93 196.816 241.93C196.678 241.93 196.561 237.016 196.561 230.865C196.561 224.713 196.669 219.8 196.816 219.8Z" fill="#263238"/>
<path d="M193.395 265.799H168.475V290.719H193.395V265.799Z" fill="#E0E0E0"/>
<path d="M225.342 267.312H199.675V269.445H225.342V267.312Z" fill="#E0E0E0"/>
<path d="M225.342 272.235H199.675V274.367H225.342V272.235Z" fill="#E0E0E0"/>
<path d="M225.342 277.167H199.675V279.3H225.342V277.167Z" fill="#E0E0E0"/>
<path d="M225.342 282.101H199.675V284.233H225.342V282.101Z" fill="#E0E0E0"/>
<path d="M225.342 287.024H199.675V289.157H225.342V287.024Z" fill="#E0E0E0"/>
<path d="M168.745 242.373H223.047C224.885 242.373 226.647 243.102 227.946 244.402C229.245 245.701 229.975 247.463 229.975 249.3V259.039H161.915V249.212C161.925 247.403 162.648 245.671 163.926 244.391C165.204 243.11 166.936 242.385 168.745 242.373Z" fill="#E0E0E0"/>
<path d="M223.63 302.266C224.457 302.225 225.271 302.045 226.038 301.736C226.959 301.341 227.773 300.735 228.416 299.967C229.293 298.921 229.8 297.616 229.861 296.252C229.861 290.042 229.861 281.08 229.802 270.015C229.802 264.473 229.802 258.409 229.802 251.894C229.802 251.079 229.802 250.253 229.802 249.428C229.847 248.613 229.758 247.796 229.536 247.01C229.171 245.808 228.449 244.746 227.466 243.963C226.484 243.18 225.287 242.715 224.033 242.628C223.188 242.579 222.274 242.628 221.39 242.628H215.966H168.306C167.279 242.621 166.267 242.867 165.358 243.345C164.471 243.828 163.718 244.524 163.166 245.369C162.605 246.204 162.267 247.168 162.184 248.17C162.135 249.153 162.184 250.234 162.184 251.246V263.411C162.184 271.381 162.184 279.075 162.184 286.406V294.483C162.138 295.343 162.177 296.206 162.302 297.058C162.472 297.868 162.8 298.636 163.267 299.319C163.734 300.002 164.331 300.586 165.024 301.038C165.702 301.479 166.46 301.783 167.254 301.932C168.054 302.051 168.864 302.09 169.672 302.05H187.792L214.039 302.138L221.174 302.188H223.031H223.66C223.66 302.188 223.444 302.188 223.031 302.188H221.174L214.039 302.237L187.792 302.315H169.672C168.838 302.357 168.003 302.321 167.176 302.207C165.875 301.955 164.678 301.326 163.733 300.398C162.787 299.47 162.136 298.285 161.859 296.989C161.726 296.108 161.68 295.216 161.722 294.326V291.673C161.722 289.885 161.722 288.076 161.722 286.249C161.722 278.918 161.722 271.224 161.722 263.254V251.246C161.722 250.263 161.722 249.202 161.722 248.131C161.806 247.045 162.161 245.998 162.754 245.084C163.356 244.171 164.172 243.418 165.132 242.893C166.108 242.381 167.194 242.115 168.296 242.117H215.956H221.38C222.284 242.117 223.139 242.117 224.053 242.117C224.96 242.176 225.844 242.427 226.647 242.854C227.43 243.257 228.124 243.813 228.689 244.488C229.254 245.163 229.679 245.943 229.939 246.784C230.174 247.611 230.27 248.471 230.224 249.33V251.796C230.224 258.311 230.224 264.374 230.224 269.917C230.224 281.001 230.224 289.963 230.126 296.164C230.044 297.565 229.505 298.901 228.593 299.967C227.925 300.741 227.083 301.347 226.136 301.736C225.558 301.965 224.948 302.107 224.328 302.158L223.63 302.266Z" fill="#263238"/>
<path d="M199.682 242.372C199.684 242.941 199.517 243.497 199.203 243.97C198.888 244.444 198.44 244.813 197.915 245.031C197.391 245.25 196.813 245.307 196.255 245.197C195.698 245.086 195.186 244.813 194.784 244.411C194.382 244.009 194.108 243.497 193.998 242.94C193.888 242.382 193.945 241.804 194.164 241.28C194.382 240.755 194.751 240.307 195.225 239.992C195.698 239.678 196.254 239.511 196.823 239.513C197.581 239.513 198.308 239.814 198.845 240.35C199.381 240.887 199.682 241.614 199.682 242.372Z" fill="#263238"/>
<path d="M85.0599 145.451C84.8341 145.465 84.6076 145.465 84.3819 145.451L82.4165 145.5L75.243 145.578L51.5703 145.657H48.1506C47.58 145.676 47.0087 145.656 46.4408 145.598C45.8732 145.518 45.3204 145.356 44.7997 145.117C43.8204 144.649 42.9514 143.979 42.2501 143.15C41.5488 142.322 41.0312 141.354 40.7314 140.311C40.4437 139.355 40.3013 138.361 40.3089 137.363C40.3089 136.381 40.3089 135.496 40.3089 134.602C40.3089 132.833 40.3089 131.172 40.3777 129.688C40.3777 126.74 40.4759 124.274 40.5054 122.515C40.5054 121.709 40.5251 121.054 40.5644 120.55C40.5578 120.322 40.5776 120.095 40.6233 119.872C40.6449 120.097 40.6449 120.324 40.6233 120.55C40.6233 121.041 40.6233 121.696 40.6233 122.515C40.6233 124.274 40.6233 126.711 40.6233 129.688C40.6233 131.212 40.6233 132.872 40.6233 134.651C40.6233 136.43 40.417 138.366 41.0459 140.223C41.333 141.196 41.8205 142.098 42.4771 142.872C43.1338 143.645 43.945 144.272 44.8587 144.714C45.3411 144.926 45.8502 145.071 46.372 145.146C46.9172 145.201 47.4653 145.221 48.0131 145.205H51.4328L75.1054 145.274L82.2789 145.352L84.2443 145.401C84.5171 145.382 84.7914 145.398 85.0599 145.451Z" fill="#263238"/>
<path d="M49.8657 55.2817H10.372C4.73865 55.2817 0.171875 59.8485 0.171875 65.4819V104.976C0.171875 110.609 4.73865 115.176 10.372 115.176H49.8657C55.4991 115.176 60.0659 110.609 60.0659 104.976V65.4819C60.0659 59.8485 55.4991 55.2817 49.8657 55.2817Z" fill="white"/>
<path d="M49.8506 115.165C50.5962 115.107 51.3378 115.005 52.0715 114.86C54.1709 114.369 56.06 113.223 57.4664 111.588C58.4837 110.421 59.211 109.031 59.5889 107.53C59.9294 105.716 60.0351 103.867 59.9034 102.027C59.9034 98.0371 59.9034 93.4873 59.9034 88.4756C59.9034 83.464 59.9034 77.9512 59.9034 72.0453V67.5348C59.9897 66.0069 59.8774 64.4742 59.5693 62.9752C59.1671 61.4404 58.4045 60.0236 57.3448 58.8427C56.2852 57.6617 54.9591 56.7506 53.4767 56.1849C52.717 55.8841 51.9206 55.6858 51.1085 55.5953C50.2752 55.5242 49.4387 55.4979 48.6026 55.5167H10.3668C8.50459 55.5296 6.68329 56.0641 5.10945 57.0595C4.32489 57.5419 3.61621 58.138 3.00652 58.8283C2.38683 59.4983 1.8702 60.2567 1.47355 61.0787C1.0688 61.8932 0.777827 62.7595 0.608794 63.6533C0.465512 64.5465 0.4063 65.4513 0.43192 66.3556V71.8291C0.43192 79.0518 0.43192 86.0288 0.43192 92.6716C0.43192 95.9931 0.43192 99.2261 0.43192 102.371C0.362318 103.906 0.428081 105.445 0.628452 106.97C0.932929 108.411 1.54648 109.769 2.42675 110.949C3.26633 112.067 4.33223 112.994 5.5548 113.672C6.77737 114.349 8.1291 114.761 9.52166 114.88C12.224 114.978 14.8772 114.88 17.3831 114.949L41.1736 115.028L47.6396 115.077L41.1736 115.126L17.3831 115.214C14.8674 115.214 12.2535 115.263 9.52166 115.214C8.0694 115.091 6.65973 114.662 5.38585 113.954C4.11198 113.246 3.0029 112.275 2.13194 111.107C1.20343 109.878 0.559043 108.458 0.245209 106.95C0.0257403 105.401 -0.0466465 103.835 0.0290194 102.272C0.0290194 99.1278 0.0290194 95.8948 0.0290194 92.5734C0.0290194 85.9305 0.0290194 78.9535 0.0290194 71.7308V66.2573C-0.00425106 65.3203 0.0549891 64.3822 0.205894 63.4567C0.385089 62.5196 0.689151 61.6107 1.10995 60.7544C1.53296 59.893 2.07553 59.0957 2.72155 58.3861C3.36486 57.6634 4.10962 57.0378 4.93257 56.5289C6.59758 55.4874 8.52078 54.9325 10.4847 54.9271H48.6518C49.5077 54.9078 50.364 54.9373 51.2166 55.0155C52.0647 55.117 52.8968 55.325 53.6929 55.6346C55.2444 56.2285 56.6311 57.1851 57.7372 58.4246C58.8433 59.664 59.6366 61.1502 60.0508 62.759C60.3698 64.2931 60.4822 65.8629 60.3849 67.4267V71.9372C60.3849 77.8333 60.3849 83.3362 60.3849 88.3675C60.3849 93.3988 60.3849 97.929 60.3849 101.919C60.4961 103.781 60.3706 105.65 60.0115 107.481C59.6153 109.013 58.857 110.429 57.8005 111.608C56.361 113.26 54.4222 114.399 52.2778 114.851C51.7288 114.972 51.1694 115.041 50.6073 115.057C50.0373 115.175 49.8506 115.165 49.8506 115.165Z" fill="#263238"/>
<path d="M17.2658 97.1533H9.70898V102.941H17.2658V97.1533Z" fill="#FFC727"/>
<path d="M26.8283 83.8076H19.2715V102.94H26.8283V83.8076Z" fill="#FFC727"/>
<path d="M37.341 92.0415H29.7842V102.93H37.341V92.0415Z" fill="#FFC727"/>
<path d="M47.3751 78.2573H39.8184V102.932H47.3751V78.2573Z" fill="#FFC727"/>
<path d="M12.9707 91.1879C12.2263 91.1879 11.4986 90.9672 10.8797 90.5536C10.2608 90.1401 9.77839 89.5523 9.49353 88.8646C9.20867 88.1769 9.13413 87.4201 9.27935 86.69C9.42457 85.96 9.78302 85.2893 10.3094 84.763C10.8357 84.2366 11.5064 83.8782 12.2364 83.733C12.9665 83.5877 13.7233 83.6623 14.411 83.9471C15.0987 84.232 15.6865 84.7144 16.1 85.3333C16.5136 85.9522 16.7343 86.6799 16.7343 87.4243C16.7343 88.4225 16.3378 89.3798 15.632 90.0856C14.9262 90.7914 13.9689 91.1879 12.9707 91.1879ZM12.9707 84.6531C12.4202 84.6532 11.8822 84.8165 11.4246 85.1225C10.9671 85.4285 10.6107 85.8634 10.4005 86.3722C10.1903 86.8809 10.1358 87.4406 10.2439 87.9803C10.352 88.52 10.6178 89.0155 11.0077 89.404C11.3977 89.7926 11.8941 90.0567 12.4342 90.1628C12.9743 90.269 13.5337 90.2126 14.0417 90.0006C14.5497 89.7886 14.9834 89.4306 15.2878 88.972C15.5921 88.5134 15.7536 87.9747 15.7516 87.4243C15.749 86.6884 15.4549 85.9836 14.9337 85.4642C14.4124 84.9448 13.7065 84.6531 12.9707 84.6531Z" fill="#FFC727"/>
<path d="M23.7773 76.8808C23.0329 76.8808 22.3053 76.6601 21.6863 76.2465C21.0674 75.833 20.585 75.2452 20.3002 74.5574C20.0153 73.8697 19.9408 73.113 20.086 72.3829C20.2312 71.6528 20.5897 70.9822 21.116 70.4559C21.6424 69.9295 22.313 69.5711 23.0431 69.4258C23.7731 69.2806 24.5299 69.3551 25.2176 69.64C25.9053 69.9249 26.4931 70.4073 26.9067 71.0262C27.3202 71.6451 27.541 72.3728 27.541 73.1172C27.5384 74.1145 27.141 75.0703 26.4358 75.7756C25.7305 76.4809 24.7747 76.8782 23.7773 76.8808ZM23.7773 70.3362C23.2273 70.3362 22.6896 70.4993 22.2323 70.8049C21.775 71.1104 21.4185 71.5448 21.208 72.0529C20.9976 72.5611 20.9425 73.1202 21.0498 73.6597C21.1571 74.1992 21.4219 74.6947 21.8109 75.0836C22.1998 75.4725 22.6953 75.7374 23.2348 75.8447C23.7742 75.952 24.3334 75.8969 24.8415 75.6864C25.3497 75.476 25.784 75.1195 26.0896 74.6622C26.3952 74.2049 26.5583 73.6672 26.5583 73.1172C26.5583 72.752 26.4864 72.3903 26.3466 72.0529C26.2068 71.7155 26.002 71.409 25.7438 71.1507C25.4855 70.8925 25.179 70.6876 24.8415 70.5479C24.5041 70.4081 24.1425 70.3362 23.7773 70.3362Z" fill="#FFC727"/>
<path d="M33.6093 85.9501C32.865 85.9501 32.1373 85.7294 31.5184 85.3159C30.8994 84.9023 30.4171 84.3145 30.1322 83.6268C29.8473 82.9391 29.7728 82.1823 29.918 81.4523C30.0632 80.7222 30.4217 80.0516 30.948 79.5252C31.4744 78.9989 32.145 78.6404 32.8751 78.4952C33.6052 78.3499 34.3619 78.4245 35.0496 78.7093C35.7374 78.9942 36.3251 79.4766 36.7387 80.0955C37.1523 80.7145 37.373 81.4421 37.373 82.1865C37.3704 83.1839 36.973 84.1397 36.2678 84.8449C35.5625 85.5502 34.6067 85.9476 33.6093 85.9501ZM33.6093 79.4154C33.0589 79.4154 32.5208 79.5787 32.0633 79.8847C31.6058 80.1907 31.2493 80.6256 31.0391 81.1344C30.8289 81.6431 30.7744 82.2028 30.8826 82.7425C30.9907 83.2822 31.2565 83.7777 31.6464 84.1663C32.0363 84.5548 32.5328 84.8189 33.0729 84.9251C33.613 85.0312 34.1724 84.9748 34.6804 84.7628C35.1884 84.5508 35.622 84.1928 35.9264 83.7342C36.2308 83.2756 36.3923 82.7369 36.3903 82.1865C36.3903 81.4489 36.0973 80.7416 35.5758 80.2201C35.0543 79.6985 34.3469 79.4055 33.6093 79.4055V79.4154Z" fill="#FFC727"/>
<path d="M44.0117 72.8017C43.2673 72.8017 42.5397 72.581 41.9207 72.1674C41.3018 71.7539 40.8194 71.1661 40.5345 70.4783C40.2497 69.7906 40.1751 69.0339 40.3204 68.3038C40.4656 67.5737 40.824 66.9031 41.3504 66.3768C41.8767 65.8504 42.5474 65.492 43.2774 65.3467C44.0075 65.2015 44.7643 65.276 45.452 65.5609C46.1397 65.8458 46.7275 66.3282 47.1411 66.9471C47.5546 67.566 47.7753 68.2937 47.7753 69.0381C47.7727 70.0354 47.3754 70.9912 46.6701 71.6965C45.9649 72.4018 45.0091 72.7991 44.0117 72.8017ZM44.0117 66.2571C43.4617 66.2571 42.924 66.4202 42.4667 66.7258C42.0093 67.0313 41.6529 67.4657 41.4424 67.9738C41.2319 68.482 41.1769 69.0411 41.2842 69.5806C41.3915 70.1201 41.6563 70.6156 42.0452 71.0045C42.4342 71.3934 42.9297 71.6583 43.4691 71.7656C44.0086 71.8729 44.5678 71.8178 45.0759 71.6073C45.5841 71.3969 46.0184 71.0404 46.324 70.5831C46.6296 70.1258 46.7927 69.5881 46.7927 69.0381C46.7823 68.3073 46.4848 67.61 45.9644 67.097C45.444 66.5839 44.7425 66.2963 44.0117 66.2964V66.2571Z" fill="#FFC727"/>
<path d="M41.3879 71.1441L35.3193 79.7788L36.1233 80.3439L42.1919 71.7092L41.3879 71.1441Z" fill="#FFC727"/>
<path d="M26.6575 75.417L25.9473 76.0962L30.5656 80.9256L31.2758 80.2464L26.6575 75.417Z" fill="#FFC727"/>
<path d="M21.2074 75.6258L14.3984 84.3975L15.1747 85L21.9836 76.2283L21.2074 75.6258Z" fill="#FFC727"/>
<path d="M44.6558 115.872C44.6577 116.441 44.4909 116.997 44.1763 117.47C43.8618 117.944 43.4137 118.313 42.889 118.531C42.3643 118.75 41.7865 118.807 41.229 118.697C40.6715 118.586 40.1593 118.313 39.7574 117.911C39.3555 117.509 39.0821 116.997 38.9717 116.439C38.8612 115.882 38.9189 115.304 39.1373 114.78C39.3557 114.255 39.725 113.807 40.1984 113.492C40.6717 113.178 41.2279 113.011 41.7962 113.013C42.5546 113.013 43.282 113.314 43.8182 113.85C44.3545 114.387 44.6558 115.114 44.6558 115.872Z" fill="#263238"/>
<path d="M113.57 101.74C113.432 101.74 113.314 93.4856 113.314 83.3051C113.314 73.1246 113.432 64.8701 113.57 64.8701C113.708 64.8701 113.825 73.1246 113.825 83.3051C113.825 93.4856 113.708 101.74 113.57 101.74Z" fill="#263238"/>
<path d="M131.619 4.7793H92.125C86.4916 4.7793 81.9248 9.34606 81.9248 14.9795V54.4732C81.9248 60.1066 86.4916 64.6733 92.125 64.6733H131.619C137.252 64.6733 141.819 60.1066 141.819 54.4732V14.9795C141.819 9.34606 137.252 4.7793 131.619 4.7793Z" fill="white"/>
<path d="M131.61 64.664C132.363 64.597 133.111 64.4854 133.85 64.3299C135.95 63.838 137.839 62.6922 139.245 61.0576C140.262 59.8908 140.99 58.5002 141.368 56.9991C141.713 55.2064 141.829 53.377 141.712 51.5551C141.712 47.5654 141.712 43.0157 141.712 38.004C141.712 32.9924 141.712 27.4796 141.712 21.5737V17.0337C141.798 15.5058 141.686 13.9731 141.378 12.4741C140.974 10.9385 140.212 9.52089 139.152 8.33845C138.093 7.156 136.767 6.24269 135.285 5.674C134.523 5.38088 133.728 5.18605 132.917 5.09423C132.084 5.01819 131.247 4.99193 130.411 5.01561H92.1259C90.2589 5.01894 88.4305 5.54671 86.8489 6.53876C86.0532 7.02177 85.3344 7.62132 84.7165 8.3174C84.0968 8.98739 83.5802 9.74579 83.1835 10.5677C82.7788 11.3823 82.4878 12.2486 82.3188 13.1423C82.1755 14.0356 82.1163 14.9404 82.1419 15.8447V21.3182C82.1419 28.5408 82.1419 35.5178 82.1419 42.1607C82.1419 45.4723 82.1419 48.7152 82.1419 51.8597C82.0723 53.3922 82.138 54.9279 82.3384 56.4488C82.6409 57.8935 83.2546 59.255 84.1367 60.4385C84.978 61.5541 86.0443 62.4804 87.2666 63.1576C88.4888 63.8347 89.8397 64.2475 91.2316 64.3692C93.934 64.4674 96.5872 64.3692 99.093 64.438L122.884 64.5166L129.35 64.5657H122.884L99.093 64.6443C96.5774 64.6443 93.9635 64.7033 91.2316 64.6443C89.0039 64.4428 86.8998 63.5309 85.2296 62.043C83.5594 60.555 82.4116 58.5698 81.9552 56.38C81.7357 54.8312 81.6633 53.265 81.739 51.7025C81.739 48.5579 81.739 45.3151 81.739 42.0035C81.739 35.3606 81.739 28.3836 81.739 21.161V15.8545C81.7057 14.9174 81.765 13.9793 81.9159 13.0539C82.095 12.1167 82.3991 11.2079 82.8199 10.3515C83.2429 9.49018 83.7855 8.69288 84.4315 7.98329C85.0748 7.26053 85.8196 6.63493 86.6425 6.12603C88.3075 5.08455 90.2307 4.52971 92.1946 4.52427H130.362C131.218 4.50498 132.074 4.53451 132.927 4.61271C133.775 4.71416 134.607 4.92216 135.403 5.2318C136.946 5.83304 138.324 6.79404 139.421 8.03489C140.519 9.27574 141.304 10.7606 141.712 12.366C142.031 13.9001 142.143 15.4699 142.046 17.0337V21.5442C142.046 27.4403 142.046 32.9432 142.046 37.9745C142.046 43.0058 142.046 47.536 142.046 51.5256C142.157 53.3879 142.031 55.2568 141.672 57.0876C141.276 58.6204 140.518 60.0357 139.461 61.2148C138.022 62.8672 136.083 64.0056 133.939 64.4576C133.39 64.5794 132.83 64.6485 132.268 64.664H131.61Z" fill="#263238"/>
<path d="M116.379 64.6648C116.379 65.2303 116.212 65.7832 115.897 66.2535C115.583 66.7237 115.137 67.0902 114.614 67.3067C114.092 67.5231 113.517 67.5797 112.962 67.4694C112.407 67.3591 111.898 67.0867 111.498 66.6868C111.098 66.2869 110.825 65.7773 110.715 65.2226C110.605 64.6679 110.661 64.093 110.878 63.5704C111.094 63.0479 111.461 62.6013 111.931 62.2871C112.401 61.9729 112.954 61.8052 113.52 61.8052C114.278 61.8052 115.005 62.1065 115.542 62.6427C116.078 63.179 116.379 63.9063 116.379 64.6648Z" fill="#263238"/>
<path d="M109.611 42.3669C108.026 42.38 106.457 42.0477 105.013 41.393C103.569 40.7383 102.285 39.7771 101.25 38.576C100.215 37.375 99.4544 35.9629 99.0205 34.4381C98.5865 32.9133 98.4899 31.3122 98.7372 29.7463C98.9846 28.1803 99.5701 26.687 100.453 25.3702C101.336 24.0534 102.495 22.9446 103.849 22.121C105.204 21.2974 106.722 20.7787 108.297 20.601C109.873 20.4233 111.468 20.5909 112.972 21.092C114.339 21.5312 115.605 22.2359 116.699 23.1656C117.793 24.0953 118.692 25.2319 119.346 26.51C120 27.7881 120.395 29.1827 120.508 30.6137C120.622 32.0448 120.452 33.4842 120.008 34.8494C119.288 37.0378 117.895 38.9428 116.028 40.2927C114.161 41.6427 111.915 42.3686 109.611 42.3669ZM109.611 22.4874C107.96 22.4876 106.34 22.9446 104.932 23.808C103.524 24.6714 102.383 25.9075 101.634 27.3795C100.885 28.8514 100.557 30.502 100.688 32.1484C100.819 33.7948 101.403 35.3729 102.375 36.7082C103.347 38.0435 104.669 39.0838 106.196 39.7142C107.722 40.3445 109.394 40.5402 111.024 40.2796C112.655 40.0191 114.182 39.3124 115.437 38.2379C116.691 37.1633 117.623 35.7627 118.131 34.191C118.858 31.9301 118.658 29.4732 117.574 27.3598C116.491 25.2464 114.613 23.6495 112.353 22.9198C111.471 22.6333 110.549 22.4873 109.621 22.4874H109.611Z" fill="#263238"/>
<path d="M124.026 48.9224C123.89 48.9208 123.756 48.8911 123.633 48.8353C123.51 48.7795 123.399 48.6987 123.308 48.5982L115.181 39.7639C115.025 39.5695 114.948 39.3228 114.967 39.0738C114.985 38.8249 115.098 38.5923 115.282 38.4235C115.466 38.2546 115.707 38.162 115.957 38.1646C116.206 38.1672 116.446 38.2647 116.626 38.4373L124.743 47.2814C124.918 47.4732 125.011 47.7267 125 47.9863C124.988 48.246 124.875 48.4907 124.684 48.6669C124.504 48.8308 124.269 48.9218 124.026 48.9224Z" fill="#263238"/>
<path d="M205.56 25.3262H166.066C160.433 25.3262 155.866 29.8929 155.866 35.5263V75.02C155.866 80.6534 160.433 85.2202 166.066 85.2202H205.56C211.193 85.2202 215.76 80.6534 215.76 75.02V35.5263C215.76 29.8929 211.193 25.3262 205.56 25.3262Z" fill="white"/>
<path d="M205.59 85.2203C206.339 85.1627 207.084 85.061 207.82 84.9157C209.92 84.4238 211.809 83.278 213.215 81.6434C214.232 80.4721 214.959 79.0786 215.338 77.5751C215.674 75.7646 215.779 73.9189 215.652 72.0819C215.652 68.0825 215.652 63.5425 215.652 58.521C215.652 53.4996 215.652 47.9966 215.652 42.1005V37.5901C215.74 36.0617 215.625 34.5283 215.308 33.0304C214.911 31.4938 214.151 30.0747 213.093 28.8917C212.035 27.7086 210.709 26.7961 209.226 26.2303C208.463 25.9395 207.668 25.7447 206.857 25.6506C206.025 25.5698 205.188 25.5435 204.352 25.5719H166.076C164.209 25.5824 162.382 26.1133 160.799 27.1049C160.015 27.5837 159.306 28.1766 158.697 28.8639C158.076 29.5366 157.559 30.2984 157.164 31.1241C156.756 31.934 156.465 32.7975 156.299 33.6888C156.156 34.5854 156.097 35.4934 156.122 36.401V41.8745C156.122 49.0972 156.122 56.0643 156.122 62.7072C156.122 66.0287 156.122 69.2715 156.122 72.4161C156.047 73.9485 156.113 75.4846 156.318 77.0051C156.621 78.4499 157.235 79.8113 158.117 80.9948C158.957 82.1092 160.022 83.0349 161.242 83.712C162.463 84.3891 163.812 84.8025 165.202 84.9255C167.914 85.0238 170.567 84.9255 173.063 84.9943L196.854 85.0729L203.32 85.122L196.854 85.1712L173.063 85.2498C170.548 85.2498 167.934 85.3087 165.202 85.2498C163.75 85.1258 162.341 84.6956 161.067 83.9876C159.793 83.2796 158.684 82.3099 157.812 81.1422C156.882 79.9127 156.235 78.4935 155.916 76.9855C155.706 75.4357 155.633 73.8705 155.699 72.308C155.699 69.1634 155.699 65.9206 155.699 62.5991C155.699 55.9562 155.699 48.9891 155.699 41.7664V36.4108C155.666 35.4738 155.725 34.5357 155.876 33.6102C156.055 32.6731 156.359 31.7642 156.78 30.9079C157.203 30.0465 157.746 29.2492 158.392 28.5396C159.035 27.8169 159.78 27.1913 160.603 26.6824C162.267 25.6379 164.19 25.0797 166.155 25.0708H204.322C205.178 25.0531 206.034 25.0793 206.887 25.1494C207.734 25.2556 208.566 25.4634 209.363 25.7685C210.896 26.3758 212.264 27.3368 213.356 28.5732C214.447 29.8096 215.23 31.2863 215.643 32.883C215.961 34.4205 216.073 35.9935 215.977 37.5606C215.977 39.0837 215.977 40.5872 215.977 42.0711C215.977 47.9671 215.977 53.4701 215.977 58.4915C215.977 63.513 215.977 68.053 215.977 72.0525C216.096 73.9144 215.974 75.7839 215.613 77.6144C215.126 79.4352 214.147 81.0865 212.782 82.3867C211.418 83.687 209.721 84.5858 207.879 84.9845C207.329 85.1006 206.771 85.1697 206.209 85.1908C205.747 85.2301 205.59 85.2203 205.59 85.2203Z" fill="#263238"/>
<path d="M189.427 85.6423C189.429 86.2102 189.263 86.766 188.949 87.2391C188.634 87.7123 188.187 88.0816 187.663 88.3003C187.139 88.519 186.561 88.5772 186.004 88.4676C185.447 88.358 184.935 88.0855 184.532 87.6846C184.13 87.2837 183.856 86.7724 183.744 86.2155C183.633 85.6587 183.689 85.0812 183.906 84.5563C184.123 84.0314 184.491 83.5827 184.963 83.267C185.435 82.9513 185.99 82.7827 186.558 82.7827C187.317 82.7827 188.046 83.0837 188.583 83.6197C189.121 84.1557 189.425 84.883 189.427 85.6423Z" fill="#263238"/>
<path d="M208.456 57.6371C209.959 62.9042 206.491 68.0535 201.135 68.0535H172.755C171.666 68.0586 170.591 67.8126 169.612 67.3346C168.633 66.8566 167.778 66.1594 167.113 65.2973C166.448 64.4351 165.99 63.4311 165.775 62.3634C165.561 61.2956 165.596 60.1928 165.877 59.1406C165.942 58.9058 166.024 58.6759 166.122 58.4527C166.786 56.9099 167.949 55.6351 169.425 54.8331C170.901 54.0311 172.603 53.7485 174.259 54.0307C174.61 51.1454 175.925 48.4634 177.992 46.4197C180.058 44.3761 182.755 43.0906 185.644 42.772C188.533 42.4535 191.445 43.1204 193.907 44.6646C196.369 46.2088 198.238 48.5398 199.209 51.2792C199.209 51.2792 206.569 50.8861 208.456 57.6371Z" fill="#FFC727"/>
<path d="M184.453 73.0857V62.1977H180.189C180.074 62.1977 179.962 62.1661 179.865 62.1065C179.768 62.0469 179.689 61.9615 179.637 61.8598C179.585 61.7582 179.562 61.6441 179.571 61.5303C179.58 61.4165 179.62 61.3074 179.687 61.215L186.713 51.2998C186.77 51.2226 186.844 51.1599 186.929 51.1166C187.015 51.0733 187.109 51.0508 187.205 51.0508C187.301 51.0508 187.395 51.0733 187.48 51.1166C187.566 51.1599 187.64 51.2226 187.696 51.2998L194.712 61.1265C194.779 61.2189 194.82 61.3281 194.829 61.4419C194.837 61.5557 194.815 61.6697 194.763 61.7714C194.711 61.8731 194.632 61.9585 194.535 62.0181C194.437 62.0777 194.325 62.1092 194.211 62.1092H190.055V73.0759L184.453 73.0857Z" fill="white"/>
<path d="M270.693 97.6523H231.199C225.566 97.6523 220.999 102.219 220.999 107.852V147.346C220.999 152.98 225.566 157.546 231.199 157.546H270.693C276.326 157.546 280.893 152.98 280.893 147.346V107.852C280.893 102.219 276.326 97.6523 270.693 97.6523Z" fill="white"/>
<path d="M270.679 157.537C271.425 157.485 272.167 157.383 272.9 157.232C274.999 156.74 276.888 155.595 278.295 153.96C279.312 152.793 280.039 151.403 280.417 149.902C280.758 148.088 280.863 146.239 280.732 144.399C280.732 140.409 280.732 135.869 280.732 130.847C280.732 125.826 280.732 120.323 280.732 114.417V109.916C280.818 108.385 280.706 106.849 280.398 105.347C279.995 103.812 279.233 102.395 278.173 101.215C277.113 100.034 275.787 99.1224 274.305 98.5568C273.545 98.2559 272.749 98.0576 271.937 97.9671C271.103 97.896 270.267 97.8698 269.431 97.8885H231.195C229.328 97.8919 227.5 98.4196 225.918 99.4117C225.136 99.8971 224.427 100.493 223.815 101.181C223.195 101.85 222.679 102.609 222.282 103.431C221.879 104.246 221.588 105.112 221.417 106.005C221.274 106.902 221.215 107.81 221.241 108.718V114.181C221.241 121.404 221.241 128.381 221.241 135.024C221.241 138.345 221.241 141.578 221.241 144.723C221.171 146.259 221.237 147.798 221.437 149.322C221.74 150.763 222.353 152.122 223.235 153.302C224.072 154.426 225.137 155.361 226.359 156.047C227.581 156.733 228.935 157.153 230.33 157.281C233.033 157.37 235.686 157.281 238.192 157.34L261.982 157.419L268.448 157.468H270.129C270.512 157.468 270.708 157.468 270.708 157.468H270.129H268.448H261.982L238.192 157.557C235.676 157.557 233.062 157.616 230.33 157.557C228.102 157.351 225.999 156.437 224.329 154.948C222.659 153.458 221.511 151.473 221.054 149.282C220.834 147.734 220.762 146.167 220.838 144.605C220.838 141.46 220.838 138.227 220.838 134.906C220.838 128.263 220.838 121.286 220.838 114.063V108.6C220.804 107.659 220.863 106.718 221.014 105.789C221.194 104.852 221.498 103.943 221.919 103.087C222.342 102.226 222.884 101.428 223.53 100.719C224.173 99.9959 224.918 99.3703 225.741 98.8614C227.406 97.8199 229.329 97.2651 231.293 97.2596H269.46C270.316 97.2403 271.173 97.2699 272.025 97.3481C272.873 97.4495 273.705 97.6575 274.502 97.9671C276.053 98.561 277.44 99.5176 278.546 100.757C279.652 101.997 280.445 103.483 280.859 105.092C281.179 106.629 281.291 108.202 281.194 109.769V114.447C281.194 120.343 281.194 125.846 281.194 130.877C281.194 135.908 281.194 140.438 281.194 144.428C281.305 146.29 281.18 148.159 280.82 149.99C280.424 151.523 279.666 152.938 278.609 154.117C277.167 155.768 275.23 156.909 273.086 157.37C272.536 157.484 271.977 157.55 271.416 157.566C270.866 157.547 270.679 157.537 270.679 157.537Z" fill="#263238"/>
<path d="M251.707 145.784C248.103 145.786 244.579 144.719 241.582 142.717C238.584 140.716 236.247 137.871 234.867 134.542C233.487 131.212 233.125 127.548 233.828 124.013C234.531 120.478 236.266 117.231 238.815 114.682C241.363 112.134 244.61 110.398 248.145 109.696C251.68 108.993 255.344 109.355 258.674 110.735C262.003 112.115 264.849 114.452 266.85 117.449C268.851 120.447 269.918 123.971 269.916 127.575C269.908 132.402 267.987 137.029 264.574 140.442C261.161 143.855 256.534 145.776 251.707 145.784ZM251.707 110.339C248.298 110.337 244.964 111.346 242.129 113.239C239.293 115.131 237.082 117.823 235.776 120.972C234.47 124.121 234.127 127.587 234.791 130.931C235.455 134.276 237.096 137.348 239.506 139.759C241.916 142.171 244.987 143.813 248.331 144.479C251.675 145.145 255.141 144.804 258.291 143.5C261.441 142.196 264.134 139.986 266.028 137.152C267.922 134.317 268.933 130.984 268.933 127.575C268.928 123.007 267.112 118.627 263.883 115.396C260.654 112.165 256.275 110.347 251.707 110.339Z" fill="#FFC727"/>
<path d="M251.154 145.725C249.344 144.593 247.761 143.134 246.487 141.421C243.426 137.344 241.914 132.311 242.222 127.221C242.271 122.171 244.031 117.287 247.214 113.366C248.51 111.771 250.097 110.437 251.891 109.435L252.324 110.319C252.235 110.319 243.666 114.751 243.205 127.271C242.743 139.79 251.547 144.841 251.636 144.89L251.154 145.725Z" fill="#FFC727"/>
<path d="M251.961 145.716L251.45 144.881C251.529 144.822 260.058 139.388 259.596 126.859C259.135 114.329 250.929 110.33 250.851 110.291L251.263 109.406C251.627 109.573 260.107 113.691 260.579 126.829C261.051 139.967 252.049 145.657 251.961 145.716Z" fill="#FFC727"/>
<path d="M251.939 121.796C244.569 121.796 239.813 119.29 237.12 117.187L237.729 116.411C240.294 118.425 244.844 120.813 251.939 120.813C258.818 120.813 263.161 118.435 265.608 116.44L266.227 117.197C263.662 119.3 259.103 121.796 251.939 121.796Z" fill="#FFC727"/>
<path d="M265.648 138.188C263.083 136.223 258.533 133.924 251.429 133.924C244.55 133.924 240.207 136.223 237.76 138.169L237.15 137.392C239.715 135.358 244.275 132.941 251.429 132.941C258.809 132.941 263.555 135.368 266.247 137.402L265.648 138.188Z" fill="#FFC727"/>
<path d="M269.445 127.133H234.423V128.116H269.445V127.133Z" fill="#FFC727"/>
<path d="M223.642 128.813C223.642 129.381 223.474 129.936 223.158 130.408C222.842 130.881 222.393 131.248 221.869 131.465C221.344 131.682 220.766 131.738 220.209 131.627C219.652 131.515 219.141 131.241 218.74 130.839C218.339 130.436 218.067 129.924 217.957 129.367C217.848 128.81 217.906 128.233 218.125 127.708C218.343 127.184 218.713 126.737 219.186 126.423C219.659 126.109 220.215 125.942 220.783 125.944C221.159 125.944 221.532 126.018 221.879 126.162C222.227 126.307 222.542 126.518 222.808 126.785C223.074 127.051 223.284 127.368 223.427 127.716C223.57 128.064 223.643 128.437 223.642 128.813Z" fill="#263238"/>
<path d="M222.382 128.812C222.382 128.95 215.582 129.068 207.2 129.068C198.818 129.068 192.018 128.95 192.018 128.812C192.018 128.675 198.818 128.557 207.2 128.557C215.582 128.557 222.382 128.665 222.382 128.812Z" fill="#263238"/>
<path d="M258.959 175.597H235.158C229.525 175.597 224.958 180.163 224.958 185.797V209.597C224.958 215.231 229.525 219.797 235.158 219.797H258.959C264.592 219.797 269.159 215.231 269.159 209.597V185.797C269.159 180.163 264.592 175.597 258.959 175.597Z" fill="white"/>
<path d="M258.962 219.797C258.962 219.797 259.532 219.797 260.563 219.61C262.082 219.346 263.523 218.745 264.779 217.851C266.752 216.419 268.147 214.327 268.71 211.955C268.982 210.461 269.071 208.94 268.975 207.425C268.975 205.804 268.975 204.084 268.975 202.286C268.975 198.679 268.975 194.729 268.975 190.494V187.261C269.021 186.163 268.959 185.064 268.788 183.978C268.375 181.727 267.195 179.689 265.447 178.21C263.611 176.656 261.279 175.813 258.873 175.832H235.191C233.881 175.833 232.583 176.093 231.374 176.596C230.164 177.099 229.065 177.836 228.141 178.764C227.216 179.693 226.484 180.794 225.985 182.006C225.487 183.218 225.232 184.516 225.236 185.826C225.236 191.005 225.236 196.006 225.236 200.772C225.236 203.163 225.236 205.486 225.236 207.739C225.197 208.838 225.233 209.938 225.344 211.031C225.486 212.079 225.801 213.095 226.278 214.038C227.171 215.847 228.589 217.344 230.346 218.333C231.98 219.233 233.827 219.678 235.692 219.62L252.761 219.699L257.399 219.748H258.608H259.011C258.877 219.76 258.742 219.76 258.608 219.748H257.399H252.761L235.692 219.836C233.764 219.902 231.854 219.451 230.159 218.529C228.325 217.51 226.839 215.962 225.895 214.088C225.398 213.104 225.066 212.045 224.912 210.953C224.796 209.837 224.753 208.714 224.784 207.592C224.784 205.332 224.784 203.01 224.784 200.625C224.784 195.859 224.784 190.857 224.784 185.678C224.825 182.944 225.935 180.334 227.876 178.407C229.818 176.48 232.436 175.39 235.171 175.37H258.854C261.371 175.362 263.81 176.251 265.732 177.876C267.556 179.431 268.785 181.57 269.211 183.929C269.381 185.041 269.44 186.167 269.388 187.29C269.388 188.391 269.388 189.462 269.388 190.523C269.388 194.758 269.388 198.709 269.388 202.315C269.388 204.113 269.388 205.833 269.388 207.455C269.476 208.991 269.37 210.533 269.073 212.044C268.472 214.474 267.009 216.604 264.956 218.038C263.67 218.931 262.192 219.509 260.642 219.728C260.242 219.791 259.838 219.824 259.433 219.826C259.276 219.83 259.118 219.82 258.962 219.797Z" fill="#263238"/>
<path d="M236.23 205.362C238.427 206.77 240.97 207.547 243.579 207.608C246.188 207.669 248.763 207.011 251.024 205.707C253.284 204.402 255.142 202.501 256.394 200.211C257.647 197.921 258.245 195.331 258.124 192.724C259.099 192.004 259.94 191.119 260.611 190.11C259.697 190.518 258.726 190.783 257.731 190.897C258.776 190.274 259.559 189.293 259.933 188.135C258.951 188.715 257.877 189.124 256.759 189.344C256.003 188.542 255.005 188.012 253.918 187.834C252.83 187.657 251.715 187.843 250.744 188.363C249.773 188.883 249.001 189.709 248.546 190.712C248.091 191.715 247.98 192.84 248.229 193.913C246.24 193.814 244.294 193.297 242.518 192.397C240.742 191.496 239.176 190.231 237.921 188.686C237.278 189.786 237.08 191.091 237.367 192.333C237.653 193.575 238.403 194.66 239.463 195.368C238.668 195.338 237.891 195.123 237.194 194.739C237.183 195.905 237.579 197.039 238.312 197.945C239.045 198.852 240.07 199.477 241.213 199.711C240.475 199.91 239.702 199.937 238.952 199.79C239.271 200.786 239.893 201.657 240.732 202.281C241.571 202.905 242.585 203.25 243.63 203.268C241.538 204.919 238.877 205.672 236.23 205.362Z" fill="#455A64"/>
<path d="M209.769 217.39L196.945 172.246H84.8215L70.2092 217.243C70.0028 217.87 69.9467 218.537 70.0453 219.19C70.144 219.843 70.3946 220.464 70.7771 221.002C71.1596 221.54 71.6631 221.981 72.2473 222.289C72.8314 222.597 73.4796 222.764 74.1399 222.775H125.357L127.43 220.702H151.614L153.687 222.775H205.769C206.419 222.769 207.059 222.613 207.638 222.318C208.217 222.024 208.721 221.599 209.108 221.077C209.496 220.556 209.757 219.951 209.871 219.311C209.986 218.672 209.951 218.014 209.769 217.39Z" fill="#E0E0E0"/>
<g opacity="0.3">
<path d="M209.768 217.389L196.944 172.245H84.8206L70.2082 217.242C70.0019 217.869 69.9457 218.536 70.0444 219.189C70.143 219.842 70.3937 220.463 70.7761 221.001C71.1586 221.539 71.6622 221.98 72.2463 222.288C72.8304 222.596 73.4787 222.763 74.1389 222.774H125.356L127.429 220.701H151.613L153.686 222.774H205.768C206.418 222.768 207.058 222.612 207.637 222.317C208.216 222.023 208.72 221.598 209.107 221.076C209.495 220.555 209.756 219.95 209.871 219.31C209.985 218.671 209.95 218.013 209.768 217.389Z" fill="black"/>
</g>
<path d="M84.7764 171.076V104.834C84.7738 104.211 84.8941 103.594 85.1304 103.018C85.3666 102.442 85.7142 101.918 86.1533 101.476C86.5923 101.034 87.1141 100.683 87.689 100.443C88.2638 100.204 88.8802 100.079 89.5031 100.078H192.537C193.159 100.079 193.776 100.204 194.351 100.443C194.925 100.683 195.447 101.034 195.886 101.476C196.325 101.918 196.673 102.442 196.909 103.018C197.146 103.594 197.266 104.211 197.263 104.834V171.076H84.7764Z" fill="#E0E0E0"/>
<path d="M190.461 106.632H91.5742V165.544H190.461V106.632Z" fill="white"/>
<path d="M190.461 165.543C190.461 165.543 190.461 165.17 190.461 164.472C190.461 163.775 190.461 162.723 190.461 161.377C190.461 158.655 190.461 154.675 190.402 149.585C190.402 139.375 190.343 124.674 190.304 106.652L190.5 106.848L91.5941 106.887L91.8496 106.632C91.8496 127.494 91.8496 147.413 91.8496 165.543L91.6138 165.307L162.74 165.416L183.16 165.484H188.604H190.009H190.5H190.038H188.663H183.258L162.897 165.543L91.6138 165.661H91.3779V165.543C91.3779 147.413 91.3779 127.494 91.3779 106.632V106.376H91.5941L190.471 106.435H190.667V106.632C190.667 124.713 190.589 139.453 190.559 149.693C190.559 154.783 190.559 158.743 190.51 161.485C190.51 162.811 190.51 163.833 190.51 164.541C190.51 165.249 190.461 165.543 190.461 165.543Z" fill="#263238"/>
<path d="M142.839 103.526C142.847 103.89 142.746 104.247 142.549 104.553C142.353 104.859 142.07 105.1 141.736 105.244C141.402 105.388 141.033 105.429 140.675 105.362C140.318 105.295 139.989 105.124 139.73 104.869C139.47 104.614 139.293 104.287 139.22 103.931C139.148 103.575 139.183 103.205 139.322 102.869C139.46 102.533 139.696 102.245 139.999 102.044C140.301 101.843 140.657 101.736 141.021 101.738C141.258 101.735 141.493 101.78 141.713 101.868C141.933 101.957 142.133 102.088 142.302 102.254C142.471 102.42 142.605 102.618 142.697 102.837C142.789 103.055 142.837 103.289 142.839 103.526Z" fill="#263238"/>
<path d="M209.769 215.72L196.945 170.576H84.8215L70.2092 215.572C70.0028 216.2 69.9467 216.867 70.0453 217.52C70.144 218.172 70.3946 218.793 70.7771 219.331C71.1596 219.87 71.6631 220.311 72.2473 220.619C72.8314 220.927 73.4796 221.093 74.1399 221.105H125.357L127.43 219.031H151.614L153.687 221.105H205.769C206.419 221.099 207.059 220.943 207.638 220.648C208.217 220.353 208.721 219.929 209.108 219.407C209.496 218.885 209.757 218.281 209.871 217.641C209.986 217.001 209.951 216.344 209.769 215.72Z" fill="#E0E0E0"/>
<path d="M188.983 173.464L91.2754 173.14C90.8125 173.113 90.3524 173.229 89.9571 173.471C89.5619 173.714 89.2503 174.071 89.0644 174.496L81.203 196.724C80.7804 197.933 81.8712 199.132 83.4042 199.132H196.5C198.023 199.132 199.124 197.943 198.701 196.734L191.184 174.84C190.998 174.416 190.689 174.057 190.296 173.812C189.903 173.566 189.446 173.445 188.983 173.464Z" fill="#EBEBEB"/>
<g opacity="0.1">
<path d="M158.642 216.102H120.092C119.704 216.078 119.327 215.968 118.987 215.78C118.648 215.591 118.355 215.329 118.131 215.012C117.906 214.695 117.756 214.332 117.69 213.949C117.625 213.566 117.646 213.173 117.753 212.8L119.935 203.671C120.045 203.127 120.337 202.637 120.761 202.281C121.186 201.924 121.719 201.721 122.273 201.706H156.726C157.294 201.724 157.838 201.937 158.268 202.309C158.697 202.681 158.985 203.19 159.084 203.75L161.05 212.869C161.145 213.243 161.156 213.634 161.081 214.013C161.006 214.392 160.847 214.749 160.617 215.059C160.386 215.369 160.089 215.623 159.747 215.804C159.406 215.984 159.028 216.086 158.642 216.102Z" fill="black"/>
</g>
<path d="M158.513 180.5L157.531 175.842C157.497 175.688 157.411 175.55 157.287 175.452C157.164 175.353 157.01 175.3 156.852 175.302H150.838C150.739 175.301 150.641 175.321 150.55 175.362C150.46 175.402 150.379 175.462 150.314 175.537C150.248 175.611 150.2 175.699 150.172 175.794C150.144 175.89 150.136 175.99 150.151 176.088L150.819 180.746C150.842 180.912 150.925 181.064 151.051 181.174C151.178 181.284 151.339 181.345 151.507 181.345H157.865C157.966 181.34 158.065 181.314 158.155 181.267C158.245 181.22 158.323 181.154 158.385 181.073C158.447 180.993 158.49 180.9 158.512 180.801C158.534 180.702 158.535 180.599 158.513 180.5Z" fill="#263238"/>
<path d="M140.383 180.608L139.95 175.931C139.938 175.758 139.86 175.596 139.732 175.479C139.604 175.362 139.436 175.299 139.263 175.302H133.121C133.028 175.302 132.935 175.32 132.849 175.357C132.763 175.393 132.685 175.446 132.62 175.513C132.555 175.58 132.504 175.659 132.471 175.746C132.437 175.833 132.42 175.926 132.423 176.019L132.59 180.697C132.598 180.877 132.675 181.047 132.805 181.171C132.935 181.296 133.108 181.365 133.288 181.365H139.744C139.836 181.358 139.925 181.332 140.007 181.29C140.089 181.248 140.162 181.19 140.221 181.12C140.28 181.049 140.325 180.968 140.353 180.88C140.381 180.792 140.391 180.7 140.383 180.608Z" fill="#263238"/>
<path d="M149.924 180.559L149.256 175.891C149.232 175.726 149.15 175.576 149.023 175.467C148.897 175.359 148.735 175.3 148.568 175.302H141.493C141.397 175.301 141.301 175.321 141.213 175.36C141.125 175.399 141.046 175.456 140.981 175.527C140.916 175.598 140.867 175.682 140.836 175.774C140.806 175.866 140.796 175.963 140.805 176.058L141.228 180.726C141.247 180.898 141.329 181.057 141.457 181.173C141.586 181.289 141.752 181.354 141.925 181.355H149.237C149.337 181.356 149.436 181.336 149.527 181.295C149.619 181.253 149.7 181.193 149.766 181.117C149.831 181.041 149.879 180.952 149.907 180.856C149.934 180.759 149.94 180.658 149.924 180.559Z" fill="#263238"/>
<path d="M105.059 180.677L106.041 176.432C106.062 176.297 106.054 176.159 106.019 176.026C105.983 175.894 105.92 175.771 105.834 175.665C105.748 175.558 105.641 175.471 105.519 175.409C105.397 175.346 105.264 175.31 105.127 175.302H99.3C99.0996 175.31 98.9065 175.379 98.7466 175.501C98.5868 175.622 98.4678 175.789 98.4058 175.98L97.1873 180.225C97.1573 180.364 97.1576 180.507 97.1884 180.646C97.2191 180.784 97.2796 180.915 97.3655 181.028C97.4514 181.141 97.5608 181.234 97.6861 181.3C97.8114 181.367 97.9496 181.406 98.0913 181.414H104.184C104.388 181.398 104.583 181.318 104.74 181.186C104.896 181.054 105.008 180.876 105.059 180.677Z" fill="#263238"/>
<path d="M189.934 180.353L188.165 175.744C188.115 175.613 188.026 175.5 187.91 175.421C187.795 175.342 187.657 175.301 187.517 175.302H176.098C175.986 175.301 175.876 175.327 175.776 175.379C175.677 175.43 175.591 175.505 175.527 175.597C175.463 175.689 175.423 175.795 175.409 175.907C175.396 176.018 175.41 176.131 175.45 176.235L177.169 180.854C177.217 180.988 177.305 181.103 177.421 181.184C177.537 181.265 177.676 181.308 177.818 181.306H189.305C189.417 181.303 189.527 181.273 189.625 181.218C189.723 181.164 189.806 181.086 189.868 180.993C189.929 180.899 189.967 180.792 189.979 180.681C189.991 180.57 189.975 180.457 189.934 180.353Z" fill="#263238"/>
<path d="M130.899 175.302H124.256C124.078 175.301 123.906 175.37 123.776 175.492C123.647 175.614 123.569 175.782 123.559 175.96L123.333 180.657C123.329 180.751 123.344 180.845 123.377 180.933C123.41 181.021 123.461 181.102 123.526 181.17C123.591 181.238 123.67 181.292 123.756 181.329C123.843 181.366 123.936 181.385 124.03 181.385H131.076C131.169 181.385 131.261 181.366 131.346 181.329C131.432 181.293 131.509 181.24 131.573 181.173C131.638 181.106 131.688 181.026 131.72 180.939C131.753 180.853 131.768 180.76 131.764 180.667L131.597 175.98C131.592 175.798 131.516 175.626 131.386 175.499C131.256 175.372 131.081 175.302 130.899 175.302Z" fill="#263238"/>
<path d="M96.5087 175.302H91.8803C91.6886 175.307 91.5026 175.369 91.3455 175.479C91.1883 175.589 91.0668 175.743 90.9959 175.921L89.4728 180.186C89.433 180.326 89.425 180.474 89.4493 180.617C89.4737 180.761 89.5297 180.898 89.6135 181.017C89.6972 181.137 89.8065 181.236 89.9335 181.308C90.0604 181.38 90.2018 181.423 90.3474 181.434H95.2607C95.4612 181.425 95.6543 181.356 95.8141 181.235C95.974 181.114 96.0929 180.946 96.155 180.756L97.3735 176.501C97.4049 176.364 97.4068 176.223 97.3791 176.086C97.3514 175.948 97.2947 175.819 97.2129 175.705C97.131 175.592 97.0258 175.497 96.9044 175.427C96.7829 175.358 96.648 175.315 96.5087 175.302Z" fill="#263238"/>
<path d="M113.655 180.795L114.274 176.078C114.287 175.981 114.278 175.882 114.249 175.788C114.221 175.694 114.172 175.607 114.107 175.533C114.042 175.46 113.961 175.401 113.872 175.361C113.782 175.321 113.684 175.301 113.586 175.302H107.69C107.533 175.302 107.38 175.356 107.257 175.454C107.134 175.552 107.048 175.689 107.012 175.842L105.961 180.559C105.937 180.661 105.936 180.766 105.959 180.868C105.982 180.97 106.028 181.065 106.094 181.147C106.159 181.228 106.242 181.294 106.337 181.338C106.431 181.383 106.534 181.405 106.639 181.404H112.997C113.162 181.4 113.32 181.336 113.441 181.224C113.562 181.112 113.638 180.959 113.655 180.795Z" fill="#263238"/>
<path d="M115.174 175.901L114.554 180.608C114.542 180.707 114.55 180.807 114.58 180.902C114.609 180.997 114.659 181.085 114.725 181.159C114.791 181.234 114.872 181.293 114.963 181.334C115.054 181.374 115.153 181.395 115.252 181.394H121.826C122.005 181.394 122.176 181.326 122.306 181.204C122.436 181.081 122.514 180.914 122.524 180.735L122.75 176.038C122.755 175.944 122.741 175.849 122.709 175.761C122.676 175.672 122.625 175.591 122.56 175.523C122.494 175.454 122.415 175.4 122.328 175.364C122.241 175.328 122.147 175.31 122.052 175.311H115.861C115.695 175.311 115.535 175.371 115.409 175.479C115.283 175.587 115.199 175.737 115.174 175.901Z" fill="#263238"/>
<path d="M167.551 180.431L166.176 175.793C166.133 175.65 166.044 175.524 165.924 175.435C165.803 175.347 165.657 175.3 165.507 175.302H159.1C158.997 175.301 158.895 175.323 158.801 175.367C158.708 175.411 158.625 175.476 158.56 175.556C158.495 175.636 158.449 175.73 158.425 175.831C158.401 175.931 158.4 176.036 158.422 176.137L159.405 180.785C159.438 180.94 159.524 181.079 159.647 181.179C159.77 181.28 159.924 181.335 160.083 181.335H166.863C166.974 181.339 167.085 181.316 167.185 181.268C167.285 181.22 167.373 181.149 167.44 181.061C167.507 180.972 167.553 180.869 167.572 180.759C167.591 180.65 167.584 180.538 167.551 180.431Z" fill="#263238"/>
<path d="M176.105 180.372L174.385 175.754C174.335 175.622 174.247 175.508 174.131 175.427C174.015 175.346 173.878 175.303 173.736 175.302H167.84C167.733 175.302 167.628 175.327 167.532 175.375C167.436 175.423 167.353 175.493 167.289 175.579C167.225 175.665 167.182 175.764 167.164 175.87C167.145 175.975 167.151 176.084 167.182 176.186L168.548 180.824C168.592 180.967 168.681 181.092 168.801 181.18C168.921 181.269 169.067 181.316 169.216 181.316H175.456C175.568 181.313 175.677 181.284 175.775 181.23C175.873 181.177 175.957 181.101 176.021 181.009C176.084 180.917 176.125 180.812 176.139 180.701C176.154 180.59 176.142 180.478 176.105 180.372Z" fill="#263238"/>
<path d="M131.157 182.426H123.905C123.726 182.425 123.555 182.494 123.425 182.616C123.295 182.739 123.217 182.906 123.207 183.084L122.971 187.939C122.967 188.033 122.982 188.127 123.016 188.215C123.049 188.303 123.1 188.383 123.165 188.451C123.23 188.519 123.308 188.573 123.395 188.61C123.482 188.647 123.575 188.666 123.669 188.666H131.334C131.428 188.665 131.52 188.645 131.606 188.607C131.692 188.57 131.77 188.516 131.835 188.448C131.9 188.38 131.951 188.301 131.984 188.213C132.018 188.126 132.034 188.032 132.032 187.939L131.855 183.104C131.85 182.922 131.774 182.75 131.644 182.623C131.513 182.497 131.339 182.426 131.157 182.426Z" fill="#263238"/>
<path d="M178.8 187.655L177.022 182.889C176.973 182.756 176.885 182.641 176.769 182.56C176.653 182.479 176.515 182.436 176.373 182.437H169.946C169.838 182.437 169.731 182.462 169.635 182.511C169.538 182.559 169.454 182.63 169.389 182.717C169.324 182.803 169.28 182.904 169.261 183.011C169.242 183.117 169.248 183.227 169.278 183.331L170.693 188.146C170.737 188.288 170.826 188.413 170.946 188.502C171.067 188.59 171.212 188.638 171.362 188.637H178.152C178.269 188.639 178.385 188.612 178.489 188.557C178.593 188.502 178.681 188.422 178.746 188.324C178.811 188.226 178.849 188.113 178.859 187.996C178.868 187.879 178.848 187.762 178.8 187.655Z" fill="#263238"/>
<path d="M169.715 187.714L168.29 182.928C168.25 182.785 168.163 182.66 168.044 182.571C167.925 182.482 167.78 182.435 167.632 182.437H160.645C160.542 182.436 160.44 182.458 160.346 182.502C160.253 182.546 160.17 182.611 160.105 182.691C160.04 182.771 159.994 182.865 159.97 182.966C159.946 183.066 159.945 183.171 159.967 183.272L160.999 188.067C161.034 188.222 161.12 188.36 161.243 188.46C161.366 188.559 161.519 188.615 161.677 188.618H169.047C169.157 188.618 169.264 188.592 169.362 188.543C169.46 188.494 169.545 188.423 169.61 188.335C169.675 188.247 169.718 188.145 169.737 188.037C169.755 187.929 169.748 187.818 169.715 187.714Z" fill="#263238"/>
<path d="M114.262 188.677H121.445C121.622 188.674 121.791 188.605 121.919 188.483C122.047 188.361 122.123 188.195 122.133 188.018L122.369 183.164C122.373 183.07 122.358 182.976 122.325 182.888C122.291 182.8 122.241 182.719 122.175 182.651C122.11 182.583 122.032 182.529 121.945 182.492C121.859 182.455 121.765 182.436 121.671 182.437H114.891C114.722 182.438 114.559 182.5 114.432 182.612C114.306 182.724 114.224 182.878 114.203 183.046L113.574 187.9C113.561 187.998 113.57 188.097 113.599 188.191C113.628 188.285 113.676 188.371 113.741 188.445C113.807 188.518 113.887 188.577 113.977 188.617C114.066 188.657 114.164 188.677 114.262 188.677Z" fill="#263238"/>
<path d="M133.552 188.647H140.362C140.458 188.648 140.554 188.628 140.642 188.589C140.73 188.55 140.809 188.493 140.874 188.422C140.939 188.351 140.988 188.266 141.019 188.175C141.049 188.083 141.059 187.986 141.05 187.89L140.608 183.075C140.593 182.902 140.514 182.741 140.387 182.623C140.26 182.505 140.093 182.438 139.92 182.437H133.375C133.282 182.438 133.19 182.458 133.104 182.495C133.019 182.533 132.942 182.587 132.877 182.655C132.813 182.723 132.763 182.802 132.731 182.89C132.698 182.977 132.683 183.07 132.687 183.164L132.864 187.989C132.872 188.166 132.947 188.333 133.076 188.456C133.204 188.579 133.374 188.647 133.552 188.647Z" fill="#263238"/>
<path d="M141.454 183.233L141.896 188.048C141.915 188.22 141.997 188.379 142.126 188.495C142.254 188.611 142.421 188.675 142.594 188.677H150.268C150.368 188.678 150.466 188.657 150.557 188.617C150.647 188.576 150.728 188.517 150.793 188.442C150.859 188.367 150.907 188.279 150.935 188.184C150.963 188.089 150.971 187.989 150.956 187.891L150.268 183.075C150.247 182.911 150.166 182.761 150.041 182.652C149.916 182.544 149.756 182.484 149.59 182.486H142.152C142.056 182.486 141.961 182.505 141.873 182.543C141.785 182.581 141.705 182.637 141.64 182.707C141.575 182.777 141.524 182.86 141.492 182.951C141.46 183.041 141.447 183.137 141.454 183.233Z" fill="#263238"/>
<path d="M160.08 187.772L159.039 182.977C159.005 182.823 158.919 182.685 158.795 182.587C158.672 182.488 158.518 182.435 158.361 182.437H151.826C151.727 182.436 151.628 182.456 151.538 182.497C151.447 182.537 151.366 182.597 151.301 182.671C151.236 182.746 151.187 182.834 151.159 182.929C151.131 183.024 151.124 183.124 151.138 183.223L151.826 188.028C151.849 188.194 151.932 188.346 152.058 188.456C152.184 188.566 152.346 188.627 152.514 188.627H159.392C159.498 188.629 159.603 188.606 159.698 188.561C159.794 188.516 159.878 188.449 159.944 188.367C160.01 188.285 160.057 188.188 160.081 188.085C160.104 187.982 160.104 187.875 160.08 187.772Z" fill="#263238"/>
<path d="M103.804 182.426H89.319C89.1793 182.427 89.0431 182.47 88.9277 182.549C88.8123 182.627 88.7228 182.738 88.6704 182.868L86.7837 187.781C86.7437 187.886 86.7298 187.999 86.7433 188.11C86.7568 188.221 86.7973 188.328 86.8613 188.42C86.9252 188.512 87.0106 188.587 87.1101 188.638C87.2096 188.69 87.3202 188.716 87.4322 188.715H102.713C102.874 188.713 103.03 188.655 103.154 188.551C103.278 188.447 103.361 188.304 103.391 188.145L104.482 183.232C104.497 183.133 104.491 183.032 104.464 182.936C104.438 182.84 104.39 182.751 104.326 182.674C104.262 182.598 104.182 182.536 104.092 182.493C104.002 182.45 103.903 182.427 103.804 182.426Z" fill="#263238"/>
<path d="M104.988 188.685H112.024C112.191 188.685 112.353 188.624 112.479 188.514C112.605 188.403 112.688 188.252 112.712 188.086L113.34 183.172C113.355 183.074 113.347 182.974 113.319 182.879C113.291 182.784 113.243 182.696 113.177 182.621C113.112 182.546 113.031 182.487 112.941 182.446C112.85 182.406 112.752 182.385 112.653 182.386H106.079C105.921 182.387 105.768 182.44 105.645 182.538C105.522 182.637 105.436 182.773 105.4 182.927L104.31 187.84C104.288 187.942 104.289 188.047 104.313 188.148C104.336 188.249 104.382 188.343 104.447 188.424C104.512 188.505 104.595 188.571 104.688 188.616C104.782 188.661 104.884 188.685 104.988 188.685Z" fill="#263238"/>
<path d="M187.446 188.579H191.966C192.083 188.581 192.199 188.553 192.303 188.498C192.407 188.444 192.495 188.364 192.56 188.266C192.625 188.168 192.664 188.055 192.673 187.938C192.683 187.821 192.663 187.703 192.615 187.596L190.708 182.85C190.656 182.72 190.566 182.609 190.451 182.531C190.336 182.452 190.199 182.409 190.06 182.408H185.923C185.813 182.409 185.705 182.436 185.607 182.486C185.509 182.537 185.425 182.609 185.36 182.698C185.295 182.786 185.252 182.889 185.234 182.997C185.215 183.105 185.222 183.217 185.254 183.322L186.797 188.068C186.838 188.21 186.923 188.336 187.039 188.428C187.156 188.52 187.298 188.572 187.446 188.579Z" fill="#263238"/>
<path d="M185.769 187.674L184.226 182.918C184.18 182.779 184.092 182.657 183.974 182.571C183.856 182.485 183.714 182.438 183.567 182.437H178.742C178.631 182.438 178.522 182.466 178.424 182.518C178.325 182.57 178.241 182.645 178.177 182.736C178.114 182.827 178.073 182.933 178.059 183.043C178.044 183.153 178.056 183.265 178.094 183.37L179.863 188.136C179.913 188.27 180.003 188.385 180.121 188.466C180.239 188.546 180.378 188.589 180.521 188.588H185.11C185.221 188.589 185.33 188.564 185.428 188.515C185.527 188.465 185.612 188.392 185.677 188.302C185.742 188.213 185.784 188.109 185.8 187.999C185.815 187.89 185.805 187.779 185.769 187.674Z" fill="#263238"/>
<path d="M113.595 196.842H120.709C120.976 196.845 121.234 196.744 121.428 196.561C121.623 196.378 121.738 196.126 121.751 195.86L121.997 190.799C122.005 190.658 121.984 190.516 121.935 190.384C121.886 190.251 121.81 190.13 121.713 190.027C121.615 189.925 121.497 189.844 121.367 189.789C121.237 189.734 121.096 189.706 120.955 189.708H114.253C113.999 189.706 113.753 189.797 113.561 189.963C113.369 190.13 113.245 190.36 113.211 190.612L112.553 195.663C112.533 195.811 112.546 195.961 112.589 196.104C112.633 196.247 112.706 196.378 112.805 196.49C112.904 196.602 113.025 196.691 113.162 196.752C113.298 196.813 113.446 196.844 113.595 196.842Z" fill="#263238"/>
<path d="M192.887 189.709H181.999C181.831 189.708 181.664 189.748 181.514 189.826C181.365 189.903 181.236 190.016 181.139 190.154C181.043 190.292 180.981 190.452 180.96 190.619C180.938 190.786 180.958 190.956 181.017 191.114L182.982 196.274C183.055 196.475 183.189 196.65 183.364 196.773C183.54 196.896 183.75 196.962 183.965 196.961H195C195.17 196.961 195.338 196.92 195.489 196.841C195.64 196.762 195.769 196.647 195.866 196.507C195.962 196.367 196.023 196.205 196.044 196.036C196.064 195.867 196.043 195.696 195.983 195.537L193.959 190.348C193.873 190.14 193.722 189.966 193.529 189.851C193.336 189.735 193.111 189.686 192.887 189.709Z" fill="#263238"/>
<path d="M103.708 190.523L102.578 195.555C102.544 195.704 102.544 195.859 102.578 196.009C102.611 196.158 102.677 196.298 102.771 196.419C102.865 196.54 102.984 196.639 103.121 196.709C103.257 196.779 103.407 196.817 103.56 196.822H110.606C110.859 196.82 111.103 196.726 111.293 196.558C111.482 196.39 111.605 196.159 111.638 195.908L112.296 190.867C112.318 190.72 112.307 190.57 112.265 190.427C112.222 190.284 112.15 190.152 112.052 190.04C111.954 189.928 111.833 189.839 111.697 189.778C111.561 189.717 111.413 189.687 111.265 189.688H104.69C104.457 189.697 104.233 189.784 104.054 189.935C103.876 190.087 103.754 190.294 103.708 190.523Z" fill="#263238"/>
<path d="M94.1468 190.465L92.6629 195.663C92.6251 195.797 92.6187 195.938 92.6443 196.075C92.6699 196.212 92.7268 196.341 92.8105 196.452C92.8942 196.564 93.0024 196.654 93.1269 196.717C93.2513 196.779 93.3884 196.812 93.5277 196.813H100.721C100.926 196.813 101.124 196.743 101.283 196.614C101.443 196.485 101.553 196.306 101.595 196.105L102.784 190.809C102.816 190.676 102.817 190.538 102.787 190.405C102.757 190.273 102.697 190.148 102.611 190.042C102.526 189.936 102.418 189.851 102.294 189.793C102.171 189.735 102.036 189.706 101.9 189.708L95.0213 189.797C94.8223 189.796 94.6288 189.861 94.4707 189.982C94.3125 190.103 94.1987 190.273 94.1468 190.465Z" fill="#263238"/>
<path d="M161.63 190.965L162.741 196.105C162.789 196.331 162.913 196.535 163.091 196.683C163.269 196.831 163.492 196.915 163.723 196.92H171.015C171.176 196.916 171.334 196.875 171.477 196.801C171.619 196.726 171.743 196.619 171.838 196.489C171.933 196.359 171.996 196.209 172.024 196.05C172.052 195.892 172.043 195.729 171.998 195.574L170.465 190.435C170.403 190.221 170.274 190.033 170.097 189.898C169.92 189.764 169.704 189.69 169.482 189.688H162.603C162.449 189.692 162.298 189.731 162.161 189.801C162.024 189.872 161.905 189.972 161.812 190.094C161.718 190.217 161.654 190.359 161.622 190.509C161.591 190.66 161.594 190.816 161.63 190.965Z" fill="#263238"/>
<path d="M122.844 190.701L122.598 195.761C122.59 195.903 122.611 196.045 122.66 196.178C122.709 196.311 122.784 196.433 122.882 196.536C122.979 196.639 123.097 196.721 123.227 196.777C123.358 196.833 123.498 196.862 123.64 196.862L160.765 196.921C160.918 196.914 161.067 196.874 161.203 196.804C161.338 196.734 161.457 196.635 161.55 196.515C161.644 196.394 161.71 196.254 161.744 196.106C161.778 195.957 161.78 195.803 161.748 195.653L160.638 190.524C160.588 190.298 160.464 190.095 160.286 189.948C160.108 189.8 159.886 189.716 159.655 189.708H123.886C123.618 189.708 123.36 189.811 123.166 189.996C122.972 190.18 122.857 190.433 122.844 190.701Z" fill="#263238"/>
<path d="M86.0327 190.248L84.0673 195.682C84.0214 195.807 84.0063 195.941 84.0234 196.073C84.0405 196.205 84.0893 196.331 84.1655 196.44C84.2418 196.549 84.3433 196.638 84.4613 196.7C84.5794 196.761 84.7106 196.793 84.8437 196.793H90.8773C91.0564 196.79 91.23 196.73 91.373 196.623C91.5161 196.515 91.6212 196.365 91.6732 196.193L93.2259 190.749C93.2609 190.626 93.2669 190.497 93.2433 190.371C93.2197 190.245 93.1673 190.127 93.0901 190.025C93.0129 189.923 92.9131 189.84 92.7985 189.784C92.684 189.727 92.5578 189.697 92.4299 189.698H86.8385C86.6631 189.692 86.4905 189.742 86.3456 189.841C86.2007 189.94 86.0911 190.083 86.0327 190.248Z" fill="#263238"/>
<path d="M171.571 191.093L173.094 196.242C173.158 196.454 173.287 196.641 173.464 196.775C173.64 196.909 173.855 196.984 174.076 196.989H180.729C180.898 196.99 181.064 196.95 181.214 196.873C181.364 196.795 181.493 196.682 181.589 196.544C181.686 196.406 181.748 196.246 181.769 196.079C181.79 195.912 181.771 195.742 181.712 195.584L179.746 190.425C179.672 190.225 179.538 190.052 179.362 189.931C179.186 189.81 178.977 189.745 178.764 189.747H172.504C172.347 189.756 172.193 189.801 172.056 189.878C171.918 189.956 171.8 190.063 171.71 190.193C171.62 190.322 171.561 190.471 171.537 190.627C171.513 190.783 171.524 190.942 171.571 191.093Z" fill="#263238"/>
<path d="M197.345 170.742C197.345 170.88 172.208 170.998 141.205 170.998C110.201 170.998 85.0645 170.88 85.0645 170.742C85.0645 170.605 110.191 170.487 141.205 170.487C172.218 170.487 197.345 170.595 197.345 170.742Z" fill="#263238"/>
<path d="M119.277 123.555C120.306 122.701 121.447 121.99 122.668 121.443L122.874 117.738L128.917 116.755L130.323 120.185C131.666 120.31 132.988 120.61 134.253 121.079L137.015 118.622L142.007 122.18L140.572 125.59C141.427 126.62 142.141 127.761 142.695 128.98L146.389 129.186L147.372 135.23L143.943 136.635C143.828 137.98 143.527 139.303 143.048 140.566L145.515 143.327L141.958 148.319L138.528 146.874C137.499 147.724 136.362 148.434 135.148 148.987L134.931 152.682L128.888 153.665L127.483 150.235C126.138 150.12 124.815 149.819 123.552 149.341L120.83 151.788L115.838 148.23L117.273 144.821C116.422 143.787 115.709 142.647 115.15 141.43L111.455 141.214L110.473 135.171L113.902 133.765C114.027 132.422 114.328 131.1 114.796 129.835L112.33 127.073L115.887 122.081L119.307 123.516L119.277 123.555ZM123.709 131.142C122.955 132.2 122.532 133.459 122.492 134.758C122.453 136.057 122.8 137.339 123.489 138.441C124.178 139.543 125.178 140.416 126.363 140.95C127.548 141.484 128.865 141.655 130.147 141.441C131.429 141.226 132.618 140.637 133.565 139.747C134.513 138.857 135.175 137.706 135.468 136.44C135.761 135.174 135.673 133.849 135.213 132.633C134.754 131.417 133.945 130.365 132.887 129.609C132.184 129.107 131.388 128.748 130.546 128.554C129.703 128.359 128.831 128.333 127.978 128.476C127.126 128.62 126.31 128.93 125.577 129.389C124.845 129.848 124.21 130.447 123.709 131.152V131.142Z" fill="#F5F5F5"/>
<path d="M152.58 138.942C153.277 138.367 154.047 137.888 154.87 137.517L155.017 135.011L159.105 134.323L160.088 136.642C160.989 136.728 161.874 136.933 162.722 137.252L164.589 135.581L167.969 137.989L166.986 140.298C167.561 140.998 168.041 141.771 168.411 142.597L170.917 142.735L171.605 146.833L169.286 147.815C169.198 148.716 168.993 149.601 168.677 150.449L170.347 152.316L167.93 155.716L165.611 154.733C164.916 155.314 164.146 155.796 163.321 156.168L163.183 158.674L159.086 159.362L158.103 157.033C157.203 156.949 156.317 156.748 155.469 156.433L153.602 158.094L150.222 155.687L151.205 153.377C150.623 152.684 150.14 151.913 149.77 151.088L147.264 150.94L146.576 146.852L148.905 145.87C148.983 144.968 149.184 144.082 149.505 143.236L147.834 141.369L150.251 137.989L152.561 138.971L152.58 138.942ZM155.587 144.081C155.075 144.798 154.788 145.651 154.76 146.531C154.733 147.412 154.968 148.28 155.435 149.027C155.901 149.774 156.579 150.366 157.383 150.728C158.186 151.089 159.078 151.204 159.947 151.058C160.816 150.913 161.622 150.512 162.263 149.908C162.904 149.304 163.351 148.523 163.548 147.664C163.746 146.806 163.683 145.908 163.37 145.085C163.057 144.262 162.506 143.55 161.788 143.04C160.827 142.357 159.635 142.083 158.472 142.278C157.31 142.474 156.272 143.122 155.587 144.081Z" fill="#F5F5F5"/>
<path d="M150.659 115.016C151.277 114.509 151.958 114.083 152.683 113.748L152.811 111.537L156.437 110.928L157.272 112.982C158.072 113.061 158.858 113.242 159.611 113.522L161.262 112.038L164.21 114.171L163.355 116.224C163.868 116.838 164.295 117.519 164.623 118.249L166.844 118.376L167.443 122.002L165.389 122.838C165.319 123.638 165.141 124.425 164.859 125.177L166.333 126.827L164.2 129.825L162.156 128.96C161.539 129.473 160.854 129.899 160.122 130.227L159.994 132.448L156.378 133.058L155.533 131.004C154.737 130.926 153.954 130.744 153.204 130.463L151.543 131.937L148.595 129.805L149.45 127.761C148.94 127.142 148.514 126.458 148.183 125.727L145.972 125.599L145.362 121.983L147.416 121.138C147.49 120.341 147.672 119.557 147.957 118.809L146.473 117.148L148.605 114.2L150.659 115.055V115.016ZM153.312 119.565C152.862 120.198 152.609 120.95 152.585 121.727C152.562 122.503 152.769 123.269 153.18 123.928C153.592 124.587 154.19 125.109 154.898 125.428C155.606 125.748 156.393 125.85 157.159 125.723C157.925 125.595 158.637 125.244 159.203 124.712C159.77 124.181 160.166 123.493 160.342 122.737C160.519 121.98 160.467 121.188 160.193 120.461C159.919 119.734 159.436 119.104 158.805 118.652C158.385 118.35 157.909 118.134 157.405 118.017C156.901 117.9 156.379 117.883 155.869 117.968C155.359 118.053 154.87 118.238 154.431 118.512C153.993 118.786 153.612 119.144 153.312 119.565Z" fill="#F5F5F5"/>
<path d="M107.485 137.107L108.193 135.525C108.943 136.001 109.81 136.26 110.699 136.271C111.593 136.271 111.937 136.026 111.937 135.652C111.937 134.444 107.613 135.328 107.613 132.498C107.613 131.142 108.724 130.031 110.984 130.031C111.945 130.017 112.894 130.243 113.745 130.69L113.077 132.292C112.435 131.924 111.713 131.722 110.974 131.702C110.07 131.702 109.746 132.007 109.746 132.39C109.746 133.549 114.059 132.685 114.059 135.485C114.059 136.812 112.949 137.942 110.689 137.942C109.564 137.971 108.453 137.681 107.485 137.107Z" fill="#263238"/>
<path d="M114.663 133.991C114.6 133.14 114.795 132.29 115.222 131.551C115.649 130.813 116.289 130.22 117.058 129.85C117.828 129.481 118.69 129.352 119.534 129.48C120.378 129.608 121.163 129.987 121.788 130.569C122.413 131.15 122.848 131.906 123.037 132.738C123.225 133.57 123.159 134.44 122.846 135.234C122.533 136.028 121.988 136.709 121.282 137.188C120.576 137.668 119.742 137.924 118.889 137.922C118.348 137.963 117.805 137.891 117.294 137.712C116.782 137.533 116.313 137.249 115.916 136.88C115.52 136.511 115.203 136.064 114.988 135.567C114.772 135.07 114.662 134.533 114.663 133.991ZM120.942 133.991C120.919 133.591 120.78 133.206 120.54 132.884C120.301 132.562 119.973 132.317 119.596 132.18C119.219 132.042 118.811 132.018 118.42 132.11C118.03 132.202 117.675 132.407 117.4 132.698C117.124 132.989 116.94 133.355 116.87 133.75C116.8 134.145 116.847 134.551 117.005 134.92C117.163 135.288 117.426 135.602 117.761 135.823C118.095 136.044 118.487 136.162 118.889 136.163C119.169 136.166 119.448 136.112 119.706 136.002C119.965 135.892 120.198 135.731 120.391 135.527C120.584 135.323 120.732 135.081 120.827 134.817C120.922 134.552 120.961 134.271 120.942 133.991Z" fill="#263238"/>
<path d="M126.402 131.849V133.52H129.763V135.181H126.402V137.794H124.25V130.169H130.215V131.83L126.402 131.849Z" fill="#263238"/>
<path d="M132.909 131.889H130.57V130.169H137.38V131.869H135.061V137.765H132.909V131.889Z" fill="#263238"/>
<path d="M149.936 130.169L147.47 137.775H145.17L143.667 133.166L142.144 137.794H139.844L137.417 130.169H139.628L141.161 135.023L142.773 130.169H144.738L146.261 135.082L147.863 130.169H149.936Z" fill="#263238"/>
<path d="M155.551 136.311H152.338L151.738 137.794H149.566L152.917 130.188H155.04L158.41 137.794H156.15L155.551 136.311ZM154.922 134.728L153.939 132.291L152.957 134.728H154.922Z" fill="#263238"/>
<path d="M162.341 135.77H161.162V137.794H159V130.169H162.479C164.552 130.169 165.859 131.24 165.859 132.979C165.879 133.483 165.748 133.981 165.484 134.409C165.22 134.838 164.834 135.178 164.375 135.387L166.016 137.775H163.707L162.341 135.77ZM162.341 131.839H161.142V134.1H162.341C163.235 134.1 163.678 133.687 163.678 132.989C163.678 132.292 163.245 131.879 162.341 131.879V131.839Z" fill="#263238"/>
<path d="M173.147 136.134V137.794H167.035V130.169H173V131.83H169.217V133.117H172.597V134.729H169.217V136.124L173.147 136.134Z" fill="#263238"/>
<path d="M105.886 139.682H106.918V146.944H105.886V139.682Z" fill="#263238"/>
<path d="M115.344 139.682V146.944H114.498L110.135 141.53V146.944H109.104V139.682H109.949L114.312 145.097V139.682H115.344Z" fill="#263238"/>
<path d="M118.952 140.586H116.466V139.682H122.47V140.586H119.984V146.944H119.001L118.952 140.586Z" fill="#263238"/>
<path d="M128.874 146.04V146.944H123.606V139.682H128.736V140.586H124.648V142.817H128.284V143.691H124.648V146.04H128.874Z" fill="#263238"/>
<path d="M135.551 143.268H136.533V146.098C135.756 146.718 134.786 147.045 133.792 147.022C133.186 146.997 132.596 146.824 132.073 146.518C131.55 146.212 131.109 145.783 130.79 145.268C130.471 144.753 130.282 144.167 130.241 143.563C130.2 142.958 130.307 142.353 130.554 141.799C130.801 141.246 131.179 140.761 131.656 140.387C132.133 140.013 132.694 139.762 133.29 139.655C133.887 139.548 134.501 139.588 135.078 139.773C135.655 139.957 136.178 140.28 136.602 140.713L135.954 141.362C135.679 141.086 135.35 140.869 134.989 140.724C134.627 140.578 134.24 140.508 133.851 140.517C133.111 140.517 132.401 140.811 131.877 141.334C131.354 141.857 131.06 142.567 131.06 143.307C131.06 144.048 131.354 144.757 131.877 145.281C132.401 145.804 133.111 146.098 133.851 146.098C134.45 146.115 135.042 145.954 135.551 145.636V143.268Z" fill="#263238"/>
<path d="M143.387 146.942L141.814 144.712H141.362H139.564V146.923H138.532V139.661H141.362C143.249 139.661 144.389 140.643 144.389 142.186C144.413 142.691 144.271 143.19 143.983 143.606C143.695 144.021 143.278 144.331 142.797 144.486L144.517 146.923L143.387 146.942ZM143.387 142.206C143.387 141.174 142.689 140.584 141.362 140.584H139.594V143.847H141.362C142.689 143.847 143.357 143.247 143.357 142.206H143.387Z" fill="#263238"/>
<path d="M150.698 145.126H146.836L146.04 146.944H144.969L148.261 139.682H149.243L152.545 146.944H151.533L150.698 145.126ZM150.334 144.301L148.762 140.734L147.199 144.301H150.334Z" fill="#263238"/>
<path d="M154.731 140.586H152.245V139.682H158.249V140.586H155.763V146.944H154.731V140.586Z" fill="#263238"/>
<path d="M159.392 139.682H160.374V146.944H159.392V139.682Z" fill="#263238"/>
<path d="M162.006 143.307C161.976 142.537 162.178 141.777 162.584 141.122C162.99 140.468 163.582 139.95 164.285 139.635C164.987 139.32 165.768 139.223 166.527 139.354C167.285 139.486 167.987 139.842 168.542 140.376C169.097 140.91 169.48 141.597 169.641 142.35C169.802 143.103 169.735 143.887 169.448 144.601C169.16 145.315 168.666 145.927 168.028 146.359C167.39 146.79 166.638 147.021 165.868 147.021C165.367 147.045 164.866 146.967 164.396 146.791C163.926 146.614 163.498 146.344 163.136 145.996C162.775 145.649 162.488 145.231 162.293 144.768C162.099 144.306 162.001 143.808 162.006 143.307ZM168.688 143.307C168.696 142.745 168.536 142.194 168.23 141.723C167.923 141.252 167.483 140.883 166.966 140.663C166.449 140.443 165.878 140.382 165.327 140.488C164.775 140.593 164.267 140.861 163.867 141.256C163.468 141.651 163.195 142.156 163.084 142.707C162.973 143.257 163.028 143.829 163.242 144.348C163.457 144.867 163.821 145.311 164.289 145.622C164.756 145.934 165.306 146.099 165.868 146.097C166.239 146.11 166.609 146.046 166.954 145.91C167.3 145.775 167.614 145.57 167.878 145.309C168.142 145.048 168.35 144.735 168.489 144.391C168.629 144.047 168.696 143.678 168.688 143.307Z" fill="#263238"/>
<path d="M177.552 139.682V146.944H176.697L172.343 141.53V146.944H171.302V139.682H172.167L176.52 145.097V139.682H177.552Z" fill="#263238"/>
</svg>
