<svg width="382" height="103" viewBox="0 0 382 103" fill="none" xmlns="http://www.w3.org/2000/svg">
<path d="M362.883 52.3164C362.883 52.3164 362.533 52.8484 361.855 53.7738" stroke="#CDCDCD" stroke-linecap="round" stroke-linejoin="round"/>
<path d="M359.683 56.7691C350.785 68.494 323.911 99.5222 287.002 102.16C241.4 105.432 197.976 33.2247 152.381 12.0485C107.624 -8.72681 50.3624 -0.747493 1 40.6138" stroke="#CDCDCD" stroke-linecap="round" stroke-linejoin="round" stroke-dasharray="5.03 5.03"/>
<path d="M380.86 25.7695L346.422 38.296L361.448 43.9288L380.86 25.7695Z" fill="#144C96" stroke="#CDCDCD" stroke-linecap="round" stroke-linejoin="round"/>
<path d="M361.445 43.9288L362.881 52.3162L365.446 45.2551L380.858 25.7695L361.445 43.9288Z" fill="#144C96" stroke="#CDCDCD" stroke-linecap="round" stroke-linejoin="round"/>
<path d="M362.883 52.3162L380.86 25.7695L365.448 45.2551L362.883 52.3162Z" fill="#144C96" stroke="#CDCDCD" stroke-linecap="round" stroke-linejoin="round"/>
<path d="M380.857 25.7695L365.445 45.2551L379.56 51.6677L380.857 25.7695Z" fill="#144C96" stroke="#CDCDCD" stroke-linecap="round" stroke-linejoin="round"/>
</svg>
