<svg width="50" height="59" viewBox="0 0 50 59" fill="none" xmlns="http://www.w3.org/2000/svg">
<path d="M40.2983 25.0305C40.2998 22.6423 39.726 20.2889 38.6254 18.1694C37.5249 16.0499 35.9299 14.2267 33.9756 12.8541C32.0213 11.4814 29.7651 10.5998 27.3979 10.2837C25.0307 9.96755 22.6222 10.2263 20.3762 11.0381C18.1302 11.8498 16.1128 13.1906 14.4946 14.9471C12.8765 16.7035 11.7053 18.8239 11.0801 21.1288C10.4549 23.4338 10.3941 25.8554 10.9028 28.1887C11.4116 30.5221 12.475 32.6986 14.003 34.534C16.192 37.1599 17.3906 40.4705 17.39 43.8892V45.9263H33.4649V43.8892C33.4614 40.4739 34.6586 37.166 36.847 34.5439C39.077 31.8754 40.2986 28.5082 40.2983 25.0305Z" fill="#FFC727" stroke="#263238" stroke-miterlimit="10"/>
<path opacity="0.44" d="M25.4176 35.4788C30.6253 35.4788 34.8469 31.2571 34.8469 26.0494C34.8469 20.8418 30.6253 16.6201 25.4176 16.6201C20.2099 16.6201 15.9883 20.8418 15.9883 26.0494C15.9883 31.2571 20.2099 35.4788 25.4176 35.4788Z" fill="white"/>
<path d="M33.4655 45.9399H17.3906V49.9154H33.4655V45.9399Z" fill="#7D7D7D" stroke="#263238" stroke-linecap="round" stroke-linejoin="round"/>
<path d="M17.3906 49.9258H33.4655V51.5674C33.4655 52.1877 33.2191 52.7825 32.7805 53.2212C32.3419 53.6598 31.747 53.9062 31.1267 53.9062H19.7294C19.1091 53.9062 18.5142 53.6598 18.0756 53.2212C17.637 52.7825 17.3906 52.1877 17.3906 51.5674V49.9258Z" fill="#7D7D7D" stroke="#263238" stroke-linecap="round" stroke-linejoin="round"/>
<path d="M19.4033 53.8975H31.4187V54.7034C31.4187 55.544 31.0847 56.3502 30.4904 56.9446C29.896 57.539 29.0898 57.8729 28.2492 57.8729H22.5876C21.747 57.8729 20.9409 57.539 20.3465 56.9446C19.7521 56.3502 19.4182 55.544 19.4182 54.7034V53.8975H19.4033Z" fill="white" stroke="#263238" stroke-linecap="round" stroke-linejoin="round"/>
<path d="M42.4062 25.1094H49.2199" stroke="#263238" stroke-linecap="round" stroke-linejoin="round"/>
<path d="M1 25.1094H7.8977" stroke="#263238" stroke-linecap="round" stroke-linejoin="round"/>
<path d="M25.1094 7.83342V1" stroke="#263238" stroke-linecap="round" stroke-linejoin="round"/>
<path d="M37.457 12.7624L42.1593 8.06006" stroke="#263238" stroke-linecap="round" stroke-linejoin="round"/>
<path d="M8.06055 42.1582L12.8321 37.3867" stroke="#263238" stroke-linecap="round" stroke-linejoin="round"/>
<path d="M12.6293 12.6289L8.06055 8.06006" stroke="#263238" stroke-linecap="round" stroke-linejoin="round"/>
<path d="M42.1584 42.1584L37.6094 37.6094" stroke="#263238" stroke-linecap="round" stroke-linejoin="round"/>
</svg>
