<svg width="48" height="48" viewBox="0 0 48 48" fill="none" xmlns="http://www.w3.org/2000/svg">
<path d="M14.0498 26.5799L19.7198 19.5799C16.9384 18.8772 14.0364 18.7953 11.2198 19.3399C8.09979 20.1099 7.60979 25.9999 7.55979 28.7899C7.5563 28.9448 7.59422 29.0977 7.66962 29.233C7.74502 29.3683 7.85518 29.481 7.98871 29.5595C8.12225 29.638 8.27431 29.6794 8.4292 29.6795C8.58409 29.6796 8.73619 29.6383 8.86979 29.5599L14.0498 26.5799Z" fill="#FFC727"/>
<path d="M11.2397 22.0002C13.4197 21.5517 15.6637 21.5077 17.8597 21.8702L19.7197 19.5902C16.9383 18.8875 14.0363 18.8055 11.2197 19.3502C8.09966 20.1102 7.60966 26.0002 7.55966 28.7902C7.55715 28.9606 7.60593 29.1278 7.69966 29.2702C7.99966 26.3302 8.78966 22.6102 11.2397 22.0002Z" fill="#FF866E"/>
<path d="M14.0498 26.5799L19.7198 19.5799C16.9384 18.8772 14.0364 18.7953 11.2198 19.3399C8.09979 20.1099 7.60979 25.9999 7.55979 28.7899C7.5563 28.9448 7.59422 29.0977 7.66962 29.233C7.74502 29.3683 7.85518 29.481 7.98871 29.5595C8.12225 29.638 8.27431 29.6794 8.4292 29.6795C8.58409 29.6796 8.73619 29.6383 8.86979 29.5599L14.0498 26.5799Z" stroke="#45413C" stroke-linecap="round" stroke-linejoin="round"/>
<path d="M20.8604 33.4L27.8604 27.73C28.5626 30.5081 28.6445 33.4067 28.1004 36.22C27.3704 39.34 21.5204 39.83 18.6904 39.88C18.5355 39.8835 18.3825 39.8456 18.2473 39.7701C18.112 39.6947 17.9992 39.5846 17.9208 39.4511C17.8423 39.3175 17.8008 39.1655 17.8008 39.0106C17.8007 38.8557 17.842 38.7036 17.9204 38.57L20.8604 33.4Z" fill="#FFC727"/>
<path d="M25.4099 36.21C25.8635 34.0271 25.9076 31.779 25.5399 29.58L27.8199 27.73C28.5221 30.5081 28.604 33.4067 28.0599 36.22C27.3299 39.34 21.4799 39.83 18.6499 39.88C18.4797 39.8813 18.3128 39.8326 18.1699 39.74C21.1099 39.48 24.8299 38.65 25.4099 36.21Z" fill="#FF866E"/>
<path d="M20.8604 33.4L27.8604 27.73C28.5626 30.5081 28.6445 33.4067 28.1004 36.22C27.3704 39.34 21.5204 39.83 18.6904 39.88C18.5355 39.8835 18.3825 39.8456 18.2473 39.7701C18.112 39.6947 17.9992 39.5846 17.9208 39.4511C17.8423 39.3175 17.8008 39.1655 17.8008 39.0106C17.8007 38.8557 17.842 38.7036 17.9204 38.57L20.8604 33.4Z" stroke="#45413C" stroke-linecap="round" stroke-linejoin="round"/>
<path d="M39.48 21.5598C44.9 15.8598 43.19 8.82984 42.34 6.35984C42.2425 6.06621 42.0782 5.79921 41.86 5.57984C41.6408 5.36639 41.3782 5.20268 41.09 5.09984C38.62 4.24984 31.58 2.53984 25.88 7.99984C18.84 14.6598 14 26.4998 14 26.4998L21 33.4998C21 33.4998 32.78 28.5998 39.48 21.5598Z" fill="#E8F4FA"/>
<path d="M28.05 11.8698C33.58 6.59984 40.36 8.06984 43.05 8.92984C42.8962 8.05753 42.6755 7.19833 42.39 6.35984C42.2877 6.06238 42.1166 5.79325 41.8907 5.57432C41.6649 5.35539 41.3905 5.19283 41.09 5.09984C38.62 4.24984 31.58 2.53984 25.88 7.99984C18.84 14.6598 14 26.4998 14 26.4998L16.69 29.1898C18.12 25.9998 22.37 17.2698 28.05 11.8698Z" fill="white"/>
<path d="M39.48 21.5598C44.9 15.8598 43.19 8.82984 42.34 6.35984C42.2425 6.06621 42.0782 5.79921 41.86 5.57984C41.6408 5.36639 41.3782 5.20268 41.09 5.09984C38.62 4.24984 31.58 2.53984 25.88 7.99984C18.84 14.6598 14 26.4998 14 26.4998L21 33.4998C21 33.4998 32.78 28.5998 39.48 21.5598Z" stroke="#45413C" stroke-linecap="round" stroke-linejoin="round"/>
<path opacity="0.15" d="M18.2197 44.21C18.2197 44.6078 19.2733 44.9893 21.1487 45.2706C23.024 45.5519 25.5676 45.71 28.2197 45.71C30.8719 45.71 33.4154 45.5519 35.2908 45.2706C37.1662 44.9893 38.2197 44.6078 38.2197 44.21C38.2197 43.8121 37.1662 43.4306 35.2908 43.1493C33.4154 42.868 30.8719 42.71 28.2197 42.71C25.5676 42.71 23.024 42.868 21.1487 43.1493C19.2733 43.4306 18.2197 43.8121 18.2197 44.21Z" fill="#45413C"/>
<path d="M22.7002 25.65C22.7729 25.5211 22.8016 25.3721 22.782 25.2255C22.7624 25.0789 22.6955 24.9427 22.5914 24.8375C22.4874 24.7324 22.3519 24.664 22.2055 24.6428C22.0591 24.6216 21.9098 24.6487 21.7802 24.72C19.8321 25.7171 18.0426 26.9977 16.4702 28.52C14.8047 30.1976 13.4892 32.1895 12.6002 34.38C12.5734 34.4419 12.5657 34.5104 12.5779 34.5768C12.5902 34.6432 12.622 34.7044 12.6692 34.7527C12.7164 34.8009 12.7768 34.8341 12.8429 34.8478C12.909 34.8616 12.9777 34.8554 13.0402 34.83C15.2273 33.9529 17.219 32.6511 18.9002 31C20.4283 29.4175 21.7093 27.614 22.7002 25.65Z" fill="#FFC727" stroke="#45413C" stroke-linecap="round" stroke-linejoin="round"/>
<path d="M28.2402 13.72C28.2402 15.176 28.8186 16.5724 29.8482 17.602C30.8778 18.6316 32.2742 19.21 33.7302 19.21C35.1863 19.21 36.5827 18.6316 37.6122 17.602C38.6418 16.5724 39.2202 15.176 39.2202 13.72C39.2202 12.2639 38.6418 10.8675 37.6122 9.83797C36.5827 8.80839 35.1863 8.22998 33.7302 8.22998C32.2742 8.22998 30.8778 8.80839 29.8482 9.83797C28.8186 10.8675 28.2402 12.2639 28.2402 13.72Z" fill="#C0DCEB" stroke="#45413C" stroke-linecap="round" stroke-linejoin="round"/>
<path d="M29.96 13.6901C29.96 14.1892 30.0583 14.6833 30.2492 15.1443C30.4402 15.6054 30.7201 16.0243 31.073 16.3771C31.4258 16.73 31.8447 17.0099 32.3058 17.2009C32.7668 17.3918 33.2609 17.4901 33.76 17.4901C34.259 17.4901 34.7531 17.3918 35.2142 17.2009C35.6752 17.0099 36.0941 16.73 36.447 16.3771C36.7998 16.0243 37.0797 15.6054 37.2707 15.1443C37.4617 14.6833 37.56 14.1892 37.56 13.6901C37.56 13.1911 37.4617 12.697 37.2707 12.2359C37.0797 11.7749 36.7998 11.356 36.447 11.0031C36.0941 10.6503 35.6752 10.3704 35.2142 10.1794C34.7531 9.98843 34.259 9.89014 33.76 9.89014C33.2609 9.89014 32.7668 9.98843 32.3058 10.1794C31.8447 10.3704 31.4258 10.6503 31.073 11.0031C30.7201 11.356 30.4402 11.7749 30.2492 12.2359C30.0583 12.697 29.96 13.1911 29.96 13.6901Z" fill="#00B8F0"/>
<path d="M31.0701 10.9999C30.7163 11.3528 30.4357 11.7721 30.2442 12.2337C30.0527 12.6953 29.9541 13.1901 29.9541 13.6899C29.9541 14.1896 30.0527 14.6844 30.2442 15.146C30.4357 15.6076 30.7163 16.0269 31.0701 16.3799C31.3244 16.6236 31.6103 16.8321 31.9201 16.9999L35.4701 10.3099C34.7585 9.94266 33.9484 9.8116 33.1573 9.93566C32.3662 10.0597 31.6352 10.4325 31.0701 10.9999Z" fill="#4ACFFF"/>
<path d="M29.96 13.6901C29.96 14.1892 30.0583 14.6833 30.2492 15.1443C30.4402 15.6054 30.7201 16.0243 31.073 16.3771C31.4258 16.73 31.8447 17.0099 32.3058 17.2009C32.7668 17.3918 33.2609 17.4901 33.76 17.4901C34.259 17.4901 34.7531 17.3918 35.2142 17.2009C35.6752 17.0099 36.0941 16.73 36.447 16.3771C36.7998 16.0243 37.0797 15.6054 37.2707 15.1443C37.4617 14.6833 37.56 14.1892 37.56 13.6901C37.56 13.1911 37.4617 12.697 37.2707 12.2359C37.0797 11.7749 36.7998 11.356 36.447 11.0031C36.0941 10.6503 35.6752 10.3704 35.2142 10.1794C34.7531 9.98843 34.259 9.89014 33.76 9.89014C33.2609 9.89014 32.7668 9.98843 32.3058 10.1794C31.8447 10.3704 31.4258 10.6503 31.073 11.0031C30.7201 11.356 30.4402 11.7749 30.2492 12.2359C30.0583 12.697 29.96 13.1911 29.96 13.6901Z" stroke="#45413C" stroke-linecap="round" stroke-linejoin="round"/>
<path d="M11.3402 41.47C10.6402 42.17 6.18022 43.68 3.92022 44.41C3.50022 44.55 2.92022 43.94 3.03022 43.52C3.76022 41.27 5.27022 36.81 6.03022 36.1C6.98022 35.1 9.46022 35.1 10.9402 36.56C12.4202 38.02 12.2902 40.52 11.3402 41.47Z" fill="#FF8A14" stroke="#45413C" stroke-linecap="round" stroke-linejoin="round"/>
<path d="M10.13 39.79C9.63003 40.28 7.56003 40.79 7.13003 40.35C6.70003 39.91 7.20003 37.81 7.70003 37.35C8.03131 37.1238 8.43658 37.0331 8.83266 37.0963C9.22875 37.1595 9.58562 37.3719 9.83003 37.69C10.1356 37.9377 10.3363 38.2917 10.3919 38.6811C10.4475 39.0705 10.354 39.4666 10.13 39.79Z" fill="#FFE500" stroke="#45413C" stroke-linecap="round" stroke-linejoin="round"/>
<path d="M43.3198 23.69L44.1198 25.2C44.1515 25.2597 44.1971 25.3109 44.2528 25.3492C44.3085 25.3875 44.3727 25.4118 44.4398 25.42L46.1298 25.62C46.2075 25.6295 46.281 25.6605 46.342 25.7095C46.403 25.7585 46.4491 25.8236 46.4751 25.8974C46.5011 25.9713 46.506 26.0509 46.4891 26.1273C46.4723 26.2038 46.4344 26.274 46.3798 26.33L45.1898 27.55C45.1409 27.5968 45.1051 27.6556 45.0858 27.7205C45.0665 27.7853 45.0644 27.8541 45.0798 27.92L45.4098 29.59C45.4244 29.666 45.4178 29.7446 45.3906 29.8171C45.3633 29.8895 45.3166 29.953 45.2556 30.0006C45.1946 30.0482 45.1216 30.078 45.0447 30.0867C44.9677 30.0954 44.8899 30.0827 44.8198 30.05L43.2898 29.29C43.2292 29.26 43.1624 29.2445 43.0948 29.2445C43.0272 29.2445 42.9604 29.26 42.8998 29.29L41.4098 30.13C41.3408 30.1646 41.2638 30.1799 41.1868 30.1744C41.1098 30.1689 41.0357 30.1428 40.9723 30.0988C40.9089 30.0548 40.8585 29.9946 40.8264 29.9244C40.7943 29.8543 40.7816 29.7768 40.7898 29.7L40.9998 28C41.009 27.934 41.002 27.8667 40.9794 27.8039C40.9567 27.7412 40.9191 27.6849 40.8698 27.64L39.6598 26.5C39.603 26.447 39.562 26.3792 39.5414 26.3042C39.5208 26.2292 39.5214 26.15 39.5432 26.0754C39.5649 26.0007 39.607 25.9336 39.6647 25.8815C39.7223 25.8293 39.7933 25.7942 39.8698 25.78L41.5498 25.49C41.6164 25.4801 41.6795 25.4539 41.7336 25.4138C41.7876 25.3737 41.831 25.3209 41.8598 25.26L42.5798 23.71C42.6112 23.6392 42.662 23.5788 42.7264 23.5356C42.7908 23.4925 42.866 23.4686 42.9435 23.4665C43.0209 23.4644 43.0974 23.4843 43.164 23.5238C43.2306 23.5634 43.2846 23.621 43.3198 23.69Z" fill="#FFE500"/>
<path d="M40.5298 27.3099L41.5898 27.1199C41.6567 27.1109 41.7202 27.085 41.7744 27.0448C41.8286 27.0046 41.8717 26.9513 41.8998 26.8899L42.6198 25.3399C42.6548 25.2705 42.7084 25.2122 42.7746 25.1714C42.8408 25.1307 42.917 25.1091 42.9948 25.1091C43.0725 25.1091 43.1488 25.1307 43.215 25.1714C43.2812 25.2122 43.3348 25.2705 43.3698 25.3399L44.1598 26.8499C44.1915 26.9096 44.2371 26.9608 44.2928 26.9991C44.3486 27.0374 44.4127 27.0617 44.4798 27.0699L45.5498 27.1999L46.3798 26.3499C46.4344 26.2939 46.4723 26.2237 46.4891 26.1472C46.506 26.0708 46.5011 25.9912 46.4751 25.9173C46.4491 25.8435 46.403 25.7784 46.342 25.7294C46.281 25.6804 46.2075 25.6494 46.1298 25.6399L44.4398 25.4399C44.3727 25.4317 44.3085 25.4074 44.2528 25.3691C44.1971 25.3308 44.1515 25.2796 44.1198 25.2199L43.3198 23.7099C43.2864 23.6401 43.234 23.5811 43.1685 23.5398C43.103 23.4985 43.0272 23.4766 42.9498 23.4766C42.8724 23.4766 42.7965 23.4985 42.7311 23.5398C42.6656 23.5811 42.6131 23.6401 42.5798 23.7099L41.8598 25.2599C41.831 25.3208 41.7876 25.3736 41.7336 25.4137C41.6795 25.4538 41.6164 25.48 41.5498 25.4899L39.8698 25.7799C39.7933 25.7941 39.7223 25.8292 39.6647 25.8814C39.607 25.9335 39.5649 26.0006 39.5432 26.0753C39.5214 26.1499 39.5208 26.2291 39.5414 26.3041C39.562 26.3791 39.603 26.4469 39.6598 26.4999L40.5298 27.3099Z" fill="#FFF48C"/>
<path d="M43.3198 23.69L44.1198 25.2C44.1515 25.2597 44.1971 25.3109 44.2528 25.3492C44.3085 25.3875 44.3727 25.4118 44.4398 25.42L46.1298 25.62C46.2075 25.6295 46.281 25.6605 46.342 25.7095C46.403 25.7585 46.4491 25.8236 46.4751 25.8974C46.5011 25.9713 46.506 26.0509 46.4891 26.1273C46.4723 26.2038 46.4344 26.274 46.3798 26.33L45.1898 27.55C45.1409 27.5968 45.1051 27.6556 45.0858 27.7205C45.0665 27.7853 45.0644 27.8541 45.0798 27.92L45.4098 29.59C45.4244 29.666 45.4178 29.7446 45.3906 29.8171C45.3633 29.8895 45.3166 29.953 45.2556 30.0006C45.1946 30.0482 45.1216 30.078 45.0447 30.0867C44.9677 30.0954 44.8899 30.0827 44.8198 30.05L43.2898 29.29C43.2292 29.26 43.1624 29.2445 43.0948 29.2445C43.0272 29.2445 42.9604 29.26 42.8998 29.29L41.4098 30.13C41.3408 30.1646 41.2638 30.1799 41.1868 30.1744C41.1098 30.1689 41.0357 30.1428 40.9723 30.0988C40.9089 30.0548 40.8585 29.9946 40.8264 29.9244C40.7943 29.8543 40.7816 29.7768 40.7898 29.7L40.9998 28C41.009 27.934 41.002 27.8667 40.9794 27.8039C40.9567 27.7412 40.9191 27.6849 40.8698 27.64L39.6598 26.5C39.603 26.447 39.562 26.3792 39.5414 26.3042C39.5208 26.2292 39.5214 26.15 39.5432 26.0754C39.5649 26.0007 39.607 25.9336 39.6647 25.8815C39.7223 25.8293 39.7933 25.7942 39.8698 25.78L41.5498 25.49C41.6164 25.4801 41.6795 25.4539 41.7336 25.4138C41.7876 25.3737 41.831 25.3209 41.8598 25.26L42.5798 23.71C42.6112 23.6392 42.662 23.5788 42.7264 23.5356C42.7908 23.4925 42.866 23.4686 42.9435 23.4665C43.0209 23.4644 43.0974 23.4843 43.164 23.5238C43.2306 23.5634 43.2846 23.621 43.3198 23.69Z" stroke="#45413C" stroke-linecap="round" stroke-linejoin="round"/>
<path d="M31.7396 40.5901L31.9996 41.9401C32.0121 41.9929 32.0367 42.042 32.0714 42.0837C32.1061 42.1253 32.15 42.1583 32.1996 42.1801L33.4696 42.7201C33.524 42.7491 33.5695 42.7924 33.6012 42.8452C33.6329 42.898 33.6496 42.9585 33.6496 43.0201C33.6496 43.0818 33.6329 43.1422 33.6012 43.1951C33.5695 43.2479 33.524 43.2911 33.4696 43.3201L32.2696 44.0001C32.2216 44.0255 32.1807 44.0626 32.151 44.1081C32.1212 44.1536 32.1036 44.2059 32.0996 44.2601L31.9996 45.6301C31.9942 45.6936 31.971 45.7542 31.9327 45.8051C31.8945 45.856 31.8427 45.8952 31.7833 45.9181C31.7239 45.941 31.6593 45.9468 31.5967 45.9348C31.5342 45.9228 31.4763 45.8934 31.4296 45.8501L30.4296 44.9201C30.3917 44.8807 30.3437 44.8524 30.2908 44.8383C30.2379 44.8242 30.1822 44.8248 30.1296 44.8401L28.7896 45.1401C28.7285 45.1528 28.6651 45.1483 28.6063 45.1273C28.5475 45.1063 28.4957 45.0695 28.4564 45.0209C28.4172 44.9724 28.392 44.914 28.3838 44.8521C28.3755 44.7902 28.3845 44.7273 28.4096 44.6701L28.9996 43.4201C29.0268 43.373 29.0412 43.3195 29.0412 43.2651C29.0412 43.2107 29.0268 43.1573 28.9996 43.1101L28.2996 41.9301C28.2678 41.8758 28.2516 41.8137 28.253 41.7507C28.2544 41.6877 28.2733 41.6263 28.3075 41.5734C28.3417 41.5205 28.3899 41.4782 28.4468 41.4511C28.5037 41.4241 28.567 41.4133 28.6296 41.4201L29.9896 41.5801C30.0446 41.5847 30.1 41.5772 30.1518 41.5582C30.2036 41.5392 30.2506 41.5091 30.2896 41.4701L31.1896 40.4701C31.2299 40.4318 31.2789 40.404 31.3324 40.389C31.3859 40.3741 31.4422 40.3724 31.4965 40.3843C31.5507 40.3961 31.6013 40.4211 31.6437 40.457C31.686 40.4928 31.719 40.5386 31.7396 40.5901Z" fill="#FFE500"/>
<path d="M28.7596 42.7498L29.6196 42.8498C29.6748 42.8566 29.7308 42.8502 29.7829 42.831C29.8351 42.8119 29.882 42.7806 29.9196 42.7398L30.8196 41.7398C30.8609 41.6919 30.9147 41.6564 30.975 41.6374C31.0354 41.6184 31.0998 41.6165 31.1611 41.6321C31.2224 41.6477 31.2781 41.6801 31.322 41.7256C31.3659 41.7711 31.3963 41.828 31.4096 41.8898L31.6796 43.2398C31.6878 43.2928 31.7096 43.3428 31.7429 43.3849C31.7763 43.427 31.8199 43.4597 31.8696 43.4798L32.6696 43.8198L33.5096 43.3498C33.564 43.3208 33.6095 43.2776 33.6412 43.2247C33.6729 43.1719 33.6896 43.1114 33.6896 43.0498C33.6896 42.9882 33.6729 42.9277 33.6412 42.8749C33.6095 42.822 33.564 42.7788 33.5096 42.7498L32.2396 42.2098C32.19 42.188 32.1461 42.155 32.1114 42.1134C32.0767 42.0717 32.0521 42.0226 32.0396 41.9698L31.7696 40.6198C31.7564 40.5593 31.7269 40.5036 31.6843 40.4587C31.6417 40.4137 31.5876 40.3812 31.5279 40.3648C31.4682 40.3483 31.4052 40.3485 31.3456 40.3652C31.2859 40.382 31.232 40.4147 31.1896 40.4598L30.2896 41.4598C30.2506 41.4988 30.2036 41.5289 30.1518 41.5479C30.1 41.5669 30.0446 41.5744 29.9896 41.5698L28.6296 41.4098C28.567 41.403 28.5037 41.4137 28.4468 41.4408C28.3899 41.4679 28.3417 41.5102 28.3075 41.5631C28.2733 41.616 28.2544 41.6774 28.253 41.7404C28.2516 41.8033 28.2678 41.8655 28.2996 41.9198L28.7596 42.7498Z" fill="#FFF48C"/>
<path d="M31.7396 40.5901L31.9996 41.9401C32.0121 41.9929 32.0367 42.042 32.0714 42.0837C32.1061 42.1253 32.15 42.1583 32.1996 42.1801L33.4696 42.7201C33.524 42.7491 33.5695 42.7924 33.6012 42.8452C33.6329 42.898 33.6496 42.9585 33.6496 43.0201C33.6496 43.0818 33.6329 43.1422 33.6012 43.1951C33.5695 43.2479 33.524 43.2911 33.4696 43.3201L32.2696 44.0001C32.2216 44.0255 32.1807 44.0626 32.151 44.1081C32.1212 44.1536 32.1036 44.2059 32.0996 44.2601L31.9996 45.6301C31.9942 45.6936 31.971 45.7542 31.9327 45.8051C31.8945 45.856 31.8427 45.8952 31.7833 45.9181C31.7239 45.941 31.6593 45.9468 31.5967 45.9348C31.5342 45.9228 31.4763 45.8934 31.4296 45.8501L30.4296 44.9201C30.3917 44.8807 30.3437 44.8524 30.2908 44.8383C30.2379 44.8242 30.1822 44.8248 30.1296 44.8401L28.7896 45.1401C28.7285 45.1528 28.6651 45.1483 28.6063 45.1273C28.5475 45.1063 28.4957 45.0695 28.4564 45.0209C28.4172 44.9724 28.392 44.914 28.3838 44.8521C28.3755 44.7902 28.3845 44.7273 28.4096 44.6701L28.9996 43.4201C29.0268 43.373 29.0412 43.3195 29.0412 43.2651C29.0412 43.2107 29.0268 43.1573 28.9996 43.1101L28.2996 41.9301C28.2678 41.8758 28.2516 41.8137 28.253 41.7507C28.2544 41.6877 28.2733 41.6263 28.3075 41.5734C28.3417 41.5205 28.3899 41.4782 28.4468 41.4511C28.5037 41.4241 28.567 41.4133 28.6296 41.4201L29.9896 41.5801C30.0446 41.5847 30.1 41.5772 30.1518 41.5582C30.2036 41.5392 30.2506 41.5091 30.2896 41.4701L31.1896 40.4701C31.2299 40.4318 31.2789 40.404 31.3324 40.389C31.3859 40.3741 31.4422 40.3724 31.4965 40.3843C31.5507 40.3961 31.6013 40.4211 31.6437 40.457C31.686 40.4928 31.719 40.5386 31.7396 40.5901Z" stroke="#45413C" stroke-linecap="round" stroke-linejoin="round"/>
<path d="M11.8597 6.99994C11.778 7.60092 11.5196 8.16407 11.1172 8.61788C10.7149 9.0717 10.1867 9.39571 9.59985 9.54878C9.01299 9.70185 8.39387 9.67706 7.82111 9.47758C7.24835 9.27809 6.7478 8.9129 6.38299 8.42838C6.01819 7.94385 5.8056 7.36185 5.77222 6.75627C5.73883 6.15069 5.88616 5.54884 6.19549 5.02716C6.50482 4.50547 6.96221 4.08747 7.50956 3.82623C8.05692 3.565 8.66956 3.47231 9.2697 3.55994C10.0676 3.67644 10.7872 4.10314 11.2722 4.74729C11.7571 5.39144 11.9683 6.20098 11.8597 6.99994Z" fill="#9CEB60"/>
<path d="M9.27034 5.73996C9.81495 5.82533 10.3264 6.05624 10.7506 6.40828C11.1748 6.76032 11.496 7.22042 11.6803 7.73996C11.7729 7.50238 11.8335 7.25353 11.8603 6.99996C11.9601 6.2025 11.7422 5.39781 11.2536 4.75972C10.765 4.12163 10.0449 3.70137 9.24906 3.58973C8.45318 3.4781 7.64533 3.68405 7.00004 4.1631C6.35474 4.64215 5.92381 5.35583 5.80034 6.14996C5.74406 6.66533 5.81266 7.18669 6.00034 7.66996C6.25141 7.02917 6.70987 6.49093 7.30255 6.14112C7.89524 5.7913 8.58802 5.65007 9.27034 5.73996Z" fill="#C8FFA1"/>
<path d="M11.8597 6.99994C11.778 7.60092 11.5196 8.16407 11.1172 8.61788C10.7149 9.0717 10.1867 9.39571 9.59985 9.54878C9.01299 9.70185 8.39387 9.67706 7.82111 9.47758C7.24835 9.27809 6.7478 8.9129 6.38299 8.42838C6.01819 7.94385 5.8056 7.36185 5.77222 6.75627C5.73883 6.15069 5.88616 5.54884 6.19549 5.02716C6.50482 4.50547 6.96221 4.08747 7.50956 3.82623C8.05692 3.565 8.66956 3.47231 9.2697 3.55994C10.0676 3.67644 10.7872 4.10314 11.2722 4.74729C11.7571 5.39144 11.9683 6.20098 11.8597 6.99994Z" stroke="#45413C" stroke-linecap="round" stroke-linejoin="round"/>
<path d="M5.85965 7.30009C5.09965 7.82009 3.56965 9.00009 3.99965 9.86009C4.42965 10.7201 14.4897 4.71009 14.1397 3.86009C13.7897 3.01009 11.6397 3.98009 10.8797 4.34009" stroke="#45413C" stroke-linecap="round" stroke-linejoin="round"/>
</svg>
