<svg width="95" height="56" viewBox="0 0 95 56" fill="none" xmlns="http://www.w3.org/2000/svg">
<path fill-rule="evenodd" clip-rule="evenodd" d="M67.8473 53.2536C76.2489 53.4562 84.8346 53.0511 92.8679 55.924C93.3467 56.0935 93.8734 55.8467 94.0465 55.3678C94.2159 54.889 93.9691 54.3623 93.4903 54.1892C85.2692 51.25 76.4883 51.6183 67.8915 51.412C67.3832 51.3973 66.9597 51.8024 66.9486 52.3107C66.9339 52.819 67.339 53.2389 67.8473 53.2536Z" fill="black"/>
<path fill-rule="evenodd" clip-rule="evenodd" d="M67.093 41.056C69.7118 38.6464 72.57 36.8413 76.0249 35.9466C76.5185 35.8192 76.8131 35.3164 76.6879 34.8243C76.559 34.3322 76.0544 34.0364 75.5645 34.1639C71.8076 35.1363 68.6952 37.0818 65.848 39.7002C65.4723 40.0442 65.4465 40.6273 65.7928 41.0015C66.1353 41.3754 66.721 41.4 67.093 41.056Z" fill="black"/>
<path fill-rule="evenodd" clip-rule="evenodd" d="M59.8073 14.749C61.0081 10.6329 63.3727 7.413 66.9971 5.08775C67.4243 4.81334 67.5496 4.24318 67.2733 3.81555C67.0008 3.38792 66.4298 3.26342 66.0026 3.53782C61.9915 6.11243 59.369 9.67563 58.0393 14.233C57.8957 14.7206 58.1793 15.2326 58.6655 15.3748C59.1554 15.5173 59.6673 15.2366 59.8073 14.749Z" fill="black"/>
<path fill-rule="evenodd" clip-rule="evenodd" d="M18.4256 9.16273C17.711 10.0036 17.0701 10.9097 16.525 11.8744C16.2819 12.3038 15.8546 13.2165 15.7883 13.9992C15.7147 14.8331 15.9982 15.5367 16.7275 15.9072C17.6962 16.3985 18.4698 16.3473 19.0664 16.0501C19.641 15.7647 20.0904 15.2037 20.374 14.4516C20.9154 13.014 20.8344 10.8169 20.5508 9.56312C21.3132 8.77637 22.1493 8.0629 23.0444 7.42864C29.7111 2.70484 39.4902 4.44667 47.0152 11.5097C49.6487 13.9827 50.9158 19.1761 51.5751 24.7795C52.6027 33.504 52.017 43.2485 51.936 46.1034C51.9176 46.8084 51.9839 47.2268 52.0207 47.3104C52.1938 47.7215 52.4996 47.8283 52.7132 47.8688C53.0226 47.9241 53.2693 47.8652 53.4682 47.762C53.7371 47.6206 53.9581 47.3716 54.0613 46.9874C54.1165 46.7753 54.1312 46.4799 54.1239 46.165C54.1165 45.9465 54.0723 45.7079 54.1165 45.5513C54.4038 44.5487 54.75 43.5697 55.0889 42.5837C56.2196 39.2691 57.6819 36.163 59.3063 33.0606C64.4665 23.2027 69.4573 12.7867 77.9178 5.27614C78.2972 4.93912 78.3341 4.35643 77.9952 3.97631C77.66 3.5962 77.0781 3.56157 76.695 3.89895C68.0651 11.558 62.938 22.1533 57.6745 32.2064C56.2933 34.8455 55.0263 37.4883 53.9728 40.2526C54.0797 35.3626 54.0391 28.5939 53.1441 22.6049C52.3485 17.2785 50.8347 12.5712 48.2748 10.1672C40.0316 2.4297 29.2801 0.751235 21.9799 5.92624C21.199 6.48021 20.455 7.08943 19.7626 7.75021C15.943 0.853271 7.76613 -1.91105 0.53954 1.3877C0.0754468 1.59875 -0.12713 2.14535 0.0828169 2.6076C0.296447 3.06986 0.841552 3.27392 1.30565 3.06287C7.81768 0.0904598 15.2027 2.74315 18.4256 9.16273ZM18.9596 11.4718C18.6613 11.8931 18.385 12.33 18.1272 12.7816C17.9909 13.0239 17.7552 13.4899 17.6557 13.9458C17.6336 14.0527 17.63 14.2199 17.63 14.2972C17.8841 14.4225 18.083 14.4829 18.245 14.4015C18.4476 14.3013 18.5508 14.0655 18.6502 13.8022C18.9007 13.1414 18.9817 12.2655 18.9596 11.4718Z" fill="black"/>
</svg>
