<svg width="108" height="73" viewBox="0 0 108 73" fill="none" xmlns="http://www.w3.org/2000/svg">
<path d="M103.087 37L80.1236 46.199L79.4556 46.4665L79.1495 47.1177L69 68.7056L58.8505 47.1177L58.5444 46.4665L57.8764 46.199L34.9134 37L57.8764 27.801L58.5444 27.5335L58.8505 26.8823L69 5.29444L79.1495 26.8823L79.4556 27.5335L80.1236 27.801L103.087 37Z" stroke="black" stroke-width="3.65432"/>
<path d="M72.1979 36.5L49.4565 45.8567L48.7902 46.1308L48.4903 46.7859L38.5 68.6102L28.5097 46.7859L28.2098 46.1308L27.5435 45.8567L4.8021 36.5L27.5435 27.1433L28.2098 26.8692L28.5097 26.2141L38.5 4.38983L48.4903 26.2141L48.7902 26.8692L49.4565 27.1433L72.1979 36.5Z" fill="#FFC727" stroke="black" stroke-width="3.65432"/>
</svg>
