<svg width="95" height="22" viewBox="0 0 95 22" fill="none" xmlns="http://www.w3.org/2000/svg">
<path fill-rule="evenodd" clip-rule="evenodd" d="M15.4258 5.13954C15.4258 4.73061 15.5882 4.33842 15.8774 4.04926C16.1666 3.7601 16.5587 3.59766 16.9677 3.59766C17.3766 3.59766 17.7688 3.7601 18.0579 4.04926C18.3471 4.33842 18.5096 4.73061 18.5096 5.13954V15.5745L16.9677 17.8874L15.4258 15.5745V5.13954ZM16.9677 4.62558C16.8314 4.62558 16.7006 4.67973 16.6042 4.77612C16.5079 4.8725 16.4537 5.00323 16.4537 5.13954V15.2631L16.9677 16.034L17.4816 15.2631V5.13954C17.4816 5.00323 17.4275 4.8725 17.3311 4.77612C17.2347 4.67973 17.104 4.62558 16.9677 4.62558Z" fill="#003478"/>
<path fill-rule="evenodd" clip-rule="evenodd" d="M17.9887 7.19547H15.9328V6.16755H17.9887V7.19547ZM2.05585 1.02792C1.78323 1.02792 1.52177 1.13622 1.329 1.329C1.13622 1.52177 1.02793 1.78323 1.02793 2.05585V16.4468C1.02793 16.7194 1.13622 16.9809 1.329 17.1737C1.52177 17.3664 1.78323 17.4747 2.05585 17.4747H12.3351C12.6077 17.4747 12.8692 17.3664 13.062 17.1737C13.2547 16.9809 13.363 16.7194 13.363 16.4468V2.05585C13.363 1.78323 13.2547 1.52177 13.062 1.329C12.8692 1.13622 12.6077 1.02792 12.3351 1.02792H2.05585ZM0 2.05585C0 1.5106 0.216598 0.987691 0.602145 0.602144C0.987691 0.216598 1.5106 0 2.05585 0H12.3351C12.8803 0 13.4033 0.216598 13.7888 0.602144C14.1744 0.987691 14.391 1.5106 14.391 2.05585V16.4468C14.391 16.992 14.1744 17.515 13.7888 17.9005C13.4033 18.286 12.8803 18.5026 12.3351 18.5026H2.05585C1.5106 18.5026 0.987691 18.286 0.602145 17.9005C0.216598 17.515 0 16.992 0 16.4468V2.05585Z" fill="#003478"/>
<path fill-rule="evenodd" clip-rule="evenodd" d="M7.19672 4.62724C7.19672 4.49093 7.25087 4.3602 7.34726 4.26382C7.44364 4.16743 7.57437 4.11328 7.71068 4.11328H11.8224C11.9587 4.11328 12.0894 4.16743 12.1858 4.26382C12.2822 4.3602 12.3363 4.49093 12.3363 4.62724C12.3363 4.76356 12.2822 4.89428 12.1858 4.99067C12.0894 5.08706 11.9587 5.14121 11.8224 5.14121H7.71068C7.57437 5.14121 7.44364 5.08706 7.34726 4.99067C7.25087 4.89428 7.19672 4.76356 7.19672 4.62724ZM7.19672 6.68309C7.19672 6.54678 7.25087 6.41605 7.34726 6.31967C7.44364 6.22328 7.57437 6.16913 7.71068 6.16913H11.8224C11.9587 6.16913 12.0894 6.22328 12.1858 6.31967C12.2822 6.41605 12.3363 6.54678 12.3363 6.68309C12.3363 6.81941 12.2822 6.95013 12.1858 7.04652C12.0894 7.14291 11.9587 7.19706 11.8224 7.19706H7.71068C7.57437 7.19706 7.44364 7.14291 7.34726 7.04652C7.25087 6.95013 7.19672 6.81941 7.19672 6.68309ZM7.19672 11.3088C7.19672 11.1724 7.25087 11.0417 7.34726 10.9453C7.44364 10.8489 7.57437 10.7948 7.71068 10.7948H11.8224C11.9587 10.7948 12.0894 10.8489 12.1858 10.9453C12.2822 11.0417 12.3363 11.1724 12.3363 11.3088C12.3363 11.4451 12.2822 11.5758 12.1858 11.6722C12.0894 11.7686 11.9587 11.8227 11.8224 11.8227H7.71068C7.57437 11.8227 7.44364 11.7686 7.34726 11.6722C7.25087 11.5758 7.19672 11.4451 7.19672 11.3088ZM7.19672 13.3646C7.19672 13.2283 7.25087 13.0976 7.34726 13.0012C7.44364 12.9048 7.57437 12.8506 7.71068 12.8506H11.8224C11.9587 12.8506 12.0894 12.9048 12.1858 13.0012C12.2822 13.0976 12.3363 13.2283 12.3363 13.3646C12.3363 13.5009 12.2822 13.6316 12.1858 13.728C12.0894 13.8244 11.9587 13.8786 11.8224 13.8786H7.71068C7.57437 13.8786 7.44364 13.8244 7.34726 13.728C7.25087 13.6316 7.19672 13.5009 7.19672 13.3646ZM3.08502 11.3088V12.8506H4.62691V11.3088H3.08502ZM2.57106 10.2808H5.14087C5.27718 10.2808 5.40791 10.335 5.5043 10.4314C5.60069 10.5278 5.65483 10.6585 5.65483 10.7948V13.3646C5.65483 13.5009 5.60069 13.6316 5.5043 13.728C5.40791 13.8244 5.27718 13.8786 5.14087 13.8786H2.57106C2.43475 13.8786 2.30402 13.8244 2.20763 13.728C2.11125 13.6316 2.0571 13.5009 2.0571 13.3646V10.7948C2.0571 10.6585 2.11125 10.5278 2.20763 10.4314C2.30402 10.335 2.43475 10.2808 2.57106 10.2808ZM6.01821 4.26387C6.11456 4.36025 6.16869 4.49096 6.16869 4.62724C6.16869 4.76353 6.11456 4.89423 6.01821 4.99062L3.59898 7.40984L2.20769 6.01854C2.1586 5.97113 2.11944 5.91442 2.09251 5.85171C2.06557 5.789 2.05139 5.72156 2.0508 5.65332C2.05021 5.58508 2.06321 5.5174 2.08905 5.45423C2.1149 5.39107 2.15306 5.33368 2.20132 5.28543C2.24958 5.23717 2.30696 5.19901 2.37012 5.17316C2.43329 5.14732 2.50097 5.13432 2.56921 5.13491C2.63745 5.1355 2.7049 5.14968 2.7676 5.17662C2.83031 5.20355 2.88702 5.24271 2.93443 5.2918L3.59898 5.95635L5.29146 4.26387C5.38784 4.16752 5.51855 4.11339 5.65483 4.11339C5.79112 4.11339 5.92182 4.16752 6.01821 4.26387Z" fill="#FFC727"/>
<path d="M26.7255 16.176C26.2989 16.176 25.8509 16.144 25.3815 16.08C24.9229 16.0267 24.4855 15.9413 24.0695 15.824C23.6535 15.7067 23.2802 15.568 22.9495 15.408C22.6615 15.2693 22.4589 15.088 22.3415 14.864C22.2242 14.6293 22.1815 14.384 22.2135 14.128C22.2455 13.872 22.3362 13.648 22.4855 13.456C22.6349 13.2533 22.8322 13.12 23.0775 13.056C23.3229 12.9813 23.6002 13.0133 23.9095 13.152C24.3149 13.344 24.7735 13.4933 25.2855 13.6C25.7975 13.7067 26.2775 13.76 26.7255 13.76C27.4295 13.76 27.9202 13.6693 28.1975 13.488C28.4855 13.296 28.6295 13.0613 28.6295 12.784C28.6295 12.5387 28.5282 12.3413 28.3255 12.192C28.1335 12.0427 27.7869 11.9147 27.2855 11.808L25.4135 11.408C24.3895 11.1947 23.6269 10.8213 23.1255 10.288C22.6242 9.75467 22.3735 9.06667 22.3735 8.224C22.3735 7.66933 22.4855 7.168 22.7095 6.72C22.9442 6.26133 23.2695 5.872 23.6855 5.552C24.1122 5.232 24.6135 4.98667 25.1895 4.816C25.7762 4.63467 26.4269 4.544 27.1415 4.544C27.6962 4.544 28.2562 4.608 28.8215 4.736C29.3975 4.85333 29.8935 5.03467 30.3095 5.28C30.5549 5.408 30.7309 5.584 30.8375 5.808C30.9442 6.032 30.9869 6.26667 30.9655 6.512C30.9442 6.74667 30.8589 6.95467 30.7095 7.136C30.5709 7.31733 30.3789 7.44 30.1335 7.504C29.8989 7.55733 29.6162 7.51467 29.2855 7.376C28.9762 7.23733 28.6242 7.136 28.2295 7.072C27.8455 6.99733 27.4722 6.96 27.1095 6.96C26.7149 6.96 26.3789 7.008 26.1015 7.104C25.8242 7.18933 25.6109 7.31733 25.4615 7.488C25.3229 7.65867 25.2535 7.856 25.2535 8.08C25.2535 8.304 25.3442 8.496 25.5255 8.656C25.7175 8.80533 26.0642 8.93333 26.5655 9.04L28.4215 9.44C29.4562 9.664 30.2295 10.032 30.7415 10.544C31.2535 11.056 31.5095 11.7227 31.5095 12.544C31.5095 13.0987 31.3975 13.6 31.1735 14.048C30.9495 14.496 30.6295 14.88 30.2135 15.2C29.7975 15.5093 29.2962 15.7493 28.7095 15.92C28.1229 16.0907 27.4615 16.176 26.7255 16.176ZM36.0468 16.144C35.6841 16.144 35.3694 16.0587 35.1028 15.888C34.8361 15.7067 34.6228 15.4293 34.4628 15.056L32.2868 9.792C32.1481 9.46133 32.1001 9.16267 32.1428 8.896C32.1854 8.61867 32.3134 8.4 32.5268 8.24C32.7508 8.06933 33.0548 7.984 33.4388 7.984C33.7694 7.984 34.0414 8.064 34.2548 8.224C34.4681 8.37333 34.6601 8.672 34.8308 9.12L36.3668 13.152H36.0308L37.6468 8.816C37.7534 8.528 37.8974 8.32 38.0788 8.192C38.2708 8.05333 38.5108 7.984 38.7988 7.984C39.1081 7.984 39.3534 8.05333 39.5348 8.192C39.7161 8.33067 39.8601 8.53867 39.9668 8.816L41.5828 13.152H41.2948L42.8468 9.024C42.9961 8.61867 43.1881 8.34667 43.4228 8.208C43.6574 8.05867 43.9081 7.984 44.1748 7.984C44.5374 7.984 44.8148 8.06933 45.0068 8.24C45.1988 8.41067 45.3054 8.63467 45.3268 8.912C45.3588 9.18933 45.3054 9.488 45.1668 9.808L43.0068 15.04C42.8574 15.4133 42.6494 15.6907 42.3828 15.872C42.1161 16.0533 41.8014 16.144 41.4388 16.144C41.0654 16.144 40.7454 16.0533 40.4788 15.872C40.2228 15.6907 40.0148 15.4133 39.8548 15.04L38.0948 10.64H39.2628L37.5988 15.008C37.4494 15.392 37.2468 15.68 36.9908 15.872C36.7348 16.0533 36.4201 16.144 36.0468 16.144ZM47.9214 16.144C47.4734 16.144 47.1267 16.0107 46.8814 15.744C46.6361 15.4773 46.5134 15.0933 46.5134 14.592V9.536C46.5134 9.03467 46.6361 8.65067 46.8814 8.384C47.1267 8.11733 47.4734 7.984 47.9214 7.984C48.3801 7.984 48.7321 8.11733 48.9774 8.384C49.2334 8.65067 49.3614 9.03467 49.3614 9.536V14.592C49.3614 15.0933 49.2387 15.4773 48.9934 15.744C48.7481 16.0107 48.3907 16.144 47.9214 16.144ZM47.9214 6.848C47.4201 6.848 47.0307 6.73067 46.7534 6.496C46.4867 6.26133 46.3534 5.92 46.3534 5.472C46.3534 5.03467 46.4867 4.69867 46.7534 4.464C47.0307 4.22933 47.4201 4.112 47.9214 4.112C48.4441 4.112 48.8387 4.22933 49.1054 4.464C49.3721 4.69867 49.5054 5.03467 49.5054 5.472C49.5054 5.92 49.3721 6.26133 49.1054 6.496C48.8387 6.73067 48.4441 6.848 47.9214 6.848ZM53.1094 16.144C52.6507 16.144 52.2987 16.0213 52.0534 15.776C51.8081 15.5307 51.6854 15.1733 51.6854 14.704V10.224H51.2694C50.9281 10.224 50.6614 10.1333 50.4694 9.952C50.2881 9.77067 50.1974 9.50933 50.1974 9.168C50.1974 8.82667 50.2881 8.57067 50.4694 8.4C50.6614 8.21867 50.9281 8.128 51.2694 8.128H52.5014L51.6854 8.88V8.432C51.6854 7.248 51.9787 6.36267 52.5654 5.776C53.1627 5.17867 54.0481 4.82133 55.2214 4.704L55.6854 4.656C56.0267 4.61333 56.2987 4.656 56.5014 4.784C56.7041 4.90133 56.8427 5.06133 56.9174 5.264C56.9921 5.456 57.0081 5.65867 56.9654 5.872C56.9334 6.08533 56.8534 6.26667 56.7254 6.416C56.5974 6.56533 56.4267 6.65067 56.2134 6.672L55.9894 6.688C55.4454 6.73067 55.0667 6.848 54.8534 7.04C54.6401 7.232 54.5334 7.51467 54.5334 7.888V8.416L54.1814 8.128H55.4454C55.7974 8.128 56.0641 8.21867 56.2454 8.4C56.4267 8.57067 56.5174 8.82667 56.5174 9.168C56.5174 9.50933 56.4267 9.77067 56.2454 9.952C56.0641 10.1333 55.7974 10.224 55.4454 10.224H54.5334V14.704C54.5334 15.664 54.0587 16.144 53.1094 16.144ZM61.0633 16.176C60.2633 16.176 59.6019 16.0533 59.0793 15.808C58.5673 15.5627 58.1833 15.1947 57.9273 14.704C57.6713 14.2027 57.5433 13.5787 57.5433 12.832V10.224H56.9993C56.6579 10.224 56.3913 10.1333 56.1993 9.952C56.0179 9.77067 55.9273 9.50933 55.9273 9.168C55.9273 8.82667 56.0179 8.57067 56.1993 8.4C56.3913 8.21867 56.6579 8.128 56.9993 8.128H57.5433V7.136C57.5433 6.66667 57.6659 6.30933 57.9113 6.064C58.1566 5.81867 58.5086 5.696 58.9673 5.696C59.4259 5.696 59.7779 5.81867 60.0233 6.064C60.2686 6.30933 60.3913 6.66667 60.3913 7.136V8.128H61.7033C62.0553 8.128 62.3219 8.21867 62.5033 8.4C62.6953 8.57067 62.7913 8.82667 62.7913 9.168C62.7913 9.50933 62.6953 9.77067 62.5033 9.952C62.3219 10.1333 62.0553 10.224 61.7033 10.224H60.3913V12.736C60.3913 13.1307 60.4819 13.424 60.6633 13.616C60.8553 13.7973 61.1539 13.888 61.5593 13.888C61.7086 13.888 61.8526 13.872 61.9913 13.84C62.1299 13.808 62.2579 13.792 62.3753 13.792C62.5459 13.7813 62.6846 13.8347 62.7913 13.952C62.8979 14.0587 62.9513 14.3093 62.9513 14.704C62.9513 15.024 62.9033 15.296 62.8073 15.52C62.7113 15.7333 62.5406 15.888 62.2953 15.984C62.1459 16.0373 61.9433 16.08 61.6873 16.112C61.4313 16.1547 61.2233 16.176 61.0633 16.176Z" fill="#FFC727"/>
<path d="M65.1558 19.024C64.7078 19.024 64.3611 18.9013 64.1158 18.656C63.8704 18.4107 63.7478 18.0533 63.7478 17.584V9.408C63.7478 8.94933 63.8651 8.59733 64.0998 8.352C64.3451 8.10667 64.6918 7.984 65.1398 7.984C65.5984 7.984 65.9451 8.10667 66.1798 8.352C66.4251 8.59733 66.5478 8.94933 66.5478 9.408V10.336L66.3718 9.552C66.5211 9.072 66.8304 8.688 67.2998 8.4C67.7798 8.10133 68.3238 7.952 68.9318 7.952C69.6144 7.952 70.2118 8.11733 70.7238 8.448C71.2464 8.77867 71.6518 9.248 71.9398 9.856C72.2278 10.464 72.3718 11.2 72.3718 12.064C72.3718 12.9067 72.2278 13.6373 71.9398 14.256C71.6518 14.8747 71.2464 15.3493 70.7238 15.68C70.2118 16.0107 69.6144 16.176 68.9318 16.176C68.3451 16.176 67.8171 16.0373 67.3478 15.76C66.8784 15.4827 66.5638 15.12 66.4038 14.672H66.5958V17.584C66.5958 18.0533 66.4678 18.4107 66.2118 18.656C65.9664 18.9013 65.6144 19.024 65.1558 19.024ZM68.0358 14.08C68.3238 14.08 68.5744 14.0107 68.7878 13.872C69.0118 13.7227 69.1878 13.504 69.3158 13.216C69.4438 12.9173 69.5078 12.5333 69.5078 12.064C69.5078 11.3493 69.3691 10.8373 69.0918 10.528C68.8144 10.208 68.4624 10.048 68.0358 10.048C67.7478 10.048 67.4918 10.1173 67.2678 10.256C67.0438 10.3947 66.8678 10.6133 66.7398 10.912C66.6118 11.2 66.5478 11.584 66.5478 12.064C66.5478 12.768 66.6864 13.28 66.9638 13.6C67.2411 13.92 67.5984 14.08 68.0358 14.08ZM77.6536 16.176C76.779 16.176 76.0163 16.0107 75.3656 15.68C74.715 15.3493 74.2083 14.8747 73.8456 14.256C73.483 13.6373 73.3016 12.9067 73.3016 12.064C73.3016 11.424 73.403 10.8533 73.6056 10.352C73.8083 9.84 74.1016 9.408 74.4856 9.056C74.8696 8.69333 75.3283 8.42133 75.8616 8.24C76.395 8.048 76.9923 7.952 77.6536 7.952C78.5283 7.952 79.291 8.11733 79.9416 8.448C80.5923 8.77867 81.0936 9.25333 81.4456 9.872C81.8083 10.48 81.9896 11.2107 81.9896 12.064C81.9896 12.6933 81.8883 13.264 81.6856 13.776C81.483 14.288 81.1896 14.7253 80.8056 15.088C80.4323 15.44 79.9736 15.712 79.4296 15.904C78.8963 16.0853 78.3043 16.176 77.6536 16.176ZM77.6536 14.08C77.9416 14.08 78.1976 14.0107 78.4216 13.872C78.6456 13.7227 78.8163 13.504 78.9336 13.216C79.0616 12.9173 79.1256 12.5333 79.1256 12.064C79.1256 11.3493 78.987 10.8373 78.7096 10.528C78.4323 10.208 78.0803 10.048 77.6536 10.048C77.3656 10.048 77.1096 10.1173 76.8856 10.256C76.6616 10.3947 76.4856 10.6133 76.3576 10.912C76.2296 11.2 76.1656 11.584 76.1656 12.064C76.1656 12.768 76.3043 13.28 76.5816 13.6C76.859 13.92 77.2163 14.08 77.6536 14.08ZM86.2866 16.176C85.2626 16.176 84.5053 15.904 84.0146 15.36C83.5346 14.8053 83.2946 13.9733 83.2946 12.864V6.016C83.2946 5.54667 83.4173 5.18933 83.6626 4.944C83.908 4.69867 84.2546 4.576 84.7026 4.576C85.1613 4.576 85.5133 4.69867 85.7586 4.944C86.0146 5.18933 86.1426 5.54667 86.1426 6.016V12.768C86.1426 13.1627 86.2173 13.4507 86.3666 13.632C86.5266 13.8133 86.7293 13.904 86.9746 13.904C87.0493 13.904 87.124 13.8987 87.1986 13.888C87.284 13.8667 87.3746 13.8507 87.4706 13.84C87.652 13.84 87.7853 13.9093 87.8706 14.048C87.9666 14.1867 88.0146 14.4693 88.0146 14.896C88.0146 15.2693 87.94 15.552 87.7906 15.744C87.6413 15.9253 87.412 16.0427 87.1026 16.096C87.0173 16.1067 86.8946 16.1227 86.7346 16.144C86.5746 16.1653 86.4253 16.176 86.2866 16.176ZM91.8491 16.176C90.8251 16.176 90.0678 15.904 89.5771 15.36C89.0971 14.8053 88.8571 13.9733 88.8571 12.864V6.016C88.8571 5.54667 88.9798 5.18933 89.2251 4.944C89.4705 4.69867 89.8171 4.576 90.2651 4.576C90.7238 4.576 91.0758 4.69867 91.3211 4.944C91.5771 5.18933 91.7051 5.54667 91.7051 6.016V12.768C91.7051 13.1627 91.7798 13.4507 91.9291 13.632C92.0891 13.8133 92.2918 13.904 92.5371 13.904C92.6118 13.904 92.6865 13.8987 92.7611 13.888C92.8465 13.8667 92.9371 13.8507 93.0331 13.84C93.2145 13.84 93.3478 13.9093 93.4331 14.048C93.5291 14.1867 93.5771 14.4693 93.5771 14.896C93.5771 15.2693 93.5025 15.552 93.3531 15.744C93.2038 15.9253 92.9745 16.0427 92.6651 16.096C92.5798 16.1067 92.4571 16.1227 92.2971 16.144C92.1371 16.1653 91.9878 16.176 91.8491 16.176Z" fill="#003478"/>
</svg>
