<svg width="152" height="35" viewBox="0 0 152 35" fill="none" xmlns="http://www.w3.org/2000/svg">
<path fill-rule="evenodd" clip-rule="evenodd" d="M23.7578 7.91796C23.7578 7.28807 24.008 6.68398 24.4534 6.23859C24.8988 5.79319 25.5029 5.54297 26.1328 5.54297C26.7627 5.54297 27.3668 5.79319 27.8122 6.23859C28.2576 6.68398 28.5078 7.28807 28.5078 7.91796V23.9911L26.1328 27.5536L23.7578 23.9911V7.91796ZM26.1328 7.1263C25.9228 7.1263 25.7215 7.2097 25.573 7.35817C25.4245 7.50663 25.3411 7.708 25.3411 7.91796V23.5113L26.1328 24.6988L26.9245 23.5113V7.91796C26.9245 7.708 26.8411 7.50663 26.6926 7.35817C26.5441 7.2097 26.3428 7.1263 26.1328 7.1263Z" fill="#003478"/>
<path fill-rule="evenodd" clip-rule="evenodd" d="M27.7082 11.0833H24.5416V9.49996H27.7082V11.0833ZM3.16665 1.58333C2.74673 1.58333 2.344 1.75014 2.04707 2.04707C1.75014 2.344 1.58333 2.74673 1.58333 3.16665V25.3332C1.58333 25.7531 1.75014 26.1559 2.04707 26.4528C2.344 26.7497 2.74673 26.9165 3.16665 26.9165H18.9999C19.4198 26.9165 19.8226 26.7497 20.1195 26.4528C20.4164 26.1559 20.5832 25.7531 20.5832 25.3332V3.16665C20.5832 2.74673 20.4164 2.344 20.1195 2.04707C19.8226 1.75014 19.4198 1.58333 18.9999 1.58333H3.16665ZM0 3.16665C0 2.3268 0.333628 1.52135 0.927491 0.927491C1.52135 0.333628 2.3268 0 3.16665 0H18.9999C19.8398 0 20.6452 0.333628 21.2391 0.927491C21.8329 1.52135 22.1666 2.3268 22.1666 3.16665V25.3332C22.1666 26.1731 21.8329 26.9785 21.2391 27.5724C20.6452 28.1662 19.8398 28.4999 18.9999 28.4999H3.16665C2.3268 28.4999 1.52135 28.1662 0.927491 27.5724C0.333628 26.9785 0 26.1731 0 25.3332V3.16665Z" fill="#003478"/>
<path fill-rule="evenodd" clip-rule="evenodd" d="M11.0826 7.1276C11.0826 6.91764 11.166 6.71628 11.3145 6.56781C11.4629 6.41934 11.6643 6.33594 11.8743 6.33594H18.2076C18.4175 6.33594 18.6189 6.41934 18.7674 6.56781C18.9158 6.71628 18.9992 6.91764 18.9992 7.1276C18.9992 7.33756 18.9158 7.53893 18.7674 7.68739C18.6189 7.83586 18.4175 7.91926 18.2076 7.91926H11.8743C11.6643 7.91926 11.4629 7.83586 11.3145 7.68739C11.166 7.53893 11.0826 7.33756 11.0826 7.1276ZM11.0826 10.2943C11.0826 10.0843 11.166 9.88293 11.3145 9.73446C11.4629 9.586 11.6643 9.50259 11.8743 9.50259H18.2076C18.4175 9.50259 18.6189 9.586 18.7674 9.73446C18.9158 9.88293 18.9992 10.0843 18.9992 10.2943C18.9992 10.5042 18.9158 10.7056 18.7674 10.854C18.6189 11.0025 18.4175 11.0859 18.2076 11.0859H11.8743C11.6643 11.0859 11.4629 11.0025 11.3145 10.854C11.166 10.7056 11.0826 10.5042 11.0826 10.2943ZM11.0826 17.4192C11.0826 17.2093 11.166 17.0079 11.3145 16.8594C11.4629 16.711 11.6643 16.6276 11.8743 16.6276H18.2076C18.4175 16.6276 18.6189 16.711 18.7674 16.8594C18.9158 17.0079 18.9992 17.2093 18.9992 17.4192C18.9992 17.6292 18.9158 17.8305 18.7674 17.979C18.6189 18.1275 18.4175 18.2109 18.2076 18.2109H11.8743C11.6643 18.2109 11.4629 18.1275 11.3145 17.979C11.166 17.8305 11.0826 17.6292 11.0826 17.4192ZM11.0826 20.5859C11.0826 20.3759 11.166 20.1746 11.3145 20.0261C11.4629 19.8776 11.6643 19.7942 11.8743 19.7942H18.2076C18.4175 19.7942 18.6189 19.8776 18.7674 20.0261C18.9158 20.1746 18.9992 20.3759 18.9992 20.5859C18.9992 20.7958 18.9158 20.9972 18.7674 21.1457C18.6189 21.2941 18.4175 21.3775 18.2076 21.3775H11.8743C11.6643 21.3775 11.4629 21.2941 11.3145 21.1457C11.166 20.9972 11.0826 20.7958 11.0826 20.5859ZM4.7493 17.4192V19.7942H7.12429V17.4192H4.7493ZM3.95764 15.8359H7.91596C8.12592 15.8359 8.32728 15.9193 8.47575 16.0678C8.62421 16.2162 8.70762 16.4176 8.70762 16.6276V20.5859C8.70762 20.7958 8.62421 20.9972 8.47575 21.1457C8.32728 21.2941 8.12592 21.3775 7.91596 21.3775H3.95764C3.74768 21.3775 3.54632 21.2941 3.39785 21.1457C3.24939 20.9972 3.16598 20.7958 3.16598 20.5859V16.6276C3.16598 16.4176 3.24939 16.2162 3.39785 16.0678C3.54632 15.9193 3.74768 15.8359 3.95764 15.8359ZM9.26733 6.56789C9.41574 6.71635 9.49911 6.91768 9.49911 7.1276C9.49911 7.33752 9.41574 7.53885 9.26733 7.68731L5.54097 11.4137L3.39794 9.27063C3.32232 9.19761 3.26201 9.11025 3.22052 9.01366C3.17903 8.91708 3.15719 8.81319 3.15628 8.70808C3.15537 8.60296 3.1754 8.49872 3.2152 8.40142C3.25501 8.30413 3.31379 8.21574 3.38812 8.14141C3.46245 8.06708 3.55085 8.00829 3.64814 7.96849C3.74543 7.92868 3.84968 7.90865 3.95479 7.90957C4.05991 7.91048 4.16379 7.93232 4.26038 7.97381C4.35696 8.0153 4.44432 8.07561 4.51735 8.15122L5.54097 9.17484L8.14791 6.56789C8.29637 6.41948 8.4977 6.33611 8.70762 6.33611C8.91754 6.33611 9.11887 6.41948 9.26733 6.56789Z" fill="#FFC727"/>
<path d="M41.9838 26.286C41.2905 26.286 40.5625 26.234 39.7998 26.13C39.0545 26.0433 38.3438 25.9047 37.6678 25.714C36.9918 25.5233 36.3851 25.298 35.8478 25.038C35.3798 24.8127 35.0505 24.518 34.8598 24.154C34.6691 23.7727 34.5998 23.374 34.6518 22.958C34.7038 22.542 34.8511 22.178 35.0938 21.866C35.3365 21.5367 35.6571 21.32 36.0558 21.216C36.4545 21.0947 36.9051 21.1467 37.4078 21.372C38.0665 21.684 38.8118 21.9267 39.6438 22.1C40.4758 22.2733 41.2558 22.36 41.9838 22.36C43.1278 22.36 43.9251 22.2127 44.3758 21.918C44.8438 21.606 45.0778 21.2247 45.0778 20.774C45.0778 20.3753 44.9131 20.0547 44.5838 19.812C44.2718 19.5693 43.7085 19.3613 42.8938 19.188L39.8518 18.538C38.1878 18.1913 36.9485 17.5847 36.1338 16.718C35.3191 15.8513 34.9118 14.7333 34.9118 13.364C34.9118 12.4627 35.0938 11.648 35.4578 10.92C35.8391 10.1747 36.3678 9.542 37.0438 9.022C37.7371 8.502 38.5518 8.10333 39.4878 7.826C40.4411 7.53133 41.4985 7.384 42.6598 7.384C43.5611 7.384 44.4711 7.488 45.3898 7.696C46.3258 7.88667 47.1318 8.18133 47.8078 8.58C48.2065 8.788 48.4925 9.074 48.6658 9.438C48.8391 9.802 48.9085 10.1833 48.8738 10.582C48.8391 10.9633 48.7005 11.3013 48.4578 11.596C48.2325 11.8907 47.9205 12.09 47.5218 12.194C47.1405 12.2807 46.6811 12.2113 46.1438 11.986C45.6411 11.7607 45.0691 11.596 44.4278 11.492C43.8038 11.3707 43.1971 11.31 42.6078 11.31C41.9665 11.31 41.4205 11.388 40.9698 11.544C40.5191 11.6827 40.1725 11.8907 39.9298 12.168C39.7045 12.4453 39.5918 12.766 39.5918 13.13C39.5918 13.494 39.7391 13.806 40.0338 14.066C40.3458 14.3087 40.9091 14.5167 41.7238 14.69L44.7398 15.34C46.4211 15.704 47.6778 16.302 48.5098 17.134C49.3418 17.966 49.7578 19.0493 49.7578 20.384C49.7578 21.2853 49.5758 22.1 49.2118 22.828C48.8478 23.556 48.3278 24.18 47.6518 24.7C46.9758 25.2027 46.1611 25.5927 45.2078 25.87C44.2545 26.1473 43.1798 26.286 41.9838 26.286ZM57.1308 26.234C56.5415 26.234 56.0302 26.0953 55.5968 25.818C55.1635 25.5233 54.8168 25.0727 54.5568 24.466L51.0208 15.912C50.7955 15.3747 50.7175 14.8893 50.7868 14.456C50.8562 14.0053 51.0642 13.65 51.4108 13.39C51.7748 13.1127 52.2688 12.974 52.8928 12.974C53.4302 12.974 53.8722 13.104 54.2188 13.364C54.5655 13.6067 54.8775 14.092 55.1548 14.82L57.6508 21.372H57.1048L59.7308 14.326C59.9042 13.858 60.1382 13.52 60.4328 13.312C60.7448 13.0867 61.1348 12.974 61.6028 12.974C62.1055 12.974 62.5042 13.0867 62.7988 13.312C63.0935 13.5373 63.3275 13.8753 63.5008 14.326L66.1268 21.372H65.6588L68.1808 14.664C68.4235 14.0053 68.7355 13.5633 69.1168 13.338C69.4982 13.0953 69.9055 12.974 70.3388 12.974C70.9282 12.974 71.3788 13.1127 71.6908 13.39C72.0028 13.6673 72.1762 14.0313 72.2108 14.482C72.2628 14.9327 72.1762 15.418 71.9508 15.938L68.4408 24.44C68.1982 25.0467 67.8602 25.4973 67.4268 25.792C66.9935 26.0867 66.4822 26.234 65.8928 26.234C65.2862 26.234 64.7662 26.0867 64.3328 25.792C63.9168 25.4973 63.5788 25.0467 63.3188 24.44L60.4588 17.29H62.3568L59.6528 24.388C59.4102 25.012 59.0808 25.48 58.6648 25.792C58.2488 26.0867 57.7375 26.234 57.1308 26.234ZM76.4271 26.234C75.6991 26.234 75.1358 26.0173 74.7371 25.584C74.3384 25.1507 74.1391 24.5267 74.1391 23.712V15.496C74.1391 14.6813 74.3384 14.0573 74.7371 13.624C75.1358 13.1907 75.6991 12.974 76.4271 12.974C77.1724 12.974 77.7444 13.1907 78.1431 13.624C78.5591 14.0573 78.7671 14.6813 78.7671 15.496V23.712C78.7671 24.5267 78.5678 25.1507 78.1691 25.584C77.7704 26.0173 77.1898 26.234 76.4271 26.234ZM76.4271 11.128C75.6124 11.128 74.9798 10.9373 74.5291 10.556C74.0958 10.1747 73.8791 9.62 73.8791 8.892C73.8791 8.18133 74.0958 7.63533 74.5291 7.254C74.9798 6.87267 75.6124 6.682 76.4271 6.682C77.2764 6.682 77.9178 6.87267 78.3511 7.254C78.7844 7.63533 79.0011 8.18133 79.0011 8.892C79.0011 9.62 78.7844 10.1747 78.3511 10.556C77.9178 10.9373 77.2764 11.128 76.4271 11.128ZM84.8576 26.234C84.1123 26.234 83.5403 26.0347 83.1416 25.636C82.7429 25.2373 82.5436 24.6567 82.5436 23.894V16.614H81.8676C81.3129 16.614 80.8796 16.4667 80.5676 16.172C80.2729 15.8773 80.1256 15.4527 80.1256 14.898C80.1256 14.3433 80.2729 13.9273 80.5676 13.65C80.8796 13.3553 81.3129 13.208 81.8676 13.208H83.8696L82.5436 14.43V13.702C82.5436 11.778 83.0203 10.3393 83.9736 9.386C84.9443 8.41533 86.3829 7.83467 88.2896 7.644L89.0436 7.566C89.5983 7.49667 90.0403 7.566 90.3696 7.774C90.6989 7.96467 90.9243 8.22467 91.0456 8.554C91.1669 8.866 91.1929 9.19533 91.1236 9.542C91.0716 9.88867 90.9416 10.1833 90.7336 10.426C90.5256 10.6687 90.2483 10.8073 89.9016 10.842L89.5376 10.868C88.6536 10.9373 88.0383 11.128 87.6916 11.44C87.3449 11.752 87.1716 12.2113 87.1716 12.818V13.676L86.5996 13.208H88.6536C89.2256 13.208 89.6589 13.3553 89.9536 13.65C90.2483 13.9273 90.3956 14.3433 90.3956 14.898C90.3956 15.4527 90.2483 15.8773 89.9536 16.172C89.6589 16.4667 89.2256 16.614 88.6536 16.614H87.1716V23.894C87.1716 25.454 86.4003 26.234 84.8576 26.234ZM97.7827 26.286C96.4827 26.286 95.408 26.0867 94.5587 25.688C93.7267 25.2893 93.1027 24.6913 92.6867 23.894C92.2707 23.0793 92.0627 22.0653 92.0627 20.852V16.614H91.1787C90.624 16.614 90.1907 16.4667 89.8787 16.172C89.584 15.8773 89.4367 15.4527 89.4367 14.898C89.4367 14.3433 89.584 13.9273 89.8787 13.65C90.1907 13.3553 90.624 13.208 91.1787 13.208H92.0627V11.596C92.0627 10.8333 92.262 10.2527 92.6607 9.854C93.0593 9.45533 93.6313 9.256 94.3767 9.256C95.122 9.256 95.694 9.45533 96.0927 9.854C96.4913 10.2527 96.6907 10.8333 96.6907 11.596V13.208H98.8227C99.3947 13.208 99.828 13.3553 100.123 13.65C100.435 13.9273 100.591 14.3433 100.591 14.898C100.591 15.4527 100.435 15.8773 100.123 16.172C99.828 16.4667 99.3947 16.614 98.8227 16.614H96.6907V20.696C96.6907 21.3373 96.838 21.814 97.1327 22.126C97.4447 22.4207 97.93 22.568 98.5887 22.568C98.8313 22.568 99.0653 22.542 99.2907 22.49C99.516 22.438 99.724 22.412 99.9147 22.412C100.192 22.3947 100.417 22.4813 100.591 22.672C100.764 22.8453 100.851 23.2527 100.851 23.894C100.851 24.414 100.773 24.856 100.617 25.22C100.461 25.5667 100.183 25.818 99.7847 25.974C99.542 26.0607 99.2127 26.13 98.7967 26.182C98.3807 26.2513 98.0427 26.286 97.7827 26.286Z" fill="#FFC727"/>
<path d="M104.433 30.914C103.705 30.914 103.142 30.7147 102.743 30.316C102.344 29.9173 102.145 29.3367 102.145 28.574V15.288C102.145 14.5427 102.336 13.9707 102.717 13.572C103.116 13.1733 103.679 12.974 104.407 12.974C105.152 12.974 105.716 13.1733 106.097 13.572C106.496 13.9707 106.695 14.5427 106.695 15.288V16.796L106.409 15.522C106.652 14.742 107.154 14.118 107.917 13.65C108.697 13.1647 109.581 12.922 110.569 12.922C111.678 12.922 112.649 13.1907 113.481 13.728C114.33 14.2653 114.989 15.028 115.457 16.016C115.925 17.004 116.159 18.2 116.159 19.604C116.159 20.9733 115.925 22.1607 115.457 23.166C114.989 24.1713 114.33 24.9427 113.481 25.48C112.649 26.0173 111.678 26.286 110.569 26.286C109.616 26.286 108.758 26.0607 107.995 25.61C107.232 25.1593 106.721 24.57 106.461 23.842H106.773V28.574C106.773 29.3367 106.565 29.9173 106.149 30.316C105.75 30.7147 105.178 30.914 104.433 30.914ZM109.113 22.88C109.581 22.88 109.988 22.7673 110.335 22.542C110.699 22.2993 110.985 21.944 111.193 21.476C111.401 20.9907 111.505 20.3667 111.505 19.604C111.505 18.4427 111.28 17.6107 110.829 17.108C110.378 16.588 109.806 16.328 109.113 16.328C108.645 16.328 108.229 16.4407 107.865 16.666C107.501 16.8913 107.215 17.2467 107.007 17.732C106.799 18.2 106.695 18.824 106.695 19.604C106.695 20.748 106.92 21.58 107.371 22.1C107.822 22.62 108.402 22.88 109.113 22.88ZM124.742 26.286C123.321 26.286 122.081 26.0173 121.024 25.48C119.967 24.9427 119.143 24.1713 118.554 23.166C117.965 22.1607 117.67 20.9733 117.67 19.604C117.67 18.564 117.835 17.6367 118.164 16.822C118.493 15.99 118.97 15.288 119.594 14.716C120.218 14.1267 120.963 13.6847 121.83 13.39C122.697 13.078 123.667 12.922 124.742 12.922C126.163 12.922 127.403 13.1907 128.46 13.728C129.517 14.2653 130.332 15.0367 130.904 16.042C131.493 17.03 131.788 18.2173 131.788 19.604C131.788 20.6267 131.623 21.554 131.294 22.386C130.965 23.218 130.488 23.9287 129.864 24.518C129.257 25.09 128.512 25.532 127.628 25.844C126.761 26.1387 125.799 26.286 124.742 26.286ZM124.742 22.88C125.21 22.88 125.626 22.7673 125.99 22.542C126.354 22.2993 126.631 21.944 126.822 21.476C127.03 20.9907 127.134 20.3667 127.134 19.604C127.134 18.4427 126.909 17.6107 126.458 17.108C126.007 16.588 125.435 16.328 124.742 16.328C124.274 16.328 123.858 16.4407 123.494 16.666C123.13 16.8913 122.844 17.2467 122.636 17.732C122.428 18.2 122.324 18.824 122.324 19.604C122.324 20.748 122.549 21.58 123 22.1C123.451 22.62 124.031 22.88 124.742 22.88ZM138.771 26.286C137.107 26.286 135.876 25.844 135.079 24.96C134.299 24.0587 133.909 22.7067 133.909 20.904V9.776C133.909 9.01333 134.108 8.43267 134.507 8.034C134.905 7.63533 135.469 7.436 136.197 7.436C136.942 7.436 137.514 7.63533 137.913 8.034C138.329 8.43267 138.537 9.01333 138.537 9.776V20.748C138.537 21.3893 138.658 21.8573 138.901 22.152C139.161 22.4467 139.49 22.594 139.889 22.594C140.01 22.594 140.131 22.5853 140.253 22.568C140.391 22.5333 140.539 22.5073 140.695 22.49C140.989 22.49 141.206 22.6027 141.345 22.828C141.501 23.0533 141.579 23.5127 141.579 24.206C141.579 24.8127 141.457 25.272 141.215 25.584C140.972 25.8787 140.599 26.0693 140.097 26.156C139.958 26.1733 139.759 26.1993 139.499 26.234C139.239 26.2687 138.996 26.286 138.771 26.286ZM147.81 26.286C146.146 26.286 144.915 25.844 144.118 24.96C143.338 24.0587 142.948 22.7067 142.948 20.904V9.776C142.948 9.01333 143.147 8.43267 143.546 8.034C143.944 7.63533 144.508 7.436 145.236 7.436C145.981 7.436 146.553 7.63533 146.952 8.034C147.368 8.43267 147.576 9.01333 147.576 9.776V20.748C147.576 21.3893 147.697 21.8573 147.94 22.152C148.2 22.4467 148.529 22.594 148.928 22.594C149.049 22.594 149.17 22.5853 149.292 22.568C149.43 22.5333 149.578 22.5073 149.734 22.49C150.028 22.49 150.245 22.6027 150.384 22.828C150.54 23.0533 150.618 23.5127 150.618 24.206C150.618 24.8127 150.496 25.272 150.254 25.584C150.011 25.8787 149.638 26.0693 149.136 26.156C148.997 26.1733 148.798 26.1993 148.538 26.234C148.278 26.2687 148.035 26.286 147.81 26.286Z" fill="#003478"/>
</svg>
